<mxfile host="Electron" modified="2024-01-12T00:02:24.293Z" agent="Mozilla/5.0 (Windows NT 10.0; Win64; x64) AppleWebKit/537.36 (KHTML, like Gecko) draw.io/22.1.18 Chrome/120.0.6099.199 Electron/28.1.2 Safari/537.36" etag="HAcjmb_2bpNxA1-vyoh_" version="22.1.18" type="device">
  <diagram name="Layer_1" id="Layer_1">
    <mxGraphModel dx="1434" dy="836" grid="1" gridSize="10" guides="1" tooltips="1" connect="1" arrows="1" fold="1" page="1" pageScale="1" pageWidth="850" pageHeight="1100" math="0" shadow="0">
      <root>
        <mxCell id="0" />
        <mxCell id="1" parent="0" />
        <mxCell id="ZA7k3HFakNiLwdTov1JZ-38" value="" style="rounded=1;whiteSpace=wrap;html=1;fillColor=#e1d5e7;strokeColor=#9673a6;" vertex="1" parent="1">
          <mxGeometry x="430" y="430" width="540" height="240" as="geometry" />
        </mxCell>
        <mxCell id="w_5pN70K2NjQlTbYiHXN-307" value="" style="rounded=1;whiteSpace=wrap;html=1;fillColor=#dae8fc;strokeColor=#6c8ebf;" parent="1" vertex="1">
          <mxGeometry x="440" y="460" width="230" height="150" as="geometry" />
        </mxCell>
        <mxCell id="3" style="vsdxID=2;fillColor=none;gradientColor=none;strokeColor=none;spacingTop=-3;spacingBottom=-3;spacingLeft=-3;spacingRight=-3;labelBackgroundColor=none;rounded=0;html=1;whiteSpace=wrap;" parent="1" vertex="1">
          <mxGeometry x="850" y="810" width="320" height="300" as="geometry" />
        </mxCell>
        <mxCell id="4" style="vsdxID=3;fillColor=#f5f4f2;gradientColor=none;shape=stencil(lZPbEkMwEEC/Jq8mdjsaz6r/YYrKVDFBy983GuRCzfQtu87K2U1CMGqLpMkI0LYT9SN787QrCF4IAK+KTPBOrgjGBKO8Ftld1H2VqrhJJnJaPevX9IdB1dGpAug4Rx47fRNXxd56oWDfppfQQ6YyA6wZmBmwSgZcgPMCoAnMG5a8MuTC0ANmCx7ZSTxgjqGt51Pq2OkO0EVwfya2osZXBz84ktQFhjXYmmYjrvniac7GUd8VNQa/S2+OWp+kaz7YRzvCthG0CfwxHEfx8C7+w8qFvvA5L0v1Xszv7gORKfW4MP4A);strokeColor=none;strokeWidth=2;spacingTop=-3;spacingBottom=-3;spacingLeft=-3;spacingRight=-3;labelBackgroundColor=none;rounded=0;html=1;whiteSpace=wrap;" parent="3" vertex="1">
          <mxGeometry x="-34" y="1.47" width="353.33" height="298.53" as="geometry" />
        </mxCell>
        <mxCell id="5" value="&lt;p style=&quot;align:left;margin-left:0;margin-right:0;margin-top:0px;margin-bottom:0px;text-indent:0;valign:middle;direction:ltr;&quot;&gt;&lt;font style=&quot;font-size:13px;font-family:OracleSans-Bold;color:#312d2a;direction:ltr;letter-spacing:0px;line-height:120%;opacity:1&quot;&gt;OCI Region&lt;br/&gt;&lt;/font&gt;&lt;/p&gt;" style="verticalAlign=middle;align=left;vsdxID=4;fillColor=none;gradientColor=none;shape=stencil(nZBLDoAgDERP0z3SIyjew0SURgSD+Lu9kMZoXLhwN9O+tukAlrNpJg1SzDH4QW/URgNYgZTkjA4UkwJUgGXng+6DX1zLfmoymdXo17xh5zmRJ6Q42BWCfc2oJfdAr+Yv+AP9Cb7OJ3H/2JG1HNGz/84klThPVCc=);strokeColor=none;spacingTop=-3;spacingBottom=-3;spacingLeft=-3;spacingRight=-3;labelBackgroundColor=none;rounded=0;html=1;whiteSpace=wrap;" parent="3" vertex="1">
          <mxGeometry x="4.71578947368421" y="5.147058823529412" width="90.94736842105263" height="11.764705882352942" as="geometry" />
        </mxCell>
        <mxCell id="6" style="vsdxID=5;fillColor=#9e9892;gradientColor=none;shape=stencil(pZbRcoMgEEW/hlcHWHTkOU3/I9OY6tRqxpjU/n21VtBdI1DfCN7NHPYuyzI43PLTNWOS39qm/si+inObM3hhUhZVnjVF268YHBkcLnWTvTf1vTqPv6+nQTmsPuvH8A/dGMejVA9Bkn9PG0r+bryO8rKoZnKtIyH26Z+LKUuIdpPDKV9mpcdO1EIvIq42j4n0Oo108jxAcL5HHkqzV0+yg0ztd+I0IPuh+un8njUWKHfQeATgOwVJiLtEv21XSCkEVdlubqJ39BqSx7d7MwaIKSKeIgQO4Z0kGNKI4M+xDogI/A63fTJCSjEVwdRLTHOrLaRJEHhU8u5r5ahjj66G0zAPEdQM648SDFtmfAWzZe4deB3Q2QnWcMUS15qCXZqjqiWq1fgVV/B74RHg6tH4xVvJhUK5MCFz5wyHqetEE+OMaErQZpdyPW8Y1eotaEJBUYlxQonLK+jV2Dsoueaw7b4IqC+iokUlO8sPLAVe/jgfqBW+BPHZKjFMsSaUElGShhg65v1X2y/syHwpynKcuOff8Yjdb43jORx/AA==);strokeColor=none;strokeWidth=2;spacingTop=-3;spacingBottom=-3;spacingLeft=-3;spacingRight=-3;labelBackgroundColor=none;rounded=0;html=1;whiteSpace=wrap;" parent="3" vertex="1">
          <mxGeometry x="-36" width="356" height="300" as="geometry" />
        </mxCell>
        <mxCell id="ZA7k3HFakNiLwdTov1JZ-79" style="vsdxID=149;fillColor=none;gradientColor=none;strokeColor=none;spacingTop=-3;spacingBottom=-3;spacingLeft=-3;spacingRight=-3;points=[];labelBackgroundColor=none;rounded=0;html=1;whiteSpace=wrap;" vertex="1" parent="3">
          <mxGeometry x="30" y="100.24000000000001" width="84" height="76" as="geometry" />
        </mxCell>
        <mxCell id="ZA7k3HFakNiLwdTov1JZ-80" style="vsdxID=150;fillColor=none;gradientColor=none;strokeColor=none;spacingTop=-3;spacingBottom=-3;spacingLeft=-3;spacingRight=-3;points=[];labelBackgroundColor=none;rounded=0;html=1;whiteSpace=wrap;" vertex="1" parent="ZA7k3HFakNiLwdTov1JZ-79">
          <mxGeometry width="84" height="76" as="geometry" />
        </mxCell>
        <mxCell id="ZA7k3HFakNiLwdTov1JZ-81" style="vsdxID=151;fillColor=#FFFFFF;gradientColor=none;shape=stencil(pVXLcsIwDPyaXDW25Idypu1/MCWUTClhArT07+vUdrDNI5Ph5iharbSS5YoWh81y31QoDse++2x+2tVxU9FLhdjuNk3fHt2poteKFuuubz767rRb+e/9cvAcTl/d9xDh7HFGAdOAQvHrLXUNWv5b3jzg/dR7hPQOSoPFAAkmZmCPEWf0JiJgHbyCyWKMLM4UvCSwDV7BpBVYlfJv212SsEMYnSWsXQycA1AGkB4ABEj5HEC7SvV9ACow+BxgIiVpwE7UULZVaqA6b6uqgTlvq0SI44Jl6mNXGbQpmlrWV7JTbPpInsYNVCJnVgySc2aR0yoCYR/RipyT7CjbOMdQm5zWTbbmqYIvTvfkvggpr+Pi2BMjC3bXx0LutNmxcBGbee9OqPzWzwY40gfzZ5IdkSp9e1iFmBG69L66/qXSNUMx11aCKEaLzbjBotJuqRHmShsTuUal3bpEO0eImP9t9+l1PBvgDpftv263W/94pP/L18KZ/EtDr38=);strokeColor=none;spacingTop=-3;spacingBottom=-3;spacingLeft=-3;spacingRight=-3;points=[];labelBackgroundColor=none;rounded=0;html=1;whiteSpace=wrap;" vertex="1" parent="ZA7k3HFakNiLwdTov1JZ-80">
          <mxGeometry width="82" height="74" as="geometry" />
        </mxCell>
        <mxCell id="ZA7k3HFakNiLwdTov1JZ-82" style="vsdxID=152;fillColor=#FFFFFF;gradientColor=none;shape=stencil(pVfLctswDPwaXTEkwec5Tf4j0zi1pq6dUZw2+ftClUiRUEVa45tE7RIPgguow4f34/PboVPi/Tpcfh7+9C/XY4ffOqX68/Ew9Fd66vCxw4fXy3D4MVw+zi/T+9vziByffl1+jzt8TjxrQJuRpcTXtKLA/nt/muCn/pzBgwNfwqWD4PYQjASjc8L3j2HySEbKjJ/fbYB5h081rXhyWs6guGRBRBTOPAsRNK8ECzZs+7rOBXkvK9mwGrwsCdwCD05bMLaMj1w3qgwQDchQBuhkdCUFiAjKlhEaDVJvO0wM0TiNFkFrCKpCEDEBNxJUAH0XniIQlTNSVAX+PkLDI7mc3xaBV4E0YFkVaA86nu985FKBj3dBcd9TFVA+YkJwI0Bu3gAy6/m+KuqANKVx7ZZCxRVoXtFUMVgznlHmFfRgsDSeeRivBOU0tCJfQFuJJ+8Cs55trNKJMnlBkjEsrefHHmOXYGX1bmhWWQ0CFYC+j9CQ553y34S3mouoiqkplYPSVXGdYpUlnm6Vr2mZAIanEzR78B7qylfCMcTjvlEpG4TRvK4TVuVuwUVKLHcDjlU7ArJqpzJqqswC2mp1oPhVy/ZVeUHk98ywWy5Kszo1vQ2zorRJuhp0aTNzLMoNJj2uyGoCbYsLlsbzfRdtSbKxiDrXFg+Ca0sS3/93LQ2CScVeQnLjVjzPR7PxNgirzl7Hry7cbrxmYsoPNJfTeckpMJ6Vk15G3DiNerB8GsXU5NI4GuJwtSWIceL7SgRTOSKSWyYQUtQEdzW30P6qNh+7lUMefHXQ8URRZQZpyckyg2RX6jKDblHHdCkEkwIqWFdpEAv+pla4glvASqul0F05+49DXTXbWOLr7W1f76yD6WH5/3vtT6fp9zH/zv8XaWn618THvw==);strokeColor=none;spacingTop=-3;spacingBottom=-3;spacingLeft=-3;spacingRight=-3;points=[];labelBackgroundColor=none;rounded=0;html=1;whiteSpace=wrap;" vertex="1" parent="ZA7k3HFakNiLwdTov1JZ-80">
          <mxGeometry width="84" height="76" as="geometry" />
        </mxCell>
        <mxCell id="ZA7k3HFakNiLwdTov1JZ-83" style="vsdxID=153;fillColor=none;gradientColor=none;strokeColor=none;spacingTop=-3;spacingBottom=-3;spacingLeft=-3;spacingRight=-3;points=[];labelBackgroundColor=none;rounded=0;html=1;whiteSpace=wrap;" vertex="1" parent="ZA7k3HFakNiLwdTov1JZ-79">
          <mxGeometry x="1" y="2" width="81" height="72" as="geometry" />
        </mxCell>
        <mxCell id="ZA7k3HFakNiLwdTov1JZ-84" style="vsdxID=154;fillColor=#2d5967;gradientColor=none;shape=stencil(pZTbbsMgDIafhlsLcAhw3XXvUa3pgpYlVZpu3duPCFKKq6FEu8Pw+fCDMcPdpT2cGyb5ZRqHj+bbHaeW4QuT0vVtM7rJrxjuGe5Ow9i8j8O1Pwb7fJjJefU5fM0RbsFP8dlF8p9gBus1kJ3rH8gcFDVItRZGAwW2Alv/BxdFnAis/iatAl5tiPzMK5Hzb9cx3LWIHghaRI+4Vdtg32SwtQaxyItbRkUEiSK816GLaf2VCZ2nNXeflBmsyhNrnqAlN0ibZ1fVpscq4xwQiziVhoC5MC2B6PJBDRFmzJOwygKX5F7thr4SvPB1lMhYGpiKMr5i0ia+Ykl0WQNL8xQebKkrvZcg3ZKXmvhV/3z9+CiRfpHm08l1XRhvj+d0nvmtMAtx/ws=);strokeColor=none;spacingTop=-3;spacingBottom=-3;spacingLeft=-3;spacingRight=-3;points=[];labelBackgroundColor=none;rounded=0;html=1;whiteSpace=wrap;" vertex="1" parent="ZA7k3HFakNiLwdTov1JZ-83">
          <mxGeometry x="26" width="54" height="72" as="geometry" />
        </mxCell>
        <mxCell id="ZA7k3HFakNiLwdTov1JZ-85" style="vsdxID=155;fillColor=#2d5967;gradientColor=none;shape=stencil(lZHNDoMgEISfhusGWLBytvY9TMRKasGg/Xv7SklTaUoab7PLN2RgCFZT34yacDrN3p30zbRzT3BPODe2197MiyJYE6w65/XRu4tt4zw2gQzq7K7hhnv0MUqDh9NHnDkDJl+bQ8QHY1d4KYAlPM2zKECJBJYKCpY3MAkq4bEEUeT5NLncQaG2pHk//XeWbf/yF1/Ep4LODENscH3+XdmyinVj/QQ=);strokeColor=none;spacingTop=-3;spacingBottom=-3;spacingLeft=-3;spacingRight=-3;points=[];labelBackgroundColor=none;rounded=0;html=1;whiteSpace=wrap;" vertex="1" parent="ZA7k3HFakNiLwdTov1JZ-83">
          <mxGeometry x="55" y="12" width="11" height="9" as="geometry" />
        </mxCell>
        <mxCell id="ZA7k3HFakNiLwdTov1JZ-86" style="vsdxID=156;fillColor=#2d5967;gradientColor=none;shape=stencil(UzV2Ls5ILEhVNTIoLinKz04tz0wpyVA1dlE1MsrMy0gtyiwBslSNXVWNndPyi1LTi/JL81Ig/IJEkEoQKze/DGRCBUSfAUiHkUElhGdoAOG7QZTmZOYhKYVJEqXYxELPwgxFOR7FJJiLVymQgfBnWmZODiSYkOXRwwUoBAlTY1cA);strokeColor=none;spacingTop=-3;spacingBottom=-3;spacingLeft=-3;spacingRight=-3;points=[];labelBackgroundColor=none;rounded=0;html=1;whiteSpace=wrap;" vertex="1" parent="ZA7k3HFakNiLwdTov1JZ-83">
          <mxGeometry x="57" y="46" width="7" height="6" as="geometry" />
        </mxCell>
        <mxCell id="ZA7k3HFakNiLwdTov1JZ-87" style="vsdxID=157;fillColor=#2d5967;gradientColor=none;shape=stencil(lZLdDsIgDIWfhtumUCnbtT/vYXQ64twMzr+3d7NMZVET73pOWz4IR9H0WC4PhTJ4bEOzKy5+3ZaKZsoYX5dF8G1XKZormm6aUGxDc6rXog/LfrKv9s25P+Eqe5QDcr9l8CaOBdQPYyHzq1OQBS19PQGmuDFYKPpqREd5i5JsbJNoB5THiegw/knMbEokBrYpVSOmWNaAWcrNDUzyX+jMArnf6CdnALOB0YM7jOOUTC4OfQM7cFkK1iMw03D5J3r04vfPpc+/W/n6rzR0xStKG19VksT3/jh6nSWxpfkd);strokeColor=none;spacingTop=-3;spacingBottom=-3;spacingLeft=-3;spacingRight=-3;points=[];labelBackgroundColor=none;rounded=0;html=1;whiteSpace=wrap;" vertex="1" parent="ZA7k3HFakNiLwdTov1JZ-83">
          <mxGeometry x="41" y="46" width="7" height="7" as="geometry" />
        </mxCell>
        <mxCell id="ZA7k3HFakNiLwdTov1JZ-88" style="vsdxID=158;fillColor=#2d5967;gradientColor=none;shape=stencil(nZLZDsIgFES/hlfCIlGea/2PJqVCRGgobn8v5MbYuqDt2wyce5mQQbwadNMrxMgQgz+oi2mjRnyLGDNOq2BiUojXiFedD2of/Mm14Psmk1kd/TlvuMIcJSTPMHIDD24HqDVuhC4EHy98RKXE4n96RtgiOv0CyfBKTuCN+L54jQVdDtMC/J5jHl0K8otO4tmQzlgLBRvfvzYqHUEbeX0H);strokeColor=none;spacingTop=-3;spacingBottom=-3;spacingLeft=-3;spacingRight=-3;points=[];labelBackgroundColor=none;rounded=0;html=1;whiteSpace=wrap;" vertex="1" parent="ZA7k3HFakNiLwdTov1JZ-83">
          <mxGeometry x="35" y="24" width="36" height="18" as="geometry" />
        </mxCell>
        <mxCell id="ZA7k3HFakNiLwdTov1JZ-89" style="vsdxID=159;fillColor=#2d5967;gradientColor=none;shape=stencil(lVLREoIgEPwaXh28y+zd7D+cxGQycUhL/z4JSrjGpt6OZde9xWWYXeuiEwz4tdfqLO6y7GuGewYg21po2c8Tw5xhViktTloNbWnPXWGYZrqom/nCaHUJj2IjAj5ZIOb8eT5Y9nHQlh7b6zSNksQJ4lDBRyDABG/RFhwHKQdfi3yzXegOAIhwF9r6qzmIh6ZeWPQJK6azx4ZkJUlJTn8pDBk/pSQZ/WeDz5Xoa6+nJP+0ke0fDZiHpTyVbBrbPf+elm2GbFExfwA=);strokeColor=none;spacingTop=-3;spacingBottom=-3;spacingLeft=-3;spacingRight=-3;points=[];labelBackgroundColor=none;rounded=0;html=1;whiteSpace=wrap;" vertex="1" parent="ZA7k3HFakNiLwdTov1JZ-83">
          <mxGeometry x="59" y="30" width="5" height="5" as="geometry" />
        </mxCell>
        <mxCell id="ZA7k3HFakNiLwdTov1JZ-90" style="vsdxID=160;fillColor=#2d5967;gradientColor=none;shape=stencil(nZBLCoAwDERPk31tjuDnHoLVBmsrtf5ub0sQRdzobiZ5ycAA5pOuRwVSTMG7Xq3UBA1YgJRktfIUogIsAfPWedV5N9uG/VgnMqnBLenDxneZEOlGip09u4pRQ/aG/gTPhFf0Gf8J/otGcdXRkjHc5n3/rC+OuHosDw==);strokeColor=none;spacingTop=-3;spacingBottom=-3;spacingLeft=-3;spacingRight=-3;points=[];labelBackgroundColor=none;rounded=0;html=1;whiteSpace=wrap;" vertex="1" parent="ZA7k3HFakNiLwdTov1JZ-83">
          <mxGeometry x="41" y="17" width="7" height="2" as="geometry" />
        </mxCell>
        <mxCell id="ZA7k3HFakNiLwdTov1JZ-91" style="vsdxID=161;fillColor=#2d5967;gradientColor=none;shape=stencil(pVXLcsIwDPyaXDW25OeZ0v9gSiiZUsIEaOnfN6ltsJJJAuVmy7taK1rFBS2O29WhLFAcT039UX5X69O2oJcCsdpvy6Y6tauClgUtNnVTvjf1eb8O+8OqQ3arz/qry3AJPC9Au46F4idEjARv/yKvgbCr9pMEKcQ4PB3+C+wdaH8/nDwoNQ53BMY8QlAIdobwdm7C15SRIsD5SIkhaSBGLhizIIiUN4ZiIRcKW5RACUE5YkS2vRZyVcElBZdr80vikoLLKZsKGZEUXM8qMJprZpdKEQ3WzlZ6Q41Ik0xduMrnmfHaKyO5vhOAjuu3PZaK62sPUo+7wgpQxFzxMGFQYY/gwbnnCDNDPByFh6f+eQL/EeVGiFVZUGbKB1KBsj0bXjkTNjQKbBpJGoCSCwRMmnA4cmTAINeWGnoWRAKvZkfghhpRRwumV3qeOY0AAWmun1+Shqg7i88pMWQM9IpHB+i5et6e8eoHjefWusMp7eL24G2q3S68l/l5/4FsQ+FxpeUv);strokeColor=none;spacingTop=-3;spacingBottom=-3;spacingLeft=-3;spacingRight=-3;points=[];labelBackgroundColor=none;rounded=0;html=1;whiteSpace=wrap;" vertex="1" parent="ZA7k3HFakNiLwdTov1JZ-83">
          <mxGeometry y="24" width="28" height="12" as="geometry" />
        </mxCell>
        <mxCell id="ZA7k3HFakNiLwdTov1JZ-96" value="Key Vault" style="text;html=1;align=center;verticalAlign=middle;resizable=0;points=[];autosize=1;strokeColor=none;fillColor=none;" vertex="1" parent="3">
          <mxGeometry x="50" y="170" width="70" height="30" as="geometry" />
        </mxCell>
        <mxCell id="ZA7k3HFakNiLwdTov1JZ-97" value="OCIR" style="text;html=1;align=center;verticalAlign=middle;resizable=0;points=[];autosize=1;strokeColor=none;fillColor=none;" vertex="1" parent="3">
          <mxGeometry x="220" y="170" width="50" height="30" as="geometry" />
        </mxCell>
        <mxCell id="ZA7k3HFakNiLwdTov1JZ-98" style="vsdxID=76;fillColor=none;gradientColor=none;strokeColor=none;spacingTop=-3;spacingBottom=-3;spacingLeft=-3;spacingRight=-3;points=[];labelBackgroundColor=none;rounded=0;html=1;whiteSpace=wrap;" vertex="1" parent="3">
          <mxGeometry x="140" y="235" width="60" height="55" as="geometry" />
        </mxCell>
        <mxCell id="ZA7k3HFakNiLwdTov1JZ-99" style="vsdxID=77;fillColor=none;gradientColor=none;strokeColor=none;spacingTop=-3;spacingBottom=-3;spacingLeft=-3;spacingRight=-3;points=[];labelBackgroundColor=none;rounded=0;html=1;whiteSpace=wrap;" vertex="1" parent="ZA7k3HFakNiLwdTov1JZ-98">
          <mxGeometry width="60" height="55" as="geometry" />
        </mxCell>
        <mxCell id="ZA7k3HFakNiLwdTov1JZ-100" style="vsdxID=78;fillColor=#FFFFFF;gradientColor=none;shape=stencil(ldPbEoIgEAbgp+GWQUgdrzu8R1OaTKYNacnbJy0Iix2mOxZ+9JsFiFjf6v21JJzdetWdy4c89jURG8K5bOtSyX4aEbElYl11qjypbmiPUF/3JmlGl+5uvjDCvpSKzGziTMNEwtir3kH6MCiIJ7DMaZrafII3sJHDhC21LYuc5jYgcMCWxYpmq/CfjWwDIUO82fvBxzDOc52OU4F9DOOChiDuW5unO9/X5vlWaMx1uLmXOtY6nk/E3rdAH//Q65joNyzM4+JAdcweF0c6O6N7hZm/buF/6Wngr3slmwZeS7geP49pCp6W2D4B);strokeColor=none;spacingTop=-3;spacingBottom=-3;spacingLeft=-3;spacingRight=-3;points=[];labelBackgroundColor=none;rounded=0;html=1;whiteSpace=wrap;" vertex="1" parent="ZA7k3HFakNiLwdTov1JZ-99">
          <mxGeometry x="0.7142857142857143" y="0.6547619047619048" width="58.57142857142857" height="53.69047619047619" as="geometry" />
        </mxCell>
        <mxCell id="ZA7k3HFakNiLwdTov1JZ-101" style="vsdxID=79;fillColor=#FFFFFF;gradientColor=none;shape=stencil(lZVBcoMwDEVP461H2BDKOk3vkWlIYUohQ0gLty/UxpYlGmDnKF/w9CVhoY/34nzLhYJ71zaf+U956QqhX4VSZV3kbdmNJ6FPQh+vTZt/tM2jvpjft/OknE5fzff0hN7kZVomespSMJiIknH2F3gz+vdHaxIim5HINLUZEUmBXllRKpPIimwolsq+qNdcZEMHGaf45VVZY1iUQPH/o0UpvACHi2riFThe5BUrYRHYleN4qZ7yepcGXsGM6/0eeAEzLRIx/kVYlLDcDMqKEhh9z7o+MPieNt2R0hkkY7A6s3v1azsBO1oMzy3LXkLLIPQLqFkZMQtCp54vDARkq8sCgk4eKDp5jt9GIgCx0s1ZsrE5RL6w0UA22jNQKLTNrhRNNdvWw+u3bYfXR6yXnkodQlBi5sInZ5eXgXg8+GvgWlaVuUXw//TaGEPmytGnXw==);strokeColor=none;spacingTop=-3;spacingBottom=-3;spacingLeft=-3;spacingRight=-3;points=[];labelBackgroundColor=none;rounded=0;html=1;whiteSpace=wrap;" vertex="1" parent="ZA7k3HFakNiLwdTov1JZ-99">
          <mxGeometry width="60" height="55" as="geometry" />
        </mxCell>
        <mxCell id="ZA7k3HFakNiLwdTov1JZ-102" style="vsdxID=80;fillColor=none;gradientColor=none;strokeColor=none;spacingTop=-3;spacingBottom=-3;spacingLeft=-3;spacingRight=-3;points=[];labelBackgroundColor=none;rounded=0;html=1;whiteSpace=wrap;" vertex="1" parent="ZA7k3HFakNiLwdTov1JZ-98">
          <mxGeometry x="1.4285714285714286" y="1.3095238095238095" width="57.142857142857146" height="52.38095238095238" as="geometry" />
        </mxCell>
        <mxCell id="ZA7k3HFakNiLwdTov1JZ-103" style="vsdxID=81;fillColor=#2d5967;gradientColor=none;shape=stencil(lZXRdoMgDEC/hldOIJ3V5679j57VTs9c7bF207+fjikh0R18g3ijlxBE4eFRnO+5svBom/oj/y4vbaHwVVlb3oq8KdthpPCo8HCtm/y9qZ+3i5vfzyM5jj7rr/ENncvLXnRqxiwLvYvA7+zk4Kq8EXinTbbOvj0b92bjHhqd4h9tKA6dDaa95XyHIYDs84tyEJj5da3YQaiWpdrsQz3iP0UAQkFSEAyRRUVZbIZzSWI1iXoHLjVZ0qUgZ3ClPKGo55crL7YaWDnJXkqrPtz/TjjNmptqGcCsyxONu239QVN8CFiPkFBvReI/K/NU3EkTPPdFnaHQnUXsBCWJsAXWLASK6xaSENcuJEHYe9WMnT6ftX78ZiayZzi/0AWw56qzhtzxXth3YsMj/2cRPbs5YRj4i+BaVpW7R+hzfnEMIXfp4PEH);strokeColor=none;spacingTop=-3;spacingBottom=-3;spacingLeft=-3;spacingRight=-3;points=[];labelBackgroundColor=none;rounded=0;html=1;whiteSpace=wrap;" vertex="1" parent="ZA7k3HFakNiLwdTov1JZ-102">
          <mxGeometry width="57.142857142857146" height="52.38095238095238" as="geometry" />
        </mxCell>
        <mxCell id="ZA7k3HFakNiLwdTov1JZ-104" style="vsdxID=82;fillColor=#2d5967;gradientColor=none;shape=stencil(pZLZDsIgEEW/hleCjLg81/ofTUqFiNBQ6vL3QibGVlMa69u9zJkl5BIoOlW1knDWBe/O8qbroAgcCOfaKul1iIpASaBonJcn73pbo2+rRCZ1cdc04Y59LHVw9kC3YuiPiBptB+iruAjOoAvB7PosOv4BQRmM6Q1db6dH7wX9j98BFTDNf93zKz9zzzwfxTsujTYG0zasf8YrPmE0oXwC);strokeColor=none;spacingTop=-3;spacingBottom=-3;spacingLeft=-3;spacingRight=-3;points=[];labelBackgroundColor=none;rounded=0;html=1;whiteSpace=wrap;" vertex="1" parent="ZA7k3HFakNiLwdTov1JZ-102">
          <mxGeometry x="5.714285714285714" y="34.702380952380956" width="44.285714285714285" height="11.130952380952381" as="geometry" />
        </mxCell>
        <mxCell id="ZA7k3HFakNiLwdTov1JZ-105" style="vsdxID=83;fillColor=#2d5967;gradientColor=none;shape=stencil(lVJBDoIwEHxNr2S7q/IAxH8YKdKIQAoo/F5qMbRLMHrbTmeYnTKCkrY4N0ogtJ2pb+qps64QdBSIuiqU0d00CUoFJXlt1NXUfZW5c3O2TDvd64f9wuB0e4hAWhXC6BAJ8D6fHP3SG8eX7jqOowPOAhkqYEAGjLgSDcQ5xDfZcF4UM4AY7UJjf7kZgtDWz0s+Y8N08fi4sqwsqbcThYRfY7KQ/tOtPEb+4F9isv9a6uqfGkzDUqFcl6VroH/PKzdBrq6UvgA=);strokeColor=none;spacingTop=-3;spacingBottom=-3;spacingLeft=-3;spacingRight=-3;points=[];labelBackgroundColor=none;rounded=0;html=1;whiteSpace=wrap;" vertex="1" parent="ZA7k3HFakNiLwdTov1JZ-102">
          <mxGeometry x="42.142857142857146" y="39.285714285714285" width="2.857142857142857" height="2.619047619047619" as="geometry" />
        </mxCell>
        <mxCell id="ZA7k3HFakNiLwdTov1JZ-106" style="vsdxID=84;fillColor=#2d5967;gradientColor=none;shape=stencil(pZXdcoMgEIWfhtsdYBE312n6HpnGVKZWM8S09u2rQ3+CmwwS7wDPx56zo67A7bnenyqh5bn33Vv16Q59LfBJaO3auvKuH1cCdwK3x85Xr767tIewP+0n5bR67z6mG4bAKSknRsuvsA+75yBtXHslfVD4W+GmdF4+S/yoNO6AsYAUmyjBFvfvLgxgsQ4gA6W6D3BLDHi5+BBCceTniBAKDEeD5io99y4H5CpclHBBD+OmowWNccI/tzcraAJt1wGJDNxSNpCwtACIu2QNmE2OpVKDyQrNgcSryS1lAwlLC4D5LwyozKmgCMisAxKhuaVsIGUpDcRdog1Q1gdECojWAYkM3FI2kLKUBsbF/2w8uqYJo/X6+XyWjkdhDuPuGw==);strokeColor=none;spacingTop=-3;spacingBottom=-3;spacingLeft=-3;spacingRight=-3;points=[];labelBackgroundColor=none;rounded=0;html=1;whiteSpace=wrap;" vertex="1" parent="ZA7k3HFakNiLwdTov1JZ-102">
          <mxGeometry x="5.714285714285714" y="5.238095238095238" width="20.714285714285715" height="11.130952380952381" as="geometry" />
        </mxCell>
        <mxCell id="ZA7k3HFakNiLwdTov1JZ-107" style="vsdxID=85;fillColor=#2d5967;gradientColor=none;shape=stencil(pZXRbsMgDEW/hlcL4xDYc9f9R6WmC1qWVGm6rX/fRKhaGWscN2823AMXI7CizaneHStl9Gnou4/qO+yHWtGrMia0ddWHYYwUbRVtDl1fvffdud3H/LiblFP02X1NK/xETk+E0ZeYoY75W5Q2ob2T3iafEs9InxTObj8rTStgCUqTyD2BpcdrFxZKuw5Adxv5F8gtiQHG0gIgrVJJ4JzEkkNwxTrAF+DwMZBbEgOMpQVAWiWyYFFyD8aBLdYBzBlyS2KAsbQASKvkX8CXkh08gvfrAObQuSUxwFnigbRKqAFFN40eUPRr5ADzgHJLYoCzxANj8NvMDqFpYi+8n//b/Mah2DhpewU=);strokeColor=none;spacingTop=-3;spacingBottom=-3;spacingLeft=-3;spacingRight=-3;points=[];labelBackgroundColor=none;rounded=0;html=1;whiteSpace=wrap;" vertex="1" parent="ZA7k3HFakNiLwdTov1JZ-102">
          <mxGeometry x="30" y="5.238095238095238" width="20.714285714285715" height="11.130952380952381" as="geometry" />
        </mxCell>
        <mxCell id="ZA7k3HFakNiLwdTov1JZ-108" style="vsdxID=86;fillColor=#2d5967;gradientColor=none;shape=stencil(pZXdboMwDIWfJrdWsENwr7v2PaqVjmgMKko39vYDZT8NWWVS7pJwvvgcI8WKtpfqcC4V6kvfta/lhzv2laInheiaquxcP64U7RRtT21XvnTttTn6/fkwKafVW/s+3TB4LtN6YlB/+r3f7b20ds2N9EHhT4V/pfPySeJHpWEHjAXi0IQFU9y/OzdA+TqACXK6D8SWIuD52vkQWYx8HzH+lh0wVuHcux4oVtGihAt6GDadLCCltAQZ0K4DhAyxpWRAsLQACLtkDZhNiqUCwSSFjgEhQ2wpGRAsLQDmTxhwkVIhY2CzDhBCx5aSAcmSDIRd4g1w0p/mDFh4hCRAyBBbSgYkSzIwLv5m48nVtR+tt9/ns3Q88nOYdl8=);strokeColor=none;spacingTop=-3;spacingBottom=-3;spacingLeft=-3;spacingRight=-3;points=[];labelBackgroundColor=none;rounded=0;html=1;whiteSpace=wrap;" vertex="1" parent="ZA7k3HFakNiLwdTov1JZ-102">
          <mxGeometry x="5.714285714285714" y="20.297619047619047" width="20.714285714285715" height="11.130952380952381" as="geometry" />
        </mxCell>
        <mxCell id="ZA7k3HFakNiLwdTov1JZ-109" style="vsdxID=87;fillColor=#2d5967;gradientColor=none;shape=stencil(pZXbboMwDIafJrdWHJPDrrvuPSqVjmgMKkp3ePuBomnNomJc7hLyf+SzkbCi3aU5nGtl9GUc+rf6Mx7HRtGzMiZ2TT3EcVop2ivanfqhfh36a3dM+/NhTs6r9/5jfsNX4vRMGP2ddqjT/iVF29jdRH8PHwovRB8MLl6/GM07YAmcyeKBwNL9d1cWnN0GoIPK3wdKJTHAKK0A8i45Au8lSh7BV9sApoZSSQwwSiuAvEtkwaJEyXiwoqJLgKmhVBIDjNIKIO9SeILgJDcEhBC2AUzRpZIY4JR4IO8SakDRl8YAKPprlABTQ6kkBjglHpgWf8PsFNs2zcLb8//Db3qUBiftfwA=);strokeColor=none;spacingTop=-3;spacingBottom=-3;spacingLeft=-3;spacingRight=-3;points=[];labelBackgroundColor=none;rounded=0;html=1;whiteSpace=wrap;" vertex="1" parent="ZA7k3HFakNiLwdTov1JZ-102">
          <mxGeometry x="30" y="20.297619047619047" width="20.714285714285715" height="11.130952380952381" as="geometry" />
        </mxCell>
        <mxCell id="ZA7k3HFakNiLwdTov1JZ-111" style="vsdxID=76;fillColor=none;gradientColor=none;strokeColor=none;spacingTop=-3;spacingBottom=-3;spacingLeft=-3;spacingRight=-3;points=[];labelBackgroundColor=none;rounded=0;html=1;whiteSpace=wrap;" vertex="1" parent="3">
          <mxGeometry x="210" y="235" width="60" height="55" as="geometry" />
        </mxCell>
        <mxCell id="ZA7k3HFakNiLwdTov1JZ-112" style="vsdxID=77;fillColor=none;gradientColor=none;strokeColor=none;spacingTop=-3;spacingBottom=-3;spacingLeft=-3;spacingRight=-3;points=[];labelBackgroundColor=none;rounded=0;html=1;whiteSpace=wrap;" vertex="1" parent="ZA7k3HFakNiLwdTov1JZ-111">
          <mxGeometry width="60" height="55" as="geometry" />
        </mxCell>
        <mxCell id="ZA7k3HFakNiLwdTov1JZ-113" style="vsdxID=78;fillColor=#FFFFFF;gradientColor=none;shape=stencil(ldPbEoIgEAbgp+GWQUgdrzu8R1OaTKYNacnbJy0Iix2mOxZ+9JsFiFjf6v21JJzdetWdy4c89jURG8K5bOtSyX4aEbElYl11qjypbmiPUF/3JmlGl+5uvjDCvpSKzGziTMNEwtir3kH6MCiIJ7DMaZrafII3sJHDhC21LYuc5jYgcMCWxYpmq/CfjWwDIUO82fvBxzDOc52OU4F9DOOChiDuW5unO9/X5vlWaMx1uLmXOtY6nk/E3rdAH//Q65joNyzM4+JAdcweF0c6O6N7hZm/buF/6Wngr3slmwZeS7geP49pCp6W2D4B);strokeColor=none;spacingTop=-3;spacingBottom=-3;spacingLeft=-3;spacingRight=-3;points=[];labelBackgroundColor=none;rounded=0;html=1;whiteSpace=wrap;" vertex="1" parent="ZA7k3HFakNiLwdTov1JZ-112">
          <mxGeometry x="0.7142857142857143" y="0.6547619047619048" width="58.57142857142857" height="53.69047619047619" as="geometry" />
        </mxCell>
        <mxCell id="ZA7k3HFakNiLwdTov1JZ-114" style="vsdxID=79;fillColor=#FFFFFF;gradientColor=none;shape=stencil(lZVBcoMwDEVP461H2BDKOk3vkWlIYUohQ0gLty/UxpYlGmDnKF/w9CVhoY/34nzLhYJ71zaf+U956QqhX4VSZV3kbdmNJ6FPQh+vTZt/tM2jvpjft/OknE5fzff0hN7kZVomespSMJiIknH2F3gz+vdHaxIim5HINLUZEUmBXllRKpPIimwolsq+qNdcZEMHGaf45VVZY1iUQPH/o0UpvACHi2riFThe5BUrYRHYleN4qZ7yepcGXsGM6/0eeAEzLRIx/kVYlLDcDMqKEhh9z7o+MPieNt2R0hkkY7A6s3v1azsBO1oMzy3LXkLLIPQLqFkZMQtCp54vDARkq8sCgk4eKDp5jt9GIgCx0s1ZsrE5RL6w0UA22jNQKLTNrhRNNdvWw+u3bYfXR6yXnkodQlBi5sInZ5eXgXg8+GvgWlaVuUXw//TaGEPmytGnXw==);strokeColor=none;spacingTop=-3;spacingBottom=-3;spacingLeft=-3;spacingRight=-3;points=[];labelBackgroundColor=none;rounded=0;html=1;whiteSpace=wrap;" vertex="1" parent="ZA7k3HFakNiLwdTov1JZ-112">
          <mxGeometry width="60" height="55" as="geometry" />
        </mxCell>
        <mxCell id="ZA7k3HFakNiLwdTov1JZ-115" style="vsdxID=80;fillColor=none;gradientColor=none;strokeColor=none;spacingTop=-3;spacingBottom=-3;spacingLeft=-3;spacingRight=-3;points=[];labelBackgroundColor=none;rounded=0;html=1;whiteSpace=wrap;" vertex="1" parent="ZA7k3HFakNiLwdTov1JZ-111">
          <mxGeometry x="1.4285714285714286" y="1.3095238095238095" width="57.142857142857146" height="52.38095238095238" as="geometry" />
        </mxCell>
        <mxCell id="ZA7k3HFakNiLwdTov1JZ-116" style="vsdxID=81;fillColor=#2d5967;gradientColor=none;shape=stencil(lZXRdoMgDEC/hldOIJ3V5679j57VTs9c7bF207+fjikh0R18g3ijlxBE4eFRnO+5svBom/oj/y4vbaHwVVlb3oq8KdthpPCo8HCtm/y9qZ+3i5vfzyM5jj7rr/ENncvLXnRqxiwLvYvA7+zk4Kq8EXinTbbOvj0b92bjHhqd4h9tKA6dDaa95XyHIYDs84tyEJj5da3YQaiWpdrsQz3iP0UAQkFSEAyRRUVZbIZzSWI1iXoHLjVZ0qUgZ3ClPKGo55crL7YaWDnJXkqrPtz/TjjNmptqGcCsyxONu239QVN8CFiPkFBvReI/K/NU3EkTPPdFnaHQnUXsBCWJsAXWLASK6xaSENcuJEHYe9WMnT6ftX78ZiayZzi/0AWw56qzhtzxXth3YsMj/2cRPbs5YRj4i+BaVpW7R+hzfnEMIXfp4PEH);strokeColor=none;spacingTop=-3;spacingBottom=-3;spacingLeft=-3;spacingRight=-3;points=[];labelBackgroundColor=none;rounded=0;html=1;whiteSpace=wrap;" vertex="1" parent="ZA7k3HFakNiLwdTov1JZ-115">
          <mxGeometry width="57.142857142857146" height="52.38095238095238" as="geometry" />
        </mxCell>
        <mxCell id="ZA7k3HFakNiLwdTov1JZ-117" style="vsdxID=82;fillColor=#2d5967;gradientColor=none;shape=stencil(pZLZDsIgEEW/hleCjLg81/ofTUqFiNBQ6vL3QibGVlMa69u9zJkl5BIoOlW1knDWBe/O8qbroAgcCOfaKul1iIpASaBonJcn73pbo2+rRCZ1cdc04Y59LHVw9kC3YuiPiBptB+iruAjOoAvB7PosOv4BQRmM6Q1db6dH7wX9j98BFTDNf93zKz9zzzwfxTsujTYG0zasf8YrPmE0oXwC);strokeColor=none;spacingTop=-3;spacingBottom=-3;spacingLeft=-3;spacingRight=-3;points=[];labelBackgroundColor=none;rounded=0;html=1;whiteSpace=wrap;" vertex="1" parent="ZA7k3HFakNiLwdTov1JZ-115">
          <mxGeometry x="5.714285714285714" y="34.702380952380956" width="44.285714285714285" height="11.130952380952381" as="geometry" />
        </mxCell>
        <mxCell id="ZA7k3HFakNiLwdTov1JZ-118" style="vsdxID=83;fillColor=#2d5967;gradientColor=none;shape=stencil(lVJBDoIwEHxNr2S7q/IAxH8YKdKIQAoo/F5qMbRLMHrbTmeYnTKCkrY4N0ogtJ2pb+qps64QdBSIuiqU0d00CUoFJXlt1NXUfZW5c3O2TDvd64f9wuB0e4hAWhXC6BAJ8D6fHP3SG8eX7jqOowPOAhkqYEAGjLgSDcQ5xDfZcF4UM4AY7UJjf7kZgtDWz0s+Y8N08fi4sqwsqbcThYRfY7KQ/tOtPEb+4F9isv9a6uqfGkzDUqFcl6VroH/PKzdBrq6UvgA=);strokeColor=none;spacingTop=-3;spacingBottom=-3;spacingLeft=-3;spacingRight=-3;points=[];labelBackgroundColor=none;rounded=0;html=1;whiteSpace=wrap;" vertex="1" parent="ZA7k3HFakNiLwdTov1JZ-115">
          <mxGeometry x="42.142857142857146" y="39.285714285714285" width="2.857142857142857" height="2.619047619047619" as="geometry" />
        </mxCell>
        <mxCell id="ZA7k3HFakNiLwdTov1JZ-119" style="vsdxID=84;fillColor=#2d5967;gradientColor=none;shape=stencil(pZXdcoMgEIWfhtsdYBE312n6HpnGVKZWM8S09u2rQ3+CmwwS7wDPx56zo67A7bnenyqh5bn33Vv16Q59LfBJaO3auvKuH1cCdwK3x85Xr767tIewP+0n5bR67z6mG4bAKSknRsuvsA+75yBtXHslfVD4W+GmdF4+S/yoNO6AsYAUmyjBFvfvLgxgsQ4gA6W6D3BLDHi5+BBCceTniBAKDEeD5io99y4H5CpclHBBD+OmowWNccI/tzcraAJt1wGJDNxSNpCwtACIu2QNmE2OpVKDyQrNgcSryS1lAwlLC4D5LwyozKmgCMisAxKhuaVsIGUpDcRdog1Q1gdECojWAYkM3FI2kLKUBsbF/2w8uqYJo/X6+XyWjkdhDuPuGw==);strokeColor=none;spacingTop=-3;spacingBottom=-3;spacingLeft=-3;spacingRight=-3;points=[];labelBackgroundColor=none;rounded=0;html=1;whiteSpace=wrap;" vertex="1" parent="ZA7k3HFakNiLwdTov1JZ-115">
          <mxGeometry x="5.714285714285714" y="5.238095238095238" width="20.714285714285715" height="11.130952380952381" as="geometry" />
        </mxCell>
        <mxCell id="ZA7k3HFakNiLwdTov1JZ-120" style="vsdxID=85;fillColor=#2d5967;gradientColor=none;shape=stencil(pZXRbsMgDEW/hlcL4xDYc9f9R6WmC1qWVGm6rX/fRKhaGWscN2823AMXI7CizaneHStl9Gnou4/qO+yHWtGrMia0ddWHYYwUbRVtDl1fvffdud3H/LiblFP02X1NK/xETk+E0ZeYoY75W5Q2ob2T3iafEs9InxTObj8rTStgCUqTyD2BpcdrFxZKuw5Adxv5F8gtiQHG0gIgrVJJ4JzEkkNwxTrAF+DwMZBbEgOMpQVAWiWyYFFyD8aBLdYBzBlyS2KAsbQASKvkX8CXkh08gvfrAObQuSUxwFnigbRKqAFFN40eUPRr5ADzgHJLYoCzxANj8NvMDqFpYi+8n//b/Mah2DhpewU=);strokeColor=none;spacingTop=-3;spacingBottom=-3;spacingLeft=-3;spacingRight=-3;points=[];labelBackgroundColor=none;rounded=0;html=1;whiteSpace=wrap;" vertex="1" parent="ZA7k3HFakNiLwdTov1JZ-115">
          <mxGeometry x="30" y="5.238095238095238" width="20.714285714285715" height="11.130952380952381" as="geometry" />
        </mxCell>
        <mxCell id="ZA7k3HFakNiLwdTov1JZ-121" style="vsdxID=86;fillColor=#2d5967;gradientColor=none;shape=stencil(pZXdboMwDIWfJrdWsENwr7v2PaqVjmgMKko39vYDZT8NWWVS7pJwvvgcI8WKtpfqcC4V6kvfta/lhzv2laInheiaquxcP64U7RRtT21XvnTttTn6/fkwKafVW/s+3TB4LtN6YlB/+r3f7b20ds2N9EHhT4V/pfPySeJHpWEHjAXi0IQFU9y/OzdA+TqACXK6D8SWIuD52vkQWYx8HzH+lh0wVuHcux4oVtGihAt6GDadLCCltAQZ0K4DhAyxpWRAsLQACLtkDZhNiqUCwSSFjgEhQ2wpGRAsLQDmTxhwkVIhY2CzDhBCx5aSAcmSDIRd4g1w0p/mDFh4hCRAyBBbSgYkSzIwLv5m48nVtR+tt9/ns3Q88nOYdl8=);strokeColor=none;spacingTop=-3;spacingBottom=-3;spacingLeft=-3;spacingRight=-3;points=[];labelBackgroundColor=none;rounded=0;html=1;whiteSpace=wrap;" vertex="1" parent="ZA7k3HFakNiLwdTov1JZ-115">
          <mxGeometry x="5.714285714285714" y="20.297619047619047" width="20.714285714285715" height="11.130952380952381" as="geometry" />
        </mxCell>
        <mxCell id="ZA7k3HFakNiLwdTov1JZ-122" style="vsdxID=87;fillColor=#2d5967;gradientColor=none;shape=stencil(pZXbboMwDIafJrdWHJPDrrvuPSqVjmgMKkp3ePuBomnNomJc7hLyf+SzkbCi3aU5nGtl9GUc+rf6Mx7HRtGzMiZ2TT3EcVop2ivanfqhfh36a3dM+/NhTs6r9/5jfsNX4vRMGP2ddqjT/iVF29jdRH8PHwovRB8MLl6/GM07YAmcyeKBwNL9d1cWnN0GoIPK3wdKJTHAKK0A8i45Au8lSh7BV9sApoZSSQwwSiuAvEtkwaJEyXiwoqJLgKmhVBIDjNIKIO9SeILgJDcEhBC2AUzRpZIY4JR4IO8SakDRl8YAKPprlABTQ6kkBjglHpgWf8PsFNs2zcLb8//Db3qUBiftfwA=);strokeColor=none;spacingTop=-3;spacingBottom=-3;spacingLeft=-3;spacingRight=-3;points=[];labelBackgroundColor=none;rounded=0;html=1;whiteSpace=wrap;" vertex="1" parent="ZA7k3HFakNiLwdTov1JZ-115">
          <mxGeometry x="30" y="20.297619047619047" width="20.714285714285715" height="11.130952380952381" as="geometry" />
        </mxCell>
        <mxCell id="ZA7k3HFakNiLwdTov1JZ-123" style="vsdxID=76;fillColor=none;gradientColor=none;strokeColor=none;spacingTop=-3;spacingBottom=-3;spacingLeft=-3;spacingRight=-3;points=[];labelBackgroundColor=none;rounded=0;html=1;whiteSpace=wrap;" vertex="1" parent="3">
          <mxGeometry x="70" y="235" width="60" height="55" as="geometry" />
        </mxCell>
        <mxCell id="ZA7k3HFakNiLwdTov1JZ-124" style="vsdxID=77;fillColor=none;gradientColor=none;strokeColor=none;spacingTop=-3;spacingBottom=-3;spacingLeft=-3;spacingRight=-3;points=[];labelBackgroundColor=none;rounded=0;html=1;whiteSpace=wrap;" vertex="1" parent="ZA7k3HFakNiLwdTov1JZ-123">
          <mxGeometry width="60" height="55" as="geometry" />
        </mxCell>
        <mxCell id="ZA7k3HFakNiLwdTov1JZ-125" style="vsdxID=78;fillColor=#FFFFFF;gradientColor=none;shape=stencil(ldPbEoIgEAbgp+GWQUgdrzu8R1OaTKYNacnbJy0Iix2mOxZ+9JsFiFjf6v21JJzdetWdy4c89jURG8K5bOtSyX4aEbElYl11qjypbmiPUF/3JmlGl+5uvjDCvpSKzGziTMNEwtir3kH6MCiIJ7DMaZrafII3sJHDhC21LYuc5jYgcMCWxYpmq/CfjWwDIUO82fvBxzDOc52OU4F9DOOChiDuW5unO9/X5vlWaMx1uLmXOtY6nk/E3rdAH//Q65joNyzM4+JAdcweF0c6O6N7hZm/buF/6Wngr3slmwZeS7geP49pCp6W2D4B);strokeColor=none;spacingTop=-3;spacingBottom=-3;spacingLeft=-3;spacingRight=-3;points=[];labelBackgroundColor=none;rounded=0;html=1;whiteSpace=wrap;" vertex="1" parent="ZA7k3HFakNiLwdTov1JZ-124">
          <mxGeometry x="0.7142857142857143" y="0.6547619047619048" width="58.57142857142857" height="53.69047619047619" as="geometry" />
        </mxCell>
        <mxCell id="ZA7k3HFakNiLwdTov1JZ-126" style="vsdxID=79;fillColor=#FFFFFF;gradientColor=none;shape=stencil(lZVBcoMwDEVP461H2BDKOk3vkWlIYUohQ0gLty/UxpYlGmDnKF/w9CVhoY/34nzLhYJ71zaf+U956QqhX4VSZV3kbdmNJ6FPQh+vTZt/tM2jvpjft/OknE5fzff0hN7kZVomespSMJiIknH2F3gz+vdHaxIim5HINLUZEUmBXllRKpPIimwolsq+qNdcZEMHGaf45VVZY1iUQPH/o0UpvACHi2riFThe5BUrYRHYleN4qZ7yepcGXsGM6/0eeAEzLRIx/kVYlLDcDMqKEhh9z7o+MPieNt2R0hkkY7A6s3v1azsBO1oMzy3LXkLLIPQLqFkZMQtCp54vDARkq8sCgk4eKDp5jt9GIgCx0s1ZsrE5RL6w0UA22jNQKLTNrhRNNdvWw+u3bYfXR6yXnkodQlBi5sInZ5eXgXg8+GvgWlaVuUXw//TaGEPmytGnXw==);strokeColor=none;spacingTop=-3;spacingBottom=-3;spacingLeft=-3;spacingRight=-3;points=[];labelBackgroundColor=none;rounded=0;html=1;whiteSpace=wrap;" vertex="1" parent="ZA7k3HFakNiLwdTov1JZ-124">
          <mxGeometry width="60" height="55" as="geometry" />
        </mxCell>
        <mxCell id="ZA7k3HFakNiLwdTov1JZ-127" style="vsdxID=80;fillColor=none;gradientColor=none;strokeColor=none;spacingTop=-3;spacingBottom=-3;spacingLeft=-3;spacingRight=-3;points=[];labelBackgroundColor=none;rounded=0;html=1;whiteSpace=wrap;" vertex="1" parent="ZA7k3HFakNiLwdTov1JZ-123">
          <mxGeometry x="1.4285714285714286" y="1.3095238095238095" width="57.142857142857146" height="52.38095238095238" as="geometry" />
        </mxCell>
        <mxCell id="ZA7k3HFakNiLwdTov1JZ-128" style="vsdxID=81;fillColor=#2d5967;gradientColor=none;shape=stencil(lZXRdoMgDEC/hldOIJ3V5679j57VTs9c7bF207+fjikh0R18g3ijlxBE4eFRnO+5svBom/oj/y4vbaHwVVlb3oq8KdthpPCo8HCtm/y9qZ+3i5vfzyM5jj7rr/ENncvLXnRqxiwLvYvA7+zk4Kq8EXinTbbOvj0b92bjHhqd4h9tKA6dDaa95XyHIYDs84tyEJj5da3YQaiWpdrsQz3iP0UAQkFSEAyRRUVZbIZzSWI1iXoHLjVZ0qUgZ3ClPKGo55crL7YaWDnJXkqrPtz/TjjNmptqGcCsyxONu239QVN8CFiPkFBvReI/K/NU3EkTPPdFnaHQnUXsBCWJsAXWLASK6xaSENcuJEHYe9WMnT6ftX78ZiayZzi/0AWw56qzhtzxXth3YsMj/2cRPbs5YRj4i+BaVpW7R+hzfnEMIXfp4PEH);strokeColor=none;spacingTop=-3;spacingBottom=-3;spacingLeft=-3;spacingRight=-3;points=[];labelBackgroundColor=none;rounded=0;html=1;whiteSpace=wrap;" vertex="1" parent="ZA7k3HFakNiLwdTov1JZ-127">
          <mxGeometry width="57.142857142857146" height="52.38095238095238" as="geometry" />
        </mxCell>
        <mxCell id="ZA7k3HFakNiLwdTov1JZ-129" style="vsdxID=82;fillColor=#2d5967;gradientColor=none;shape=stencil(pZLZDsIgEEW/hleCjLg81/ofTUqFiNBQ6vL3QibGVlMa69u9zJkl5BIoOlW1knDWBe/O8qbroAgcCOfaKul1iIpASaBonJcn73pbo2+rRCZ1cdc04Y59LHVw9kC3YuiPiBptB+iruAjOoAvB7PosOv4BQRmM6Q1db6dH7wX9j98BFTDNf93zKz9zzzwfxTsujTYG0zasf8YrPmE0oXwC);strokeColor=none;spacingTop=-3;spacingBottom=-3;spacingLeft=-3;spacingRight=-3;points=[];labelBackgroundColor=none;rounded=0;html=1;whiteSpace=wrap;" vertex="1" parent="ZA7k3HFakNiLwdTov1JZ-127">
          <mxGeometry x="5.714285714285714" y="34.702380952380956" width="44.285714285714285" height="11.130952380952381" as="geometry" />
        </mxCell>
        <mxCell id="ZA7k3HFakNiLwdTov1JZ-130" style="vsdxID=83;fillColor=#2d5967;gradientColor=none;shape=stencil(lVJBDoIwEHxNr2S7q/IAxH8YKdKIQAoo/F5qMbRLMHrbTmeYnTKCkrY4N0ogtJ2pb+qps64QdBSIuiqU0d00CUoFJXlt1NXUfZW5c3O2TDvd64f9wuB0e4hAWhXC6BAJ8D6fHP3SG8eX7jqOowPOAhkqYEAGjLgSDcQ5xDfZcF4UM4AY7UJjf7kZgtDWz0s+Y8N08fi4sqwsqbcThYRfY7KQ/tOtPEb+4F9isv9a6uqfGkzDUqFcl6VroH/PKzdBrq6UvgA=);strokeColor=none;spacingTop=-3;spacingBottom=-3;spacingLeft=-3;spacingRight=-3;points=[];labelBackgroundColor=none;rounded=0;html=1;whiteSpace=wrap;" vertex="1" parent="ZA7k3HFakNiLwdTov1JZ-127">
          <mxGeometry x="42.142857142857146" y="39.285714285714285" width="2.857142857142857" height="2.619047619047619" as="geometry" />
        </mxCell>
        <mxCell id="ZA7k3HFakNiLwdTov1JZ-131" style="vsdxID=84;fillColor=#2d5967;gradientColor=none;shape=stencil(pZXdcoMgEIWfhtsdYBE312n6HpnGVKZWM8S09u2rQ3+CmwwS7wDPx56zo67A7bnenyqh5bn33Vv16Q59LfBJaO3auvKuH1cCdwK3x85Xr767tIewP+0n5bR67z6mG4bAKSknRsuvsA+75yBtXHslfVD4W+GmdF4+S/yoNO6AsYAUmyjBFvfvLgxgsQ4gA6W6D3BLDHi5+BBCceTniBAKDEeD5io99y4H5CpclHBBD+OmowWNccI/tzcraAJt1wGJDNxSNpCwtACIu2QNmE2OpVKDyQrNgcSryS1lAwlLC4D5LwyozKmgCMisAxKhuaVsIGUpDcRdog1Q1gdECojWAYkM3FI2kLKUBsbF/2w8uqYJo/X6+XyWjkdhDuPuGw==);strokeColor=none;spacingTop=-3;spacingBottom=-3;spacingLeft=-3;spacingRight=-3;points=[];labelBackgroundColor=none;rounded=0;html=1;whiteSpace=wrap;" vertex="1" parent="ZA7k3HFakNiLwdTov1JZ-127">
          <mxGeometry x="5.714285714285714" y="5.238095238095238" width="20.714285714285715" height="11.130952380952381" as="geometry" />
        </mxCell>
        <mxCell id="ZA7k3HFakNiLwdTov1JZ-132" style="vsdxID=85;fillColor=#2d5967;gradientColor=none;shape=stencil(pZXRbsMgDEW/hlcL4xDYc9f9R6WmC1qWVGm6rX/fRKhaGWscN2823AMXI7CizaneHStl9Gnou4/qO+yHWtGrMia0ddWHYYwUbRVtDl1fvffdud3H/LiblFP02X1NK/xETk+E0ZeYoY75W5Q2ob2T3iafEs9InxTObj8rTStgCUqTyD2BpcdrFxZKuw5Adxv5F8gtiQHG0gIgrVJJ4JzEkkNwxTrAF+DwMZBbEgOMpQVAWiWyYFFyD8aBLdYBzBlyS2KAsbQASKvkX8CXkh08gvfrAObQuSUxwFnigbRKqAFFN40eUPRr5ADzgHJLYoCzxANj8NvMDqFpYi+8n//b/Mah2DhpewU=);strokeColor=none;spacingTop=-3;spacingBottom=-3;spacingLeft=-3;spacingRight=-3;points=[];labelBackgroundColor=none;rounded=0;html=1;whiteSpace=wrap;" vertex="1" parent="ZA7k3HFakNiLwdTov1JZ-127">
          <mxGeometry x="30" y="5.238095238095238" width="20.714285714285715" height="11.130952380952381" as="geometry" />
        </mxCell>
        <mxCell id="ZA7k3HFakNiLwdTov1JZ-133" style="vsdxID=86;fillColor=#2d5967;gradientColor=none;shape=stencil(pZXdboMwDIWfJrdWsENwr7v2PaqVjmgMKko39vYDZT8NWWVS7pJwvvgcI8WKtpfqcC4V6kvfta/lhzv2laInheiaquxcP64U7RRtT21XvnTttTn6/fkwKafVW/s+3TB4LtN6YlB/+r3f7b20ds2N9EHhT4V/pfPySeJHpWEHjAXi0IQFU9y/OzdA+TqACXK6D8SWIuD52vkQWYx8HzH+lh0wVuHcux4oVtGihAt6GDadLCCltAQZ0K4DhAyxpWRAsLQACLtkDZhNiqUCwSSFjgEhQ2wpGRAsLQDmTxhwkVIhY2CzDhBCx5aSAcmSDIRd4g1w0p/mDFh4hCRAyBBbSgYkSzIwLv5m48nVtR+tt9/ns3Q88nOYdl8=);strokeColor=none;spacingTop=-3;spacingBottom=-3;spacingLeft=-3;spacingRight=-3;points=[];labelBackgroundColor=none;rounded=0;html=1;whiteSpace=wrap;" vertex="1" parent="ZA7k3HFakNiLwdTov1JZ-127">
          <mxGeometry x="5.714285714285714" y="20.297619047619047" width="20.714285714285715" height="11.130952380952381" as="geometry" />
        </mxCell>
        <mxCell id="ZA7k3HFakNiLwdTov1JZ-134" style="vsdxID=87;fillColor=#2d5967;gradientColor=none;shape=stencil(pZXbboMwDIafJrdWHJPDrrvuPSqVjmgMKkp3ePuBomnNomJc7hLyf+SzkbCi3aU5nGtl9GUc+rf6Mx7HRtGzMiZ2TT3EcVop2ivanfqhfh36a3dM+/NhTs6r9/5jfsNX4vRMGP2ddqjT/iVF29jdRH8PHwovRB8MLl6/GM07YAmcyeKBwNL9d1cWnN0GoIPK3wdKJTHAKK0A8i45Au8lSh7BV9sApoZSSQwwSiuAvEtkwaJEyXiwoqJLgKmhVBIDjNIKIO9SeILgJDcEhBC2AUzRpZIY4JR4IO8SakDRl8YAKPprlABTQ6kkBjglHpgWf8PsFNs2zcLb8//Db3qUBiftfwA=);strokeColor=none;spacingTop=-3;spacingBottom=-3;spacingLeft=-3;spacingRight=-3;points=[];labelBackgroundColor=none;rounded=0;html=1;whiteSpace=wrap;" vertex="1" parent="ZA7k3HFakNiLwdTov1JZ-127">
          <mxGeometry x="30" y="20.297619047619047" width="20.714285714285715" height="11.130952380952381" as="geometry" />
        </mxCell>
        <mxCell id="ZA7k3HFakNiLwdTov1JZ-136" value="" style="endArrow=none;html=1;rounded=0;exitX=0.314;exitY=1.2;exitDx=0;exitDy=0;exitPerimeter=0;" edge="1" parent="3">
          <mxGeometry width="50" height="50" relative="1" as="geometry">
            <mxPoint x="71.98000000000002" y="231" as="sourcePoint" />
            <mxPoint x="270" y="231" as="targetPoint" />
          </mxGeometry>
        </mxCell>
        <mxCell id="ZA7k3HFakNiLwdTov1JZ-138" value="Container&lt;br&gt;Instances" style="text;html=1;align=center;verticalAlign=middle;resizable=0;points=[];autosize=1;strokeColor=none;fillColor=none;" vertex="1" parent="3">
          <mxGeometry x="-15" y="242.5" width="80" height="40" as="geometry" />
        </mxCell>
        <mxCell id="w_5pN70K2NjQlTbYiHXN-300" value="" style="shape=image;verticalLabelPosition=bottom;labelBackgroundColor=default;verticalAlign=top;aspect=fixed;imageAspect=0;image=https://static-00.iconduck.com/assets.00/web-developer-illustration-1004x1024-wcqgbag3.png;" parent="1" vertex="1">
          <mxGeometry x="20" y="494.18" width="64" height="65.28" as="geometry" />
        </mxCell>
        <mxCell id="w_5pN70K2NjQlTbYiHXN-301" value="" style="shape=image;verticalLabelPosition=bottom;labelBackgroundColor=default;verticalAlign=top;aspect=fixed;imageAspect=0;image=https://static-00.iconduck.com/assets.00/gitlab-icon-256x236-9n5ue93d.png;" parent="1" vertex="1">
          <mxGeometry x="250" y="502.64" width="56" height="51.63" as="geometry" />
        </mxCell>
        <mxCell id="w_5pN70K2NjQlTbYiHXN-304" value="" style="shape=image;verticalLabelPosition=bottom;labelBackgroundColor=default;verticalAlign=top;aspect=fixed;imageAspect=0;image=data:image/png,iVBORw0KGgoAAAANSUhEUgAAAWgAAAFoCAYAAAB65WHVAAAAAXNSR0IArs4c6QAAIABJREFUeF7sXQm8TVX7fvZ4zrmTWZKKzPM8VSplSmQoicxJIkNmPlIiYySKqIhCMlfmBlPJmCEiNElF5I7nnD2t//9d++5SX1/c0bla+/fTud2791prP2udZ7/7Xe/7vBLEIRAQCAgEBAIRiYAUkaMSgxIICAQEAgIBCIIWi0AgIBAQCEQoAoKgI3RixLAEAgIBgYAgaLEGBAICAYFAhCIgCDpCJ0YMSyAgEBAICIIWa0AgIBAQCEQoAoKgI3RixLAEAgIBgYAgaLEGBAICAYFAhCIgCDpCJ0YMSyAgEBAICIIWa0AgIBAQCEQoAoKgI3RixLAEAgIBgYAgaLEGBAICAYFAhCIgCDpCJ0YMSyAgEBAICIIWa0AgIBAQCEQoAoKgI3RixLAEAgIBgYAgaLEGBAICAYFAhCIgCDpCJ0YMSyAgEBAICIIWa0AgIBAQCEQoAoKgI3RixLAEAgIBgYAgaLEGBAICAYFAhCIgCDpCJ0YMSyAgEBAICIIWa0AgIBAQCEQoAoKgI3RixLAEAgIBgYAgaLEGBAICAYFAhCIgCDpCJ0YMSyAgEBAICIIWa0AgIBAQCEQoAoKgI3RixLAEAgIBgYAgaLEGBAICAYFAhCIgCDpCJ0YMSyAgEBAICIIWa0AgIBAQCEQoAoKgI3RixLAEAgIBgYAgaLEGBAICAYFAhCIgCDpCJ0YMSyAgEBAICIIWa0AgIBAQCEQoAoKgI3RixLAEAgIBgYAgaLEGBAICAYFAhCIgCDpCJ0YMSyAgEBAICIIWa0AgIBAQCEQoAoKgI3RixLAEAgIBgYAgaLEGBAICAYFAhCIgCDpCJ0YMSyAgEBAICIIWa0AgIBAQCEQoAoKgI3RixLAEAgIBgYAgaLEGBAICAYFAhCIgCDpCJ0YMSyAgEBAICIIWa0AgIBAQCEQoAoKgI3RixLAEAgIBgYAgaLEGBAICAYFAhCIgCDpCJ0YMSyAgEBAICIIWa0AgIBAQCEQoAoKgI3RixLAEAgIBgYAgaLEGBAICAYFAhCIgCDpCJ0YMSyAgEBAICIIWa0AgIBAQCEQoAoKgI3RixLAEAgIBgYAgaLEGBAICAYFAhCIgCDpCJ0YMSyAgEBAICIIWa0AgIBAQCEQoAoKgI3RixLAEAgIBgYAgaLEGBAICAYFAhCIgCDpCJ0YMSyAgEBAICIIWa0AgIBAQCEQoAoKgI3RixLAEAgIBgYAgaLEGBAICAYFAhCIgCDpCJ0YMSyAgEBAICIIWa0AgIBAQCEQoAoKgI3RixLAEAgIBgYAgaLEGBAICAYFAhCIgCDpCJ0YMSyAgEBAICIIWayDiETjx84mClmGpMXJM2NA0NYox5vMFjWDQUCUpLkNrOMqKslksY/8EAmN//vul/28YhnXdddfZkiSFIh5IMcAch0CGFneOu1sx4ByFAGNM6fr4o9O3bP/43u+/++Ymnx6VLLOADDhMV41QKByM1tQoC5CZxGQwyUFaPgkMDZpNn45sSsTSTJJ/x0hiDiSAgcmSzFQmMUiQHDDQqRIcCQiHg756d96+o2fPni+2aNFifY4CWAw24hEQBB3xU/TvHeCg/sMnT39lwiDTZlB8MmzDAWQ/QCRqhogjITmu8ZsWYvaI3EVWIQYGky1q5M9gMwnEwn49AMe0IUkSbMeArMqQFMA0TQAyHMdBvnz5Lmzfvr1u2bJlj/97Z0zceWYjIAg6sxEV7WUKAr+c+uW6e+5tuOWrEwdLMwWwHWqWrFtiZQ2apnM+tUIhsmXT3SdjErjlLDvE9n+QNP3SUaAwFaosw3bI0GYgM9pmZLS7Q+FdM0BVVUyePHnwU089NSXdgxEXCgT+goAgaLEkIhKBj9ZtvafRvXdtVlUGR5FghGVoAT/McJJLiHI0HJtBlok4M0LQ3MMBR1K5iwSSxf9fdmRIjsY5WJVkSLIDy7ah+PwIGSmQovhVkMISFEnl1vRTTz01fdq0af0jElAxqByJgCDoHDlt1/6gRw0eNXHSlOeHmLChqApsS0euuACM8AVYBqA4gEqWNfcbu4ZvWj+5MU5Q0rX0j7zbqS5oxXYNavpfRSGvNxCkzlQNBhnPfgksRD8BUXoUUlJSsHjx4jbt2rVbdu3PjrjD7EJAEHR2IS36uWIEGGN6pbLl9h07+VV5y2FQFR0wVAApiPIDUQpgJQO6AgQdwJZcIiU7Oi2fROqqR+5E0K5XI9WCdkmf2iObmshbjwJ+SwKCkKEEfLCNMOA48Pv85J9OOnr0aKmiRYv+dMU3Kk4UCFwGAUHQYolEHALHDx0vW6pSqcOyCtmxAEXW4IOOGD0ZT/QshbpVr0fA9vGNQcOxYcsOZMb389L0KcGGzAzuymBObm6BO8pFbjrLdoBvINLGYNgyIPkUhOw8mDPvc+w6+At+Czm8P2Ya8Pk0lCxZ8otDhw7VFeF2EbeccvSABEHn6Om79gbPGJOmTJsyaPCgwZMkHWA2hUtI8MFB4TwOFr7ZCOWLO/CHGJxwmAPgRmWkx8VhQbLDkBwfbCe/u1mo/er6oZ0AwFQw2HBkCUp0LJKNQujy2Jv4/ICNFG5VB8Bkiu5gePzxx2fMnDmz77U3I+KOriYCgqCvJvqi779FoH7DBus//nBzY+5fYDp02UasbKNCcWDZW83gpByEErIQ0DTIjBwbaXVuuOfLsMDIgcE0wM4NR3LgqGRBm64FzRSouoagzZBgKDiffD0e7LgFZxNdX3TYUeFINkzbwMKFCzt37NhxgZhSgUBmIiAIOjPRFG1lCAFKTPnuu+8Klilb/hS5do2wAUmW4dfC0Azg2UFF0bd9KST9ehiSrEGWZagySyXptHifXYImQmaSxV0liuPjlrilkm3swGf6uOuDIkguJFnIW6QyFr1/FH1Hn4BBm5M2RX1oMKwwcuWKjd+/f3/lW2655bsMASAuFgj8BQFB0GJJRAwC5N5YunRxm/aPdHmH2RIcbh0DsT4TsRrw+pRKaFI1GnbyaVgquSXIS2xD5s6JtB/kQyaS5qF0tsxdG6ZKySeA39QgOSqgKTifKCG6QFWMe2U9pi1MRIhHf6hgdI3MUKZMqUOHDx+uKUmS63MRh0AgkxAQBJ1JQIpmMo4AY0zu+Ej7eW8vXtKJ5C9UVYdlMcRoJqqVBhbMuA/XyaegS4lgagwMkzb5rAwRNFE7fQkobI82By3FDZ3TLUqEoYxBGQlhP8J6GXTtuwIfHgZCFP2h6KDcFUlm6NCh/fw333yza8YREC0IBP6MgCBosSIiBoHEn34qUKFGzd3f/3j6ZgprU1UFqhQAwkno3zkao/rdDfvCfvhVA0yJhcMUSI6ZboKmG+f2s8R+J2ibgp85Yauk8AGL2XC0Qjh5Nj9ad1uL7xOAMEWLSD5+nu2YWLBgfqdOnTotjBggxUCuGQQEQV8zU5nzb2TrRxvvaXB3k80OHDgaDzFGlBaAFApi6ayauKOaCin5JFTJgI1cUFQ/YBsZIGiKkyPXRmq+9u+bjYSl+9UwTQN6rlL4YGsyHh+yC/EMMGUFti1DUVXYVtg8ffr7W4oUKXI658+AuINIQ0AQdKTNyL94PKOHjxo3Yfy4EaStYeq0EQdoDCh5PfDB/ObIqx1DtJoIywzCRhwUNZA5BM352PU9SyT8AZknv9CmoW3bUKNLY9wrB/DKW2eRwgBD0vjYaAPzphsLn/ruu2+K/4unTdx6FiIgCDoLwRVNXzkCFy5cyNWoQePNX+07UMOBjbBGGnMOVAvo0uo6TBhQA77wIQR8Bte9cOQ4SNAoUyRDFjT5mcnRYcvUDqBaFM0hw5TdRBQoMpLsm9Cx74fYeZjIGQjbOiC7KnbdH+38+muvze1+5XcqzhQIXDkCgqCvHCtxZhYiQGnS5cqWPxojq7LpmAhJMlTNhm4B056pgXZ3RiEK38BhQfD0bz0PbEuChPRvEpIbQ3HccDtbCUNmMidosqDDqgVLliEr0fgpPj8aPvQRfk4iBpcRsiToviiEw2EseHNep06dHhH+5yxcG//mpgVB/5tnP4Lu/blxE0c9N/rp0ZIVViiywoQOXTOQzw9sWvYQbtZPwu/8BKaS4pyCkClDllUoXIcjfWF2dPuKQ8L7DJYa4lEbPiPALeiwasKkSA05N7bvTUKHvkdg+2QEKcVbph5VaH5f6OC+Q+VKl775W4nSCcUhEMhkBARBZzKg/6bmKG45M4iJ2mncpNnaTRvWNQmoMkzLhiz7ISOIO2sAcyc1Q372PXzOeVjkh5BJOF/lOhkZIWdO0FzDww2v4wRt+UEa0WHFQEjyg/luwtxFX+C5GedhqBIP++Pqeo6M4sWLf/Xpjm21ChQoQLmF4hAIZDoCgqAzHVLRYFoROHHixxurVqlwIDHptzwBvw4jZECTVWiOhacHFECPtlXgT/oeumTAYDYnaFnVuA+YylJl5HAJ2oKlkKtEgW66Lo6glIIUxMDSy6PX0JVY/ykQZBKPe1bpIWIwPPJIh7ffemthh4z0L64VCPwTAoKgxfq4IgQoiUSS3CDhI0eO3LxmzZp2u3btqn3zzTefa968+av169ffl15resnb7z7c7pF2b6uaJFO1EhLiD0hAbhVY9kZdVC8FsIs/w68BhkPp2YDm88G0DK5el5HDrcbiwJLdeoaarfHmTMVEWM6P0wlF0brzKnx3AQhD5dmGigxYJpzZs+f07tmzx+yM9C+uFQgIghZrIEMIEDlTBNqBAweKz549u9+KFSvanjt3Lq/f73eCwaBy/fXXJ2zZsqVqqVKlTqWnow4Pd1q0ZMnb7SRNhknlpCSGGAZUKwEsnd0YeZTTsFISENA1WLzkFIOmu1VMlNR45fT0S9dwgqZagxS1QanjFrlOGBSdIawUwYY9Grr1/4Sr19lygG9S0nk+Rbd27vi8ZtVaVb9Ib9/iOoHA5RAQFvTlEPqX/50x5t+xY0eF1157reeqVavaX7x4MeDz+bh7wS2a6tbja9as2YqVK1c+mFYrmp1hUSVqlfj6xzPfFQ4zG8ynAMxCLgDdW8dhbN+6YMHjkB0bCpU2kd3sPpmqnzgOFKQq7Kdznv4gaPDUbdmWIUsMqsYQUoph0rzvMWXuKZhUVUWJgoUUGh7KlSr79Sdbt1QrWLAgxXak+cgs/32aOxYX5CgEBEHnqOnKvsGePXs25qeffrph1KhRY/ft23fn6dOnC1DvpCBHOhnez36/H6FQCJUqVdq9f//+WmkZIZHUh2s3NmjRsuU62zaVEKnzxwQAI4jrooCXn66B5rWjgORvoPg1WJYFWVPdT+bwsbg1TzJ+UGIK2dMSoxRvIn4TiSiKzkO3YtMucnnosMgHrRlgFnM6tu/y9oKF8zulpWdS66MBv/POOy03b97cLBAIXHj00Udn5cqV6/tixYqF0tKWOPffgYAg6H/HPKfpLg8ePFhmxowZ/V577bUe5N4gC5kOsli9g0iaoijoH2XbPfXUUzOnTp36lCSlVl29gh6JoAf27z91xvTp/TVJRZA2/KKjwMJJKH09sHrufbgl+mcg+Au02BgkB1OgpxI0Sdn5NB12BjcJaZh0L5SUIskKNOj8Pi3LwHnrZjTptgXHeRErDQZjkH0k0C9ZY0eNGzn8P8MnXsFtXoqZ1qdPn5dmzpz5OD0N6E3Esiy7e/fus5944omXqlSpcjwt7Ylzr30EBEFf+3N8RXdIRPzTTz/5Z8+ePfKFF17oa5qm37Is5VIi9sjMs6KJmMk1e8stt5zdsGFDrZIlS6ZJj4L6LFex1P5vT5yqxEIMiuRHiPzLchBtmwLTn2kAf+IP0FkYhuTjBV0lGJDgiht5CtC0aZjeg9wZlLJt2BYPr1OpigrTIEXHYeOei+gw6GtcDAMqKdipGkK2SYNguz/fXb1mzZr709Lvtm3bajds2HBbKBTSyF3DHwyO+ybg9/uThgwZ8kKvXr2mpNdtkpaxiHNzBgIZWNo54wbFKP8ZASrQKkmS8dprr3V+4YUX/nP06NESZN3pOkl9Wr8TCPf3KgoRCZKTk+lnVrx48WOdO3de1L59+8n0iv7NN9/40/Kqvnfv3kp176y51wo7asCmsDmJ1x9UkIzn/5MLnVuWhJ54HgpjMOF3rVwpDKolSBmAmUHQzLE4Qds82UWGYkowJR+kmEJ4eel+jJqRgBAU+G2Kvbao+haKlih2av+uj6rnyVPs4pWuL8aYumjRonaPPPLIAsKQyJkyEXnRAVWFYXCZU7t8+fLfDhw48Jlu3bq9daVti/OuXQQEQV+7c3tFd7Zr167ykydPfn7FihX32bateG4Lz8KjRoioo6Ki+KdhGKxmzZq7n3zyyVeaNWu2Mm/evCn0yp+eTa/xE8cPHT58+ARyJevQwCwTuqQgb4yNFYtuR8nrLkAPpkBzKLOQNDLo0UEEbUGhwBImu7/LwMFsh2s+U91BuncYDLYUAyeqKHqMeA/LttCvJAQUDYZJKnpA24fbvvPOknceTmu3n3zySd3WrVtvunDhQjRd6z0EPTfRJe3ZDzzwwOoRI0aMrF69+tG09iPOv3YQyODyvnaA+LfdCVl0I0aMGDV58uShlsUFKLg1FwgEeHRGqkXHSYvImnyl1apV2zds2LAX2rRpszozqlc3aNRo3UdbPmzC3SgGQ5QKKDbDbdWAebPvhWYcRpTl6mUwaG6JKtl09TdITJ8IOqObhA7jkSFMkfm9MpNCOQrivHUjmnZYjmNngSCv3KJCk6myt4mpU6cOGDCg/7S0rBkvjrx3797TXn755X5+v19yfd3uWwrhTpZ0MBjkPn3CXFXV4PDhw599+umnX0iLbz8t4xLnRjYCgqAje34ydXSp8cwKJZr06dPn1e3bt9cnokhISOCEQFYyuS+IMKKjo/lreDAYZJUrVz7Qp0+fmd26dVsgSam6nBkc2alTp26uXbfO579euHgdsyyeLJIrCpCTgRF9y6B7p4JwUo4gmvm5eD53/PISVeQDdjhBcy3nDBO0Ww3cUSU3OsVikPWbsPt4AG26b0SyBiT+fz1EngauBxA2wuzTbdvq1q1X9/P0QrBs2bLmo0ePfonmgfCndoiY6aA5oJ9pLDExMUTWrHbt2ptff/317sWLF/8+vX2K63ImAoKgc+a8pXnUjDEf1cx76aWXHh81atS0+Pj4ALcYU0PmPAta07TffaP58+f/ccyYMWNatGix8vrrrz+X5k7/4YL58+d3evTRx+Y7jNJCGCRFguYYKKgAb7/aEBVL/wodP/HEESJorqDEk0UsnvvHx0v/YW6ESXoPiVEktAOmKTAp1tpRAL0EXl3yHca8dAxhBSDvsMXjozUUKlDg50NHD5TOly9fQnr79K6bMmVKr2nTpg0/d+5cEXprSY3q4Fa1Nzf04CSLOioqio0dO/bJAQMGvJLRfsX1OQcBQdA5Z64yNNKff/65YPfu3eeuX7++meM4MlnJRAhu7T+V/0tJSeFkkCdPnosPPvjg0okTJw6lnzPU8d9cTP7qNm3avL1s2Yp2ui8A03Z4ZiCCiahXFpj34r2IC3yDgJIIhyRFmQydB4wQQYOL6ZPFzUk6wwTtii8RQQcpM1HSYSpl0GPwemz+zOQC/RS9bFDUiOzDfY0av//eujXNMwuTixcv5hk0aNC45cuXt/vtt99yk5uJ3l6IpL1NRC9qxjRN8/77799AYXo33XTTmcwag2gnchEQBB25c5NpI9uwYcMdffv2fePYsWPFaWOKSJgsNJ7wkSo8T2QdDodZw4YNP3r++ecHpzWELC2DPX/+fFyNGjW++Oab74r5/FEIh0LwR8dACV9En4eAUf0bw0n5BjKS+Aae7LgETYKeFpWb4gIcriYH+aczctAmoaNIkDUZKQZFdMQgiLJo8OAKnD7vEjNFbpATJioqlzGgT7/xYyeMeSYjff7dtbt37646bNiwqR9++OGdUVFRErk5+KZlavw5/UxzRElB5cqVOz5jxoyu99xzz6eZPQ7RXmQhIAg6suYjU0dDG4EzZszoNXTo0InBYNBPVjKRsvdJX3j64tOXvlChQr+OGDHi6b59+87K1EH8TWPvvfdeozZt2rxP8cCa7neTXUwHefUw5oy/BU3r5QNLTgRzQmAKlXV14LPcTUFO0Dyaw+YlqTJK0NyVIDMYjgGL6VAC12PnQRvteu5Csu3a6bIGBEnzw5LY9o+23nF7/du3ZxVGL7300hPPP//8mJ9//jk/hePRQfPjzZnn8ggEAqHJkycP6t2796tiAzGrZuPqtysI+urPQZaMgKzUIUOGTKHNpbi4OIncF0TO9KWnT++LblkWa9OmzXvjx49/skSJEj94vuosGVRqo4MHD544bdq0ITzRRZagyhIU00bpIsCb0yujRIEE6MwPZptwFBJPsqDbLkHbFI7HNwtdUaWMqtnxIZELwwojxHxQoktg0eqTGP78NwhB5REjFvUnAwUK3vDTF3t3VypcuPCvWYHPmTNnogoXLpxCG6hDhw596d13322uqqqUGkUD2h/wyJo2ExMSElj37t1fHz9+/AChSZ0VM3L12xQEffXnIFNHQFZzYmJirrvvvnvFwYMH61mWxcO5KIyLiNkTOKIvuCzL8WPGjHnuqaeemppWkaP0DpoxppUvX37fsWPHKlAbtmOD9JE0C2jTOAYvjasN6+JBxKj5uOyoo4Y5QauUmOIoVKUwUwma7HOFFwlIRhi54USVw+AxK7HkfQZb1sGYAZs0oxWgQcNGGzet39g4vfeeluvIT0+p86NHj37acZxc9IClgyxpImpygZB7iuatdu3aW9etW9c6V65cF9LShzg38hEQBB35c3TFIyRy/vbbb4vceeedW8+cOXMjEXJsbCzfbKK4ZvI/02d0dHSwePHi377xxhtta9SocehSrecr7iydJ+7fv79K1apV9+i6rpDeBVnDPhkImMCUUdXQrW0+xP+0D1Fqfh7/5iih310ZFHHBYzd4ggrJhJIDImOC0ES+qqbANoOw9Ovwq1kGDzy6GIdPEinrADNAH6Ew2H9G/mf8uOfG/Sedt56my37++efoQoUKJVO2ZdeuXZecPHmyeHJysu7NIX2SiyopyRXTK168+A/vvffeHWXLlv02TR2JkyMaAUHQET09aRvcp59+WqtRo0abw+FwLFnN9CX2LC2ytlItL9atW7dXX3/99QGSJLnBt9l4TJo0adiQIUPGp25Kcv8uZQreFACWz2uG4kXOQjZ/hmzp3DftyKZLxjwxhUpcuZuFvBJhhglagmkzKFTY0A6BBW7BzlO58VD3DxAfcjcHaZ/ODT002dq1a+9r2rTpumyEi3fFGAs8+uijU994443HaQORHrI0v96bEX3SQzguLi5p06ZN9WvXrr0nu8co+ssaBARBZw2u2d7q8uXLW3Xq1GlRSkqKn0LnyKXhkTN9gVNlQa2ZM2c+0bt37ze86ijZOVB6bW/SpMmGjRs3NuR+VdviBrGfAU2qAPNeegDhpC+RPw4IB0PQVZI2dbgGB/2jQ+VlrjhNZ5ikyb1BtQWpQopih4FAKcxa8yuGTz5IGd88coMU7hyLIV++fBcPHz5YKrPjwa8Uf3rLeeWVV7r27t17tt/vV8kX7YXf0acXmRMVFRV+++2327Rs2fK9K21bnBe5CAiCjty5ueKRLV68uCNZxcFgMEA+SrI8yddMfmayrIig8+bNe3bZsmUP1K9fP8siEC434CNHjpS84447dly8eLEAuV+8JMBoCRjbOw96tquFpPjvkTtGhmEkgEKjGa+6TdEb1LoDlVmuUJJDqd8Zs6KJoBl0yKAkmRBsfyk8+sxWLP8oxAmaHgo2xVnbEhrcfffHmz/acPfl7jGr/75169bbWrduvfL8+fMFvNA7LySP5p7mXdf1lAULFvR4+OGH387q8Yj2sxYBQdBZi2+WtU7WKBl4c+fO7dGvX7+pRM70Ku5lpBEpk1VFn1WqVDn4/vvv31ekSJE0yYFm5uBJrH7NmjUtWrRosdyLvSbLlXg3lwYsfbkqapfRIZlBKJLBN+18mlscwLWgXe06lZEF7WUQUvp3RnzQEmxGRbMUkF5eWCuNhl3W4dB3gElBIgptYlISjy/U64meL0+f/sKgzMQkvW398MMPNzRr1mzdgQMHKlIbNO+ejocXjhcIBFKmTZv2VM+ePeektx9x3dVHQBD01Z+DNI/AU46bN29etx49eswyTZNvHhEh0z9vI0lRFLtVq1bvT548uWexYsV+TnNHmXgBjfmR9h3nv//e6k6JSYm8MjYsB1ESULMCsHDW/dCto8ilynCMMBxbhaorvAYg3wzkGYOUVegSMtUQpINrcqTzIG5XHJIXlWBGR2PfKQ3NO+/j2YM0PCqBpWpRSA4a7P11q+5tdm+zDensKtMvO3HiRMHhw4fPevfdd1v5fL7fhZfogeY9qFVVNebOnft4165d52f6AESD2YKAIOhsgTnzO1mwYEH7zp07v0XER/5lcmXQl/MSfWHniSeemDdq1Ki+FFub+SNIW4vx8fF5b619+6dfffVladK+oI05Pxj8NtCpdQE8M6IOrOQDiGY2VEb+aV+qDCgRtAXF1iGnRnGQqp2lUO63649OL0kTQcsUeij7EIzLj6WbT6PfqB95SQANJKZPVWSA2Nx5L+w8+GnFMjeViaj0aor0GD169LQ5c+Y8Ru4OmnvuOkoNx0uNezdmzZolSDptyzVizhYEHTFTcWUDIUJeuXLlfW3btl1lmqbi1uVzj0s2i9jAgQNfmDRp0pDsim++3Og3b/6kXqOGjbYw5khUtsowQ4hSgDgHeHH8bbi/cRzCCYeh0e/1KJimxpNYHNm1oImgyYImMiaCtmXKJHRV5tKbrMIJ2mGwlCiEYm7CsEkb8Poyss51qBT/bLtBfNVr1fps165dt17uHq/W3wcPHjxlypQpFJXDk1roIFfXJZa0uWjRorYPPfTQyqs1RtFv+hAQBJ0+3K4b8BuXAAAgAElEQVTaVRRKV69evU8dx1FIVIfkQT1FOvI/yrLsDB48eOy4ceNGX7VB/k3HQ4aNmDBpwqShuuaDosgIhhIRJQMl8gGLX2uJG6/7GSz8HXTTht9HBA1IVH+QUS1VSunW3TC73wna1eNIr/VMQ+TuazKRfQXxq3M92jz+HnZ9BdiKn0eL2I5JTz2nd58nZ06fPr1fJOH517E888wzzzz33HOjyZKmdUBRHnTQRjElueTOnTtp5cqVzevXr/9JJN+HGNufERAEnUNWBJWmOnz4cHEi5+Tk5NzeBiD5m8lyJheHruvWU0899cKECROGRdJt0QZh1eo1dn+x/1BVimfWKTHECcHn2GhzDzB9bAsYyV8iRk2Gn4TzmYxQ2IYW8MO0eSkoKI7mxkKnqthlbHPwD3Qsy4YcfTO++MaPtj0246ckqt7ipyhr3hdFGy9fueyBVq1arYokTP9uLAMGDJg8c+bMp2RZVrxN4lSpUk7ShQsX/nHDhg0NK1asKKq0RPpkpo5PEHQOmagffvghb+3atb/89ddfC9Hrq7cZRH5G71V22LBhz48fP/4/Xp3BSLm1vYf2lq1T67Z9YJrfDBlQefWSIPc/v/R0ETzSsgziz36FuCgGXdVhh0IwLAeq35datVuG5CiutSyR35lluNQVYUPRIaZlQ48tizdX/4AR44+CRJ5Nxw+FQviYDc2vJB/9/tsSxQoWvKqbrJeby59++qkAxWiPGjXq2bFjxz5Nrg4iaa/eoVfCrGjRot9/9tlnta677rpfLtem+PvVR0AQ9NWfg8uOgDbY7rnnnhV79+4lKUru1qCDvnxeRtngwYPJ5zws0pTNSHtj7POjh4waOWas5o+BGbShqcSzQdyUF1g55zaUKZKMUOJ5+DVAlRSYtOGZWoaK/MxU1kqicDjyGaemdnvRdRmpSUhx0GHGoMSUx8BnP8KydUEQsobjg6ZQVIyJqjUq7dy16/NbI8WXf7nFQnsUAwcOnDp16tT+tD5SK6/zB7oX3dOgQYP1ixcvfkgILF0Ozav/d0HQV38O/nEEpK/x+OOPv7hw4cJepmlKnr/5ks1Bq0OHDgvfeOON7lcjO/By8BFhNGp014ZNm7c0hOLj6Xk+jUG2DdSrAiyZ0RAB62uuG+eQu4EiEWwDus8Hg2caEkN7mYO88BVkioWmjjNYNNaWJASZAhYojwe7rsaBr4Ek0n+2NeiqH6YVRvceXWbNmTOn1+XuM5L+Tpg/8cQTc+bMmdON9o4prd5LZvGqtnTp0mXW3Llz+0baAz2ScIyEsQiCjoRZ+Icx0OZUv379pkVHR3MRd7KCaAPI07Jo2bLlqpUrV7a/GroaVwIdJVXcUvymr01IAVnWIVNJFDMFcT5gyOPF0a9dEejmN7BMKr/lFqilBBFK8XblSJVL3BmuX5iiNryFe7misfRA8yIbyB106f+HKYwuKjeOfR9Aq86f4XzQVa2TNT+MkA0GxlasfLdNq1atll/JvUbSOaTf0apVq8WrVq1q4a0VCsckHQ+SAUhOTmapa2tGJI1bjOXPCAiCjuAVsX79+gakqaAoip/Ihb5cvAJ2ai3BOnXqfL5ixYpmWaVPnFFoyJJ7d8mShx7p3H6Bo6i6TdJxhgM/HOSPAeZOqYe7KoTgs36GaatgoCgUB5JM1EhxyA5kSeW+YiZRSRU3OUUhIbtLKhP+E0n/laDpeu/tI+iokGJvwPuf/IgnhpyAoQJh6oYHd8iIiYpJ2rn7k9rly1c7klEsrsb1tG/Rpk2bdTt37qzlrRn6pId8qvsjtGrVqqZNmjT5+GqMT/R5eQQEQV8eo2w/g6Iezp07V+D222/fdvz48RKeBUQD8ULrKlSocHThwoUtqlat+nW2D/AKOySC7tTukbcWvbu4PSjT0TCg2AwxClC2KLBy3sPIbR+Bj13k1UzIWuZC/GQlUx+O5D6MeObgHwTNMwCZm5AB0of+h8reXvIOb85xfk/mof8Ps2jY0UUx/uWNmLHQBPwygkGH+8gp36NCxUpfHDhwoLYkSW4oSQ489u/fX7Jjx45rDh8+XMZbO3Qb3poqXbr011u3bq0nNg0jc3IFQUfmvKBx48ZrN2zY0IRcG96mIJEVvZ6S0P6yZcsebNKkyeYIHT4f1pkzCflvrVlxz3dnvr+ZkaQnFQ4A+L+OrYCJ/2kDdv4gfFKIJ4c4nKDDXOOZXCG0OBW4pO0mprgp3/z3zOPMtBG0hxdhaUi5cZEVRfdBq/DJfsDRZZghBwG/inDYYo927zF3zpw5j0cyxlcytrVr19790EMPrSDhf3KTefsYRNgUftewYcO1GzduvO9K2hLnZC8CgqCzF+/L9kZRDzNmzHi8b9++LwUCAe53pldy8qNSBEd8fDybMGHCICowetnGrvIJG9/7sFHzFveuM5jp5pMwhhiA/5s9pRwa1ckPKekMNMkE0zTYKoPDwoDDeNyzyjRIjIrDOjAV0oUm6qbfASozU++O4jquXI/DIydO0EohHPspPx7u+T6+TwTo0UASH/QsIXf1goULO3bs2PGaUISbNGnSU0OGDJmaK1eu36u3XyJDS/7oPv369Xv5Ki8Z0f1fEBAEHWFL4osvvihPySgpKSlxRCZeJWcuXu84rGvXrnPmzZvXM8KG/bfDGT38mefGjB87UlYk2ApZxRYCNlC6ELDyzcbIo/0Av2VAkR1YGri+BpNCVA8Wuh2ASgJJDgOTbViKAZvHJvt4IovK6ZSXdL0sQXt+e88PS8REDzxTuQnrdjh4bOg2JOqAyST4ZBVG2ERsbLTx+a49pa+FCiX00JckyezatevsefPmPe7pSKdqhHMDICoqKuGTTz6pU716dZHEEkFfLkHQETQZNJS6detu/+yzz27zvkRewgGRSs2aNfd/8MEHdxQsWNCtcxTBBxVAbdPy4Q937t5Zh6pmS7oMJxxGLAMebpIHk0fXhZJyBH5yWZCanGrBVgwwhHgiim7FQGU+0vtMJehQKkFHuwRNljb3V185QXsypx5BW0oJPP/yEby0+EeEAkDYkqErGsxQGDVqVt+3a9ce8j97zu4IRvvKhnb27NmY++67b9vu3burEBaedou31mjt7dixo96VtSbOyg4EBEFnB8pX2MeYMWNGPPfcc2NlWZYoxIwiN2jHnQgFgHXkyJHSpUqVOnWFzV3V06gydclbyn4DWZJsx4LiUwEjhOt0YFT/CujUMj8QPAk/dJ6UQj5mWwrDkcNckF9zoqA4Khjdu0QWtMW3DhkLcIJWyIKWnN+tZxJQokNmrlgQQGp3/Dep0SBuuB1JiFqODYm0s7Vy6PTk+9i8FzADCk8vB1PgUxU88OCDCxYtXtT5qoKYBZ1/9dVXxSpUqHCcdleJmCkyiDJRvYfXqFGjhj/99NMTsqBr0WQ6EBAEnQ7QMvsSegWl3fZbb711r9/v91+8ePH3UDD+Km6abOrUqQMHDBgwLbP7zqr2Jo6fPHjE8JGTJEXlpa00XYVsJOOW3MDy+Q1xY96LUKyzxBKpQyBhfiJZj2jV1NqD7p/d+oNcNinV45wq1M8UOLSBKLviQIoV7cZIS2F+TdiUEBMVDSuYBIWqYCsaKP7Z0n349kIBNH1kG87EA44M+AJRCCZzZVb2xhtvdO3WrdubWYXP1WiXooMkSbJnzpzZ98knn3yRDAHPJ0+f5J8Oh8OhnTt3Vq5SpQqRuDiuMgKCoK/yBHjdkxTk8uXLW3qhYBSnSl8asqQfeuihVUuXLm0VIUO97DCICO5r0vy99Rs23quoOkzLQlTABwTjcW8d4JWJdyCaXYSKZLJvM1CZm6etcAubyZSkLUOxYtyahXLQ3Vy0FV6PkQWTXX0NyAiR2nNcPmzYeRFdBhxHoulqKRPWhLumacEtW7bcWqtWrS8ue7M57ATGmF+SpNDDDz+8YsmSJa0IGzpIbMuLD2/VqtXqZcuWtcxht3ZNDlcQdARM6/z58zt16dKFql5Inl6Ct4Fz3XXXnd+0aVOtSpUq5QjXBsF56sypm6uWrf5FfHxSblmR4dg2ogN+KKEkjO4XhV6d6sC8cAZ+Et3nLt70lq1y08BdC/qvBO1a0FTSitdpDJm8SIBpOwjDBz1fSYx5aQOmzXcQlhXuByeXEkXKFCpU6NjJkycrSxKP+bsmjy+//LJE/fr1d549ezaft+Y80S3SHXnzzTfbd+rUack1efM56KYEQV/lybpw4UKuO++889NDhw6VIwuGiJliU1Nry7GZM2f2fvLJJ2dd5WFecfdkPS9ZseTBdg92WAQmyVRKkDkWAqpbe/Dd16qjVhkFVvxFaIxi2shXnF6C5r4MONyCJi6VXBcHV72jsDyqCC5DlhRIhgVV1RAyQ7DUPEB0WbTruRQfHaDwOtdv7YUzNmnSZOmqVavaXvFN59ATX3nllR69evWareu65KWAk4wAvbmVL1/+2Pr162+98cYbL+TQ27smhi0I+ipP44gRIyY8//zzVPlEosSBpCQ3QIPIolGjRhvXr1/f+CoPMc3dt+/a/s3Fby3rRPt0kmxDgQ3ZAqqWBFYtaAS/dQKxUhRYyADj8c0ZIWhKOKRID5egJTuay5JKsHh6OBE0WceKKUHRNIStEBzfDTj92/Vo3Xk5vksAkizSAflD7e3FF1/s3b9//1fSfOM56AKvruW99967dvPmzfeShC3hdEkRCDZ06NDJEydOHJqDbuuaG6og6Ks4pQcOHKhw1113bfvtt99y0zC8V036OW/evL+uWLHi/rvuuuuzqzjENHfN2A+BIsVqH/3x+59uhkwbfTZ0yYFmA13axGLCiNpIObsPBWIKwU4Og6mUiJIZBG24gv5O4BKCdjceeb0+W+VRHEE7DDmqONZtDaHPiE9xwQLCkhvpQUcgELB27txZtXLlyofTfPM58ILNmzfXe/DBB1dfvHgxz6VrkAyEvHnznlu/fv09NWrUOJQDb+2aGLIg6Ks0jbRZ06NHj2lUdZleMekLQa+XRNJkzXXv3n3WrFmzcpTMJUG5YcPauxvf13STK+JMlbuBgOIgTgdmTKiJJnVlWPFfI4+eF7bBMkzQxO3c10wmOnXp+P5E0BS6p8gaJIsqhFN6twUpqiwmzPwSsxeeRiLFLyrK7+JMlSpVOrx+/frakVBoN7uWZq9evWbMnTv3SZ5dmRp251Vkeeyxx2bPmTOnX07WI8kuHLOiH0HQWYHqFbR58ODBMtWqVfvScRzZS5zwoggKFiz4w1dffVU1Li7u/BU0FTGn0Gvz8OGDx02YOGW4Hu2HkRKC5GiIVkzckAd4/53mKOD7Fn7nPHTTRx5jWFxjI/0WtEvQJKbkWsDUnytHSpa5G1vN5UYtHYbFYMgSpOgK6DV4E9ZuDSOsUIkr5feK2A8++OA777777sMRA2o2DOT06dP5ataseeDcuXM30EZp6v4H/1QUxdqzZ08lUSYrGybib7oQBH0VcCcR/tatWy9ctWrVw2QxU4gTpXQTUVPM8yuvvNKzV69ec67C0DLcZZmSpb786sTxcpJPAjMYdDmAaCmIFvcAE59uADnlW8TKBnwUfhcMQ9Iv1XtOe/dUSJYTNCd56fcq35ygZROS6nCx+tiofEgKmkAgBmcSr0OLdh/h+wuu/gYUhSdr0BvMSy+99FTfvn1fTPtIcvYVL7/88mN9+vR5lWKjaU3SRjUJc9HabNmy5aIVK1Y8krPvMGeOXhB0Ns8bkfOuXbvKN27c+LPk5OQAkTKRA7k16MtQp06d3cuWLbu3SJEiOcp6JhgP7ztcud4dt2//LeliDFQ350R1gDgJeH5kfnRuVQ524q9QrSB8lJ9C1VMcsqDTPwl/EDS1QaWxeO6gW7eQ3B5SGKZjQ5OieCkrU4/DnqMMHft8gd9IoF+VYVquNoeqqqF169Y1uPvuu3ekf0Q580rSjm7duvWG3bt310jFgrs76Gefzxf++OOP61yLceGRPlsZ+GpE+q1F7vg6deq0YMGCBR3J70x+P3JtpO6es0WLFj3Svn37xZE7+v89sukvzBg0cGC/yYouI0yCyqQ77ACFYoA1b9+KkoWSoIYZYIYBFoSmKbBIQTQDq9D1jkiwUjMS/5ugKUpE4hVbJC0PTP16vLp4H56d/htMVeJ+actyNxJvvvnmb3fv3l3p31qrb+HChe1Ivc8Lu3NfLhS+Pjt16rRwwYIFnXLiuszJY87AVyMn3/bVGzslCNSpU+egZVkBevX2DvL33XrrrR9v2bKlIaXjXr0Rpr/nlk1br1m7dlVzXVeR4phwbIY4Dbi9EvDmi/WhhI4jWo2DLiswzASepCLJZGpfuVzopaNzydhNDreoNBbX4iC+tqGkypTyXUpFhm0psOW8YP6SeGzwMqzcBjiaCjPsVkUn32uzZs1WrVmzpnVOKRCb/pn67ysZ44Kwcr169TZ9/vnnd3lhd/RmFxMTQ294Kbt27apcvnz5E5nZr2jrnxEQBJ3NK6R79+5vkM4DL46aamV6sacrV658MCfWvyMIT399ukjt2+rs/fXs6YKcI7lPPQy/Awx/shh6t70BUvIp+JQY6JoOm6XAdsJ8ozBjBO3wdO//JmiKgyYJasatdFXzIcXMg2RWEk3bLcHR84BJUSYOg6ao5PvH5MmTBw4aNGh6Tn1AZsZSXrly5QOtW7deRglTngHB48gVBR07dnxj3rx5j2ZGP6KNK0NAEPSV4ZQpZ33//feFK1aseMQwjFxexpaXXlutWrU9e/fuvUuSJMpZznHHO+8se6hD24ffiVIYQrYNRyHL2EL0/5e3emfOPbi1RDKinJ9hhkknQ4Lqp7qDNpjF7d503a9bQNbNFqR0GJ41SNmJEuMlsThBOxJskifViaAL4uDXAbR9YhMuaFR/UIKq6LBCYbKibfKz3n777XvSNZhr5CIqNlu5cuWtBw8e5L5ocm8QQdMmtt/vjz948GC5m2666cw1crsRfxuCoLNxisaOHfv0qFGjnpYkSSGXBllttPBN03Tmzp3bvVu3bvOycTiZ1hVjTO/ateurb82f3yVWVxE2LAQhQ1UdVC4NvP1KG9yAk4iW4mGGTRiUvBJNMqoWrzvolltJ++FKJbkypDa0Swjac3EQQatQtAAfk+wrjlcXHse42aeQFA0ETRWqrMAOGyhWrNg3e/bsqZo3b974tI/k2rpi9uzZXXv16vWGt0ZJn4TKrpFVPXDgwNHjxo0bc23dceTejSDobJibVP+eXrFixV0nT56s6L06epmDZcqUOXb06NGqkiT94ZTOhnFlVhfnz5+Pq3NbnT0nvvq6pA+AJilIId9lwEH7ljImDm0J9cIxaFYimEqUyqAHqO5fGIqkun7jdByXErQlaTw3hixoomtvYZsWgz86F87HJyA2f030GbIOyz5KQYpfRtiWAduGT9Nxxx13bNi4ceO9/0b/81+hZ4xFlS5dev/x48dLeTHRdA6F3ZUoUeLQwYMHa17LQlLpWIpZdokg6CyD9s8Nr1mzpsX999+/ktyzXuklTyR96tSpQwYMGDA5m4aS6d2s37y+wb33NlsnOZLqs2UKdkMYYUQrDMtmV0C14hbyajKMxEQwnx+qX4NlBkFC/prsCeynfVhE0OTKoFJYYdlH2kzQSHuapWavcNl+B0xTYKoyfk4sjFYdtuLUWcDSdJjkW2U89tyeMGHCsKFDh74gCNqdh+nTpw/q16/f72vSW7OkbLV69eqWLVq0WJP2GRNXpBUBQdBpRSwd55ML4JFHHlmwdOnStrRpdan2cFxc3LlNmzbdVrVq1a/T0XREXDJq1Kjxz419bpis+aAaCiTKzdNM3JAb+OD1Wrg59znokgo7ZMFUNMiqAuYYYLYbZ5ve41KCDilUKxzw2RYUxiA5bgKMxUzYigTLH8Dur2R07HUEF0I6DCqtIpNIkk0bifaGDRsaNW7c+KP0juVau+7IkSMl69WrtyMxMbEA+aEv9UdTtuXixYs7XEvlwCJ1/gRBZ8PMHD9+/JYaNWp8YZpmLAX/e1UsKEmlTZs2OTq1mBJvatSosWvv/r1VfXoUzBC5GEKI8QMN6kh4c9K9UENHoVkMEmQEyfkgSdBkB8x2STK9x6Uujv8maDfD0JIccPdHVH7MX34UIybGw/FFI8UM8r4pVC8uLu7XU6dOlcyTJ8/F9I7lWryOiHjZsmUPXfoQpU1tVVWT9u3bVzmnlF/LyXOT/m9HTr7rbB77yy+/3Kt3794zKQGANgaJoD2957Vr1zZp2rTpxmweUqZ1R5oidevWPZAcTNaJoMMh2q4LI1YHnhtSAY+1vhHGhcPQaGNQ9yOFYt5kCVGqAtOiuoIZs6C9TcKw7FrQumNyt4VnQZsKgwEf4L8Fg8asw+IPAPhjELLDrgVtO7jtttso/vzuTAPlGmlo7dq1jZo2bbpeVVXJCwlN3Tdhs2bN6v3EE0/kGJ3ynDolgqCzeOao3uBdd9314bZt2+p5WYNEznSUL19+/xdffEGVo80sHkaWNf/C5BcGDB065AVSlOP1B00JftVAAT+wZkEzlC4UDyvxFHyqxBNCUsIWf132k184lAJJdTf30nNcGmZnSj4KCOEE7f7eLaZlKQ5CLDcSjKLo9MQa7D4BmIoOhyx4xuBYNkaPHj3m2WefHZ2eMVzL19DbUZUqVXZ9+eWXVb3ya172a7169bZ8/PHHDYSbI2tXgCDorMUXVN26bNmyx8LhsM/bEScrhCyS4cOHjx03btyoLB5CljZ/9113fbR9+476tmOCyQocqAgoYdxRFlgy+wEowW+g4SI0heKTHRgWoNJmHmweZihpeqYQtAXaJARU5hE0CSgBtqIgLF+PfUd8eKz/xziTDB4CKFOFb2bxTJaNGzY2bNSo0YdZClQObXzkyJFjxo8fP4oeqp42B/mkfT6fcezYsTJFixb9JofeWo4YtiDoLJ4mr4IyRW/QIie/M1khcXFxSWvXrr2zTp06+3Nq5AA9fGrVqLMvPv5iXjgWHJlx8SGfY+PZnjHo16EuwvE/IipA5ByGZRmQScTfYZBpM0+iDEC3kGt6jj8nqvh4qreCPxO0QXofSnEsXPoLxkw9hKACJDMVjHzfzKb6g2e+2LuvaqFChc6mZwzX8jUkH7tnz54qjRs33hIfHx/rrV0iaIrmmDFjxlN9+vSZfi1jcLXvTRB0Fs4ALfD69etv2rZt2z1EymQxehsu5cuX33fw4MHqWdh9ljZN97Z8+ao27R9u/w6zbMgkHyLbMDVAt4B1cyri1tI+hBLiERujw2ApMK0g/Ho0JMsBs0JQ/QH+JpFegiYVDm8B2+Rn5jmJHkE7MGUZQRJK0stj3KTDmLfie9gqbVSqsClWWpJQt1btrTu2b6cMznRGY2cpzBHReMWKFfeRm4MGQyRNb4BE0rfddtuHqdoxArssmilB0FkELDX79ddfF6lateqRpKSkWE/PgIiaXhWff/75USNGjBibhd1nedOdOnVe+NaCxR38FFNsBkEaT7YK1KkALJ/WADHWSeiyj6de21QzkPzUjgKFAQpz9aAohjn9anauSD8dEvypnyYYka9jw5AU2P4YnEu5Ge26rsNX3wMpkKBGRSMYTuHnj/zPiGfGjhn7bJaDlYM7mDBhwpBhw4ZNpFsg4STKKqQjNjb24r59+yqVKFHihxx8exE9dEHQWTQ9tMGyePHiNl26dJlnGAY374ik6QgEAskbN25scPvtt+/Mou6zvFmqYVenzm2fnTh2srQqy7BtEwGfiZAFdG+bCxOerAa/8Q0vQeVWPDF49W7FoThpSjBhbtVtZA5By9BT79n+g6ChIqgG8M3Z69C22xb8nKDB5KF3DA64H9We9fIrXR544IG1Z8+ejaIMIlVVuU6qpmkqSz3+DkyebfSXg07/6+8sy7J1Xdcoe9Tv9zO6LhQKSbGxsYaqqsGckFr+ySef1GvevPnaxMTEGO/+SKLAsizrzTff7NyhQ4dFWb7g/qUdCILOwonv0KHD/LfffruzVzXF+05XqFDh4MGDB6vlZNW0zZs312/QoNFHKtX7cxgYCSP5yUIGZk+qhftra9CN01wLg1wYjuSKFykO5RmSLCiJHBFJZ2QCqA1XYlRlrmypI3kEzRCWVFj+vPhg6wU8MfQbBKEBqgqLpFBTXRyqrFjXX3/9zxcuXMjHGFMCgUBCOBxWZFnWKELhL5zrjfavn//zJhRFsW3b1indn9wodCiK4vh8vqDf708ZOHDghD59+szOCApZfS1jzFe5cuWdhw8fruIV142NjUViYiI6dOjw5ltvvdUlq8fwb20/Q1+PfytoV3LftKhLlix58MSJE6VIbIZKCHkhSo899tis2bNn57iCsJfe95AhQ6ZMmjRlIBE0ka3NTF4lpfj1wIo3W6OgdhIB5wI5FDgJu84Imbs33CPj1bypDaraTSF1RNDkRbZleliQi4MhDD+UPDdhxPgP8dpSwJACPHGFGJ2EmrxakPTgpJ+JjGmPgPzi9Dvv91cy32k9h9YCRfXoup6ydOnSpk2bNt2S1jay8/wePXrMpgLHFCrp1c4kV13x4sWPf/3115XpxSA7x/Nv6UsQdBbMNLk39u3bV7J27dqHqSis1wURAGPMWbVqVcuWLVu+lwVdZ0uTZA1WrVp175EjR6o4FukpU1USg+xTPNSILOiHkXLuAGJUyht0qZmR7jNzrWePnD1yTe+g6Xoef80oxdt1cXCCplRvKiEGH+yYm3Bfu8049B1gq3FICSWRw5o/LCjlnFwzRM70EPWyPFPDyNwNzP/2WqRpuN71RMgcB4q9dlIfV6kVddq2bfvOokWLIrpQ7cqVK1u2atVqBSVb0fgJG7onWZadzz//vEL16tWPpgkYcfIVISAI+opgSttJRGCvvvpq1549e86NioqSyHomnx2ptwUCgfDJkyeLFC5c+Ne0tRo5Z3/77bfFSpUqdcwwDI0cC4oiw2IOYlVgyuDC6PpgJcmF+aYAACAASURBVCScP4mAZkKGwQkUjAhU4e4IIlabV/Om/UNSoEvfvf09QRMJujUJwyyAoO963Nf+Yxz6ATBllaeXcyvZdqDS5qZtcML05scbyV//P30j/OeryEInK7pdu3bzFixY0C0r+sisNs+cOZO/dOnS35Af2tMwT/1ks2fPfqxnz56vZ1Zfop0/EBAEnUWrgcSRlixZ0pH8z7RB5H3haWNw+/btdbOo22xpdvr06X369ev3EnWmkfuCAZIK3FIQWDy1HsoUTgJjQcgsBFUOphK0D7LjpnWT79lSXJ+07BBBpy8OmgiaMgJlh2ofary4ISmIcguauziikKIVxstv7cbrq+Pxw1lwK1/TfDAM0pEGVP0PUfpLXRueqyOjgF66l+hZ0/Q7z91FVdxXrVrVokWLFpsi3U1w2223bdmxY8cdhM2l9TTbtWu34K233uqcUazE9f+NgCDoLFgVtA9UqVKlLw4dOlSBk1iq385xHHvQoEHTpkyZMjgLus22Jhs1arRm69atzXnquhOGHXYQ5QdqlASWz2oGOfglYuN8MMIpUJjhehQcCoMjcX7XDWFTxW36Dbeg00/Qv7s4/oagDfhhagXxm10Ig8csw9bPHRgpgKpwvSZeCsv2lEnJNa26tV1Mm0cGcpkQigZ0Lf3//flX4L2NTwokpE1MyuOn4rSMSb+7fGgA5C1v2KDhBxs3bmyVE9L9e/fuPf3111/vS9WAvFhocgdVrFjx8MGDB6vk5E3vbPvypLEjQdBpBOxKTiepxmrVqh0IhUIBb7OJSDocDpO19EDLli1JFzpHHlS2q3LFSkeTklLibGbBURwoNpDbAf7zZEn07lQMdvgIwqFExERFA4br2qCDPBlEWOSDlj35EbdWaQawcJNVPJL/IzLa9XszNQq2HItkw4/zv6UgIT6FJwxxyWjqV3a95Fy7I3XDMS2ffl1HQsJF5MkdjYsXLyJf/kL45ddz0KMCkKOK4ch3eTB09NtIMlUosh+SlQzKiYnNnxfnz19gJ46fKOXz+X688cYbI75Yw4oVK1q3bt16OZGzp81BE+fz+VL27t1bpVy5cjlWMjcDCzBLLxUEnQXwfvDBB01atmy52nEc3YsOoEVNMo3btm27rXr16gezoNtsafLdd5e06dSx05JQyJK5FSjbPHqjsAzMnlgLd9TRIVvfcheHQg4FKxrgIXDkd3Y39YgaVaodSJEccIWj0nt4lb296z2C9qxYy7L5GwyZxxZlMPJSXJqb0UmblgoRsxuql55PasNhBhwrDJ9fh2M6sClBRo/FBaMw+j+9Gas3/QbFH4tgyIBKjpeAhoSQyQYOGTp5yoQJoyRJoiDxiD8OHDhQoW7dup8Hg8EoT9ecBi3Lsrl69er777vvvvURfxM5bICCoLNgwsaOHTvi6aefHqsoikSvgETStBlUtGjRrzdt2lSpWLFiOTYkqWPndm++tXBxJ+JXRdFAIkkkLVq5CIkjtUAu/2mo7Bz8PgXhlDAUSsEmgqaNQYq6kN0MQh4P/Ufhk3TPwv9K0PYI2nHc0DkiaO5ioPA5sqx5tW+bR59wN0mqhZ+2TxmKFsUjQVQK3TNDiNZ1nE+wkKtoLSxccxSDnzuMi0FA12MRMihZhSEUtlGiROmTmzZtr1e0aIGf0n3z2XwhFZ4oVarU4RMnTpTkfv7UUESK7X7uuedGjhw58vlsHtI1350g6CyY4oceemjxu++++7AnjuRVo2jQoMHajRs33pcFXWZLkwkJp/NVrlx71zff/niLIhPJSdAUEkcy0K01MH54SxjxJyCZvyE2LgbBpGRoVEGFW6dyauSGaywqjo/7nz2LOr03cDmCJlcGj2dOdaO4oY4Sj+Xl2Y9R+u+hepfzNf/X36HABr3uAyq9IRgpiNJlXEj2I16rih5D3sHWL+j5pHAZ1oCmwRfH8NuFEJs96/XHevZ8NMdFPjRr1uy99evXNyODg3zRtLYJ0zZt2ix555132qV3HsV1f4+AIOhMXhkkIlSrVq2d+/btq+W5N7xElf79+0998cUXB2Zyl9nW3NZP19555x1NP2QOFB9FQoSp7qAKnVmYM7kYmtS7DnLKRRihZERHxcIyQlAVokZK6aYSVAy2Qq5WCYoVDYmryrkp4Fl10By4lh55ZFKXO7k2KJJCAUwz5PqeucPF9YZf6SfpiFhMRrQ/Fgnn4pE7fx6kJJ6BFlcRk9/4EZPmHEfYD4QsBbQn6tdVpJhh3Nu88Ya1q9ffn1NcG5fOzaBBgya98MILg0mTgzIJiaAJy6pVq+7atWtXHSE6lbkrWRB05uJJG0V5KJX7l19+KUKbUXR4BD1v3rxOXbt2XZjJXWZbc888N2TsM6Mn/UeSAZ/qhxkKcYmiEtcDi9+4FYWif0KcEkA4OQRZ1aDyclYpblo3tL8QdGyqBW0BpISXRQeFg/2RbOJazp5spksurk51eg66ynQoKUaBZpEWtgI9Nhr7TyroPmgPvjxDO2gBN/7dT1XMDXoCGJs2brj3nntyZv3D+fPnd+rSpct8iu/3qtOTNV2wYMHTn3/+eZUiRYqcTw+W4hphQWfLGjh48GDF2rVr7zJN0++VCaJNKsdxnF27dtWqXr363mwZSCZ3cvbs2Zj77r/noz17DtWUyRqFD4odhM8B2jaLwfiRNaCGjyFajgYzAMuW4fOrcJwE14Jm5EoAHNm1oGU7cwjajQr574MeCnR4BXp5pIdEfmjGSZqsPpoXyh5M70HuGUVXYIbDiIrOi/PnwlDylcPQ59/Hu+uAsBQNw1ZgUU6jP0z3b3Xr3POVWbNmPSXxJ0POO/bt21ejWrVqu6gMloclEbSmaaHt27fXzskb4JE4G8KCzuRZ2bBhw92NGzfeTBuE3k43ETWFIp0+fbpEgQI5Z1PoUmio8G2pMqVOgGq/kqvAURGlmIj9f7p9dkhZPNIqH5TwKchhBYqig3jPF62DWYl/IWjaH5Uh24FMcXFcjqC9MmO00HmpMSbzNGU6XG1ut7jsP8U5/++/M5hWMgKBKCQnhKFElcS24zra99qMJIP87j4wpkFVJASdRBQoFP3D5zsO1bzlllt+yeRll23N/fLLL9cVKVLkpGVZ0d7eSupDkG3YsKGBqIyeuVMhCDpz8cTs2bN79OzZc5amaTK5OPx+P99MKVeu3JdffvlldUmSwpncZbY0N2nKhBFDhw4bp6v0ym5CVTRuQedXgQ3LWuDGfD9AMc4gWo+CY1KmoOublJzU8F7mujhI1Y5btt4mIU9YSb8P+n8T9J9h8TRB/vRbvknpbiCmJ8yOXDOabCBkOJD0vEhAabTssRIHvwMsilBxZCgG1VykOoiGNWHqxEGD+g3J0RVIKJKDik0cOXKkPK1tct/Qg880TZsEwHr27DknWxbkv6QTQdCZPNHjx48fPnz48HFkQXvhdUTUderU2fHZZ59R4dj0s1Emj/VKmyNtkebNW7z//vtr79U1H0zTgK5p0KwU1K8GzJ58L/Jqv0A2foWuuhaqo2ncnUBVtylaA4w2CcmqdP3NMlMyJYojIwTtTgT5jtN3yLCh6UB8go2Y66pj2vy9GDPrRyTZMmTdoQIzUA03IaZ6rdqf79j1WZ309RRZV9WpU2f7zp07b/MyZMmCtiyLTZgwYcSwYcMmRNZoc/ZoBEFn8vz17t37lZdffvkJT72MmieibtGixfLVq1c/mMndZUtz9FpbqmT5rxITk3NTBUHGLPh0CYphYvSAfOjRpir08DloThIk2LCcMCQ/CRFZUMkj8ieCdmnRFUjyoo7TfxsUgeEef85G/KsA0++PxUtcv96T8n+R/OVGRb51KvVlSDfg6C83oEOf1ThxljYOVch+h+eSx0gKLMNmy5a916Lpg81zrILhpVi0aNFi2erVqx/w9Dg8hb4nn3zylZkzZ/a+HG7i71eOgCDoK8fqis5s0aLFijVr1rS6NNOKCLpHjx6z5syZk+M0oClscM2KD5q3eOCB1T5Vh0OJHaS07Ac0C1g5vxZqlpCA+AuI0hgcZsKSTCgBsrTN3wX6/7CgLyXoK4L0H09KM0Hz54Inger+nF4Lmh4KIYNBzV0NA57bggVrLkKJDiA5TFk8YUT7NIQSTPTs2m3ey/PeiGi1urTMBGlDz5kz5/FLJVTJndWiRYuVK1eubJ2WtsS5/4yAIOhMXiG33nrr1l27dtXzlNE8VbSRI0c+O3bs2Gcyubssb46Enzp37D7/7beWdFD5aiHxIxO6HyheBFj1RmPkU04DCfGI1jU4zOKKcpJPg0EEnSqQRKForovDI2gvey8jOhz8/eQvGHjt/d3SvtS7lHodJ+v0UbSFaNi+67Ftbwo69dsDQ9OQELThI9+smQLKMI8J5Du/Y8euuuXKFb9mdCpGjhw5ZuzYsaPI90wRMWSMkLujVq1a23fs2FEvyxflv6gDQdCZONlkbVaoUOHA8ePHK3ox0KTBYRgGe/HFF/v2799/ZiZ2ly1NnTnDourVLf31z2fOFzbMZOhKGDalT+vAIw/kxaTBt0JNPgI9FORZgzyWjCppy6QU54BIndwNkUHQBNlfSDoD0W5h5EVQK4MufZfikz0U2KIhTAUMdBWGybP52fMTpwwbMWTQpGyZrGzq5MUXX3yyf//+M1LXNu+Vfi5ZsuShw4cPU3WVHLfPkk3QpbkbQdBphux/X8AY8998881Hfvzxx2JkWXgLl2JtFy5c2L5jx46LM7G7bGnqww8/vKNp4/u3yEyFaafAp1LVbFea86VJd6HlrTon6GhmQiYTmflgywqClMGnkuqFDYVyQf5kQbtlqjJDi4Nbv0Syv0uW/sWC9n7/JyL+gz8yQiXJUiG8velXDB9/Ar5o4LdEQPfHwjQswDFw2523fvbxJ1vr59TInf+1wBYuXNiuY8eOb1N1FS+OnKzpG2644dS3335bQZKkiFfmy5YvTyZ0Igg6E0D0mjh//nxc+fLlj/7yyy+Fvew1r/rEihUrmrdu3fr9TOwuW5oa+fSwsWPHTPoPVc0msvXJVL2bJCaBVUva4KbYH+ALfYdYlcHhCSABOLKKIKnI+X2ARS4RIuQ/xPpp4H9sErq34ZK1S5xcVY7E/Tmpug+6v27kkdgSN1H/ywL+JxfHpZC5fUlcVcm7xlXa+4Pwvb+l/t69gutvWJIfCVJR1H9gNc6GgFCQihbIMEwFsqQBtuUsXbW0acuWLTdky0RlYycrVqxo1rp16zWapknemyL5owsUKPDjkSNHyuXLly8hG4dzTXclCDoTp/eHH37IW7ly5WPx8fH5vZ1tsizIH/3hhx/eec8992zNxO6ypanKVUvsOfzlieqOpfPSKQWjo2Akx6NFY2DCs83hN76DjyWkkrArikRuDm5MpyaAEOm5ROj+ziNkXkTWceVGKRyPQvB4RRSK/HB8riypnALTDsGRNTiKBD9JeoZNGL+FERMTS1dloDK4G2HCtaRJNlS2wHimowPF0XloIGQ/DCsIf6yCYEICNCkGySwOTu5S+M/EZVi4ioGeJSEKp2OArCigkoMPt3148eIlb7fPlknK5k68ZCzJLVPOszXpyJ07968HDhwofeONN17I5iFds90Jgs7EqaW6beXKlTuWkJCQl1t9qTKjRNAff/xxvfr162/PxO6yvCnS/72rft2dv8WnRCuqHzAZbYtBcyyMGVkI7e4vAz10jmscp+fwyJEbzhKVwCKCJs1mBXACnPR9PgPJib9B9sX8X3vfAV5VsbX97nJqGgkQEQSlS0d6CU06KFWKwgUp0pXei1e6IL2HC6hIk95Dka70GKkX6YJIJ+Xk1F3+u/bJ9ubez+/7STgndfbzxIOw95qZdybvmb1mrXfBpShwu50IMllgIVYk0lY8kF9hFWtfHJpeNR1iylCERFB8s0D2KT0dZs2X7vbEITAkBHGxDlhzlsSBGAcGjT+G+08BhwSQeBAlJCVV6rbt3r07olatWr+kBpeM/syBAwfqNmrU6JD2ApJMdjQ4OPj5pUuXijE9Dt/N4Cssbd91IqtYonjhokWLXktISAjRJC4VRUsnJn/00aNHa9apU+enzDTWGVOXjRg55tMvDSYBMu0yZSdEWUbeMGDD6mYo+JoNZmcsTLJXFCqll76bJnImxwG5KzSCVg3aDprcIC7nMxiNIkRLCBSVsFSg0oGkwwYD7aYFHqQql9qLvgQokURRacdOeh3eKBVoCZ8CFDkQHOig14mAsGA8SogFH1gM/Yftx77jgFPLwTFoIYUhROBxcRg3btyUyZMnj0ttnzL6cwcPHqzVqFGjI5TApBM0fQYHB8deu3at2Ouvv/4ko48hs/SPEbQPZ+rOnTuvly5d+prNZgui1z5dNY0+qVAsFYz1YXN+N9Wk3gd7fzi6r4lo5uGw2zV/cICgoHypQMyd+SGMyj2YZTcEVU6lloXu8qCQO62CX1LRVy9BCypgNkjgBQ5PY2MhiEaEhoQh1AqYhXi4XtyFYPSmkKfuona9BC1xBs3dQW1qBM0nao4XWbJC4K2QoCLOI8P6egGs3RqDcROeAEYg1g2Yk3bP9KZUokSJS0ePHq0eHh5uS12fMv5Thw4dqtmgQYOjFIKZnKCDgoLifv3116KMoH03h4ygfYclshJB37hxI3+tahHnHj59GG40W+GWOIhUutsjwYxEvJUXePEM4C3eA7zUiA3p0Otlq/SjOM3jQbkemhC+N+Ew3gEEhwDhYUDT+vnQvWN5GOS7CBQ9ENXUuVjoC4EImlwkEu/1RRtkwSuPymvqc4Bs0HbIThmwIQRxQlF82G09bt8ipTwgQaHxc7R7pN2zumnTpjYffPDBNh8uqwxnihF02k0JI2gfYp2VXBzr13zdqVOnj7+jAAc6+FNl8vlaYOKMMFP2neQ9B6JXfIp59gVBkz0tZkM1glNNmkoGDzesRg4OyQ1B1KLX8NbrwLABBdGuWTFw8XdhVFNbQYwI2ptYo2hfBUTQ3srjCu91uVBVbw94qOYguK3FMWnhKSxd+QAWHrBLAEk96WrWbdu23bx58+ZMmc6fkl8D5uJICVqvdi8j6FfD7z+ezkqHhIP691m6cNHS3qLRBKeHRPXJzyuCUwSYeB6cYofAq3Cp3siL1BD0v33QXlUOuv7M6aPoCoV2tSrMVF5JdsEg8rAKVshOGxrUABZ+WRsBylMYVXK/pOaiGGrSg6ZjQZI/Ja8z+dP1mirEvhKcnBFcjjdx4qITXQee1moM8i6vCh5FltA4cubM+WT79u1Nq1Wrlin1vlOC3v91SHjlypXiefPmfZoSe+ze/x0BRtA+XB1ZKcyuRbNmuw4dOtzc5ZHhkRXND0wHnh63W5MRDQsKRWz8c5JO8rJzKi56SgvF02WTkkLzNFNJ/ygkxU8bzQY4HS4EC0EwqHGIqAR8t7QhkHDvlXbQdECpxUHr8qdaSS4FHIXZ0cVJkAxheKHkx/Bpu7EhyqvzbBWNcLkcMFlNsNkTMXTo0FmzZs0algoYMt0jLMwu7aaMEbQPsf6/ElW2bdvWolWrVplGzWzL+h0t23Vst1XleI70NehFnzK5qY4f6d1rMb+UXPLnNjgVQFJNQogQOCo86oIgyvBQEDF5GyRAMJDgvzcBhnLGyQfOeVRY4Eb/j4ER/avCYI+FMdU+aCJbSqIBDKoBkscDD6/AHGCGLS4RQcFBsNvjIOYohrW7n2PYpMuIlSkhxQKeU7UvKxUKChcufO38+fPVc+TI8SIVKGS6R7Zt2/Z+q1attv9VosrVq1dLhYWFxWW6QWXQDjOC9uHEJKV6X/79998LZfZUb/qyWbny256fT/j7ZJfbbqEK2H9udTnvxtkra+HNENSFQ1PySYkgAm+VFUURREgeBS6jaiA/Aw+OF92S020UBZMWpghRgOp2wUrllSQ35k19Da0bvQGBCFpJXU1DOtxUZBUGqqzi9L4ZCBQqFx8HA8+BE6iorRFPHXnQbdARXLgDxJG722DWis2GBIcgPj5e/fbbb//WuXPnDRyXVI3Ah2sqI5pKSvVem1yLI1mqdxmO41Lrc8qIw03XPjGC9iH8fyWWZDKZtKoT8+bN+2zgwIELfNic301RHcJHj+7ldzicgW63WwsU5jhO9sAAWTJwvCAokschcpxE8R3agVlKPuluURVVt9NtMpr5RLszIUww8jYJEE2mAM+hg0frT544ZQLhSqStSi4EGySEGIEda2qiYJ5YGF1OiHSSl4qLjghVKhygyDDRQSMvwM2HINHjQnCQgOdxTgSHlcKClT9i6pI47UBUNFmR4HDCZOHhckpo1LDh3v37DzRLRfOZ9pF58+Z9OnDgwPlMLMn/U8gI2scY/7fcaFI5IEpeyJRyoz6G56XMESFTFnH/wYPnLZqz4DPtgJIXwcl2BHJApZLAppUtwTkuw8LJEMjfkoqLCJrjKGtRgpHcOJwBNo8IgzUALjkOiiE3rly3ot/QI7gXB8R5aCMvam4RS6AFTo/buXdHVP369etnqgSkVED1H48wudFXRfDln2cE/fJYvdSdrVq1osopbXSNAj2jsFevXouXLVvGqk28FIrk21aFt8sV//na5V/LeP0nIgycBKME9O2UB5OG1YL7RQxMPMVSpHIHnaQFLYpGeOwyeM4I3miEIvJ44UiAGFQaQ0YewPbDLi2UkBwxbo+EnDmD8fh5PAYPGz51zsyZY19ySFnmtl69ei2LjIzsxQT7/T+ljKB9jPGAAQMWLVy4sJ++eHWCpkor27Zta+vj5rKsuau3r75VqWKlS3ZbYgDxqCLxMIsKTAqweHp1tI4IAu++rYkspb7orAKP6gDpjPBKoHbwKXkSALMVXFA+7PjhHgaOuoF4D7lvBAgiD1nxUCUrFChU8P7+Ez++UzwbhpTRWt6+fXvrvyh5tXDhwoWfZtlFmQ4DYwTtY9CnTp06asyYMVOzUtFYH0P0UuaWr1zd7ZPuPVcKguKNsVYAEzzImxPYENkMxcP+gJV7Cpn8yP9Vj/ClGtBuoixCD2QFMFrCtJjnhBf3YcnxBh4k5MeAsQdxNAZw0r+LIZAlqmDtoXNR94zZCz/7rH/fZS/fVta4k9xP1atXP/5XRWOTCiZ/mTVGmjFGwQjax/OwZMmST/r27btMD0Gi0vSkclayZMkrly9frpDVxNt9DN+f5j77bPTC+fPn9xd4WUuI4RTSlXOjfFFg/dIWCFGvw2KwQZKJoJNflFBDMqL/ljb17rD/XdZKW/Qq743BFjmNoD1aJRQBquKAJObDN1ufYezMW3BZAKdkADw8zCYjnO4E1K0bceLwoeN16cDUX+PPqHYpUqlUqVLnrly5UorWNh2AJ52zyJGRkX179eq1PKP2PTP2ixG0j2eNsqwaNmx4mJI6dDU7EtExmUz2+/fvF8mdO/cfPm4yy5lTVdVUssQ7Z65fv15Wokw/ToJVFCA4JIzsFoQBXavCIN8HjwRwIoX5aTl9Gg7eBBMBvEKHed5EE0rGVnnKGPTm1Gj6zxA1JQ5VMGo19WSXE7zRANlkxp3noWjS/gTiJCARRsgU+E1lYUgfROSch/f/0KB27Xd/zHLAv8SA7t27l69gwYLXZVm26PU2k4TB1H379jVu3LjxgZcww255SQQYQb8kUC97W0xMTKnq1atHezweIxEzXVRVRVEU9fTp05UqVaoU/bK2sut9F69fL1y/Wp2TT549yQ2DClWVYOQBqwwsmVAAHzQqCEgv4PHEgSdFJY2gJU2NjnQ8tOot6r8JWuUohpvmgtwlXnKmii2kMaJwBu0NJzjIhAS7BCngTYydcQjrdpEQkllLY4fgoYBpwAD87cNOK1evWNMju87N+fPnK1asWPG0wWAQaH3TlxvtoA0Gg/PEiRNVK1aseCG7YuOPcTOC9jGqz58/DylTpsylx48fv6EvYKvVCrvdjlWrVnXp1q3bah83meXMrd6woX33Dz/eICsSFPL5JinbvREEbFpSBWUKyuAkBxS3XRNQ0usSahnnmvi+t1SV5vogEf7/qNxN+h6CRtTku6ZdoN1lh2ACxIAC2HciDr2HX8QLCXBzAmRNqk+CaOKRK2fOBz8dO12jUKFCd7Mc6C85IErK6dKly7cBAQFITEzUknuIoMPDw++fPn26PBPrf0kgX/I2RtAvCVRKbqtSpcqp6OjoqtqrsyxDJ+hBgwbNnjt37tCU2MqO9/bq339h5KLI/iYDVcm2w2D0ahrVKA2smd8AwfwdcB4ZBl4Ax5MWdVIdQQIrybes0XayeoV/ltqiSikgkqY7eIgiD6fsQYLshksshKFjj2HfCcBj8B4OqjIPs8UCpzMR06ZOGjJ69Pg52XFO9DEPHTr0q1mzZg2lCjI2m00rd0Uk/c4775w+e/ZsDY57hTLp2RnY/2XsjKD9sCg6dOiwbuPGjR1p4RJJ61VVGjRosHf//v3ZKusspfBSlY6yFSueuxJz+R3Su5A5NyxmgJKHe7TPjcnDysLgug7JwcFqskKWyLf87wNAr3g/qdRRjUNv61qUx587ay8xe33R9G8yPLwJbmsYItf/jJnznXDIgGIQ4HTLsJgtmkhTzWpVfzx+8qdG2T2NuXHjxrv279/fnLIIqYpMUhip2qFDh/Xr16/PkjUYU7qGfXk/I2hfoplka/LkyWPGjx8/hRavtpNLqk341ltvXT9w4EDZggULplbA2A+9zVgmr9y68mbF8tUvehJdQZJM+hgKLEbA6AG++rw8OjY1w6zchyuRh0m0gJO9fn4i43+7NCgrUI+PFjSC5jRhJm90R/KL3FBcwOu4nRCETn1/wNWbpAUdApWzg4I0eKplLsnq4f0Ha9VulD0PBnW86PC2SJEiv9y5c6c4rWntq47naROiTJo0adzYsWOnZazVlPl7wwjaD3O4e/fuJi1bttyhKIqBdtD0QzsOURRtx44dq1GpUqWLfmg2S5j85ptvOn/crcdqXnv7kLUvNxLHzxMM38/rXwAAIABJREFUrItsguJ57iGAfw7JKYDnDDAkrWAS3NfcGNrOWT8UJDb2HhhS5AaRuNe14SUXRSsJYMJzT27MX3sRC1bHwqmF54WAU5wwiby2S/zbRx+t/HrNt9n2YFBfWNHR0eVq1ar1o8vlCiDXnf52yPO8e+vWrS3ee++9fVliEWagQTCC9sNkXLlypWjFihVjXC6XVa/ZRpEcLpdLpWzCVq1abfVDs5neJLk3hgwdMmfunPmfETmT0JTHReJIMkq9SQJJHSHYo2Hh4rVoDSJfzf+sJasYvbSrheWRJqg3rI5XqDpLsqKyWvVwci6LkDgLFDEXom+oaN3zJ8RKVDQmCB6nDLM2X4nIERL84lz02fKFCxf+LdMD/IoD2Lp1a9vWrVtvorVM65rePmgHTSGk0dHR75QoUeLXV2yCPf5fCDCC9sOSIB2JsmXL/nzx4sUytIDplNvtdsNsNqs9evRYsGjRooF+aDZLmCxcuOiVu3dvl+BIb9kjQ4QBwYIH3drzGNmvNizu32HkEmEwmuFwOLTkEi2kDgavrzmpQjglZxMtG8RAuGw2GEQBvAFwuxO12GmDKQeexQsQgkujc9/vcfwi4BAC4CFZVZ6HhTPB7bYrs+d9NXzgwIGzswS4rziITz/9dOHy5cv7U1givRHSLpp+KlSocOH8+fPvsAPCVwT4Lx5nBO17TDWLnTt3/mbdunVdkgvK0I4jIiLi+IkTJ2r7qdlMbfbmzZsFKlasfD4u9nku3VUsgkcOQcGsCXnRqn4+BKgOSK54GM0i3DLtlr27YVUlNdR/EzQVftWqdCsGbwwzR8kqEhR4IAYE48VzN0LzVMTitT9j8rw7cPAGJMiBkKUECEYRiktF9cqVfv5m7deNixYt+iRTA+ujzkdERBw7ceJELTr01qM3JElSu3bt+u2qVas+9lEzzEwyBBhB+2E5kF7BsmXLuvfp02e5KIocEbOunRsUFGS7evXqWyxe9H8Cv2HT1rYftWu3nqfoZ1UhCWgY/iWOFB4AbP+mCgrlikWwaIYrMR6cRfVmByrkNKYDQJMWYkeEzamUuKJCUDioHq/IESWbKIpTU6VThUC4lZx4FBeKrgP34pfbgCRQqosFsuxCcHAgEuJt8sZNGzt88EHrzX5YIpnO5B9//JG7WLFitxISEgLJxUG++aRPdcWKFZ/06NFjRaYbVCboMCNoP0ySqqpidHR00apVq15SFIXXozho50HaBTt27GjVokWL7X5oOlOb/PSzYbMWz589xGQ0wCVL4DkZ5GkuVxjYurw+rJ4bCOQDIEkeyEYHFF7yHvr9B0FLmkeayFlL6fYIUFQZYgAgyS7YZRVOJQhBoWXx9y+3YflGNyhMJNZBu3EBQUFBVCUFbVu13rJp66b22VFv468W0datW1u1bt16i9Fo5Gg96/5nwufChQvlSpUqdTlTL74M2nlG0H6aGD0k6datW8Vp90wLWiu66vGABGWWLVvWy09NZ1qzlarW+Cnm9MnqJoMIh0zMK8HEA11aWjFzeDUEeH6DnOgVNXIZqLS2TDIbSQRt0HbQHEVwUHyGVhFc0Ajao7hgDKTEEwWJqgmGgMI4dcaGAcN/xAM7IIkmqLJLmx9OMIEXhdhTMT9VKlO0zM1MC6aPO967d+/IyMjIT2jXTH5n/VylUKFC12/cuFGW4zgWOupjzMkcI2g/gKqb/Nvf/rZq9erVH+tZV/T3RAIlS5b85cKFC1WZst2/wb92716+CqXLXJbi40IoQsBDlU4gwyQAsyeUQJcGuRCAp3C9SNQqaTt4GwQDD9VDO2XvIaE3QcWjCSeR/5n0NlRJBNXj8ggOOHkBHjEMqrE4evddj8NnAIcIuCRvMYAAqxkJiW6MnjBu0uSJEyf4cWlkKtOkYFe+fPlTFy9eLKfHP9ObRkJCgnbW8t133zH/s59mlBG0n4AlP/TatWs7dO3a9Tue5wWK4tAzC4OCghJ27tzZvG7dusf91HymM/vtmjUdu/yt0zqrwEHyqJA4I8C7kTMHsGFpA1TJ60CA+yEktxui2YhExUvQnGz4UxxJS07RdtAknESxzyJURYRgNiDe9RSKNRg2NReiDj/A2LH3IBuhVemGYATnciNANKPkO6XP7j2wuXGOHG9miwrdL7NQjhw5Uuv999/fQ/5n/X4KgZQkSfr6668/7ty58zoWwfEySKb8HkbQKcfspZ+4ceNGfgpBio+Pz0EP6bsO+vO0adNGjR49mombJ6E5bPSwmV9N/2pYgEGAy00CR0aIghtlCgObVrRGHjyAmvA7LFYLYOTgcCdoiSmCagKvUoYgBdUpUHmH5oOGSsQtQpU48GYjnjheQAjJhz9sudGj735cvwHYFcAtkOvZAINHocQYZe2mDe0/+KADOxhMtsqnT58+atSoUVqWIL0NkkhS0nqOjYmJKZ+dxaNemgxSeSMj6FQC9zKP0S66bt26+0+cONGAXBu0i9bD7kqXLh1z4cKFd17GTna4p1qNd86cOvlzZQNvhsgJ8KgyjIoT/doBnw9qDNXxECbOAageCAYOdpcNZqsFEiUNqhyM5G8m5TreocHFgcpYCZDdHggWC55JMvjQkpgdGYP5kffAiyJsLk4T7NdSylWgVatWW7Zs3dqO7Qb/c8WVKVMm+vLly9paJReHHgNds2bNH44ePdqQCvxmhzWaHmNkBO1n1BcsWPDpp59+Oo84QxfxJ5IOCQlJiIqKql2lSpUYP3chw5u/fv36GxG1q1x8/OhFDkE1QyaNYUGGRZYwb1ROdG1dGk7HM3CKGwKnghcUONx2jSgUOhhUaSdNaSqSFtmhhdtputAcHfjB5lTB5ciPny7b0W3QGTyJAzjeCI9CVVU8EASOFAfjDxw4UL9q1arnMjxgadjBkydPVmjevPnRuLi4QCJnWrt0SEhHswsXLhw0YMCA+WnYnWzXFCNoP0457aDv3Lnz5ttvv33N5XIZdVU7fQcyevToSZMnT872h1Hfb97cuv0HbbdYLAa4HRwUEugXFYQIwK4VVVGhiAq3Mx6q7IaRgqM5BR7FCY4TwEH0lknRUrsV8IpZ2z8TYWs7PgAJkhVyUEkM/nwTth6AFgttNFhhczhhsZo1re4xY8ZMmTp16jg/LodMaXrs2LFTpk+fPkZ/A9TXsMlkcl+7du3tt95663amHFgm6TQjaD9PFMVE16tX7+Dx48frUHSCXgaLDgxLlSoVExMTU4XzxoZl22vY8GEzv/rqq2GBQUFw2pxQFQ/MBqDUW8COfzRDgHpD2z2rsgSL0QJF9oA3KBqWnBYprULi7V61OiUAgkIVU1yaOJLN7UZgnrLYdOAxBoyMhjU3hz+eqF7m5rwaHYWKFL4WHR1dKygoiGUMJluFqqoaKXqD3Bu6trmeQVirVq2jhw8fbsBxmmwgu/yEACNoPwGb3OzixYv79OvXb4meTUj/RnGklCa7e/fuZs2bN49Kg25kyCZIt6Ra7arHT588X91I9QElEuJ3awEZnVuHYNbYmvA8/xkG3pt4YjZ6C5WazCJk2QMBBsicApfggsrxECQLRI2gZcgcD6dRwBNnXvQa+gN++oVinr28TDLSoaEhePEiDv9YsaJbjx49vs6QAKVjp0iVsXnz5nv0bFjqStIaVhcvXtyvX79+S9Oxe9miaUbQaTDNly9fLlK1atWfJUkKpEQV/SJfXseOHb9fv359hzToRoZs4tajW6+VL1nu1/gXtmAoAgyCCIPihKgCX04ojY9bhcMdexFG3giB6Fg0w56YCLPZBEUin7QImZfgEkmlzkvQVDDWoCpwcyaI4YXw99m7MX+FDD7Aiji7XSN3+jKw2exo1LjxvqioqPez+1vMXy0OEuHfsGFDB3Jr6BclqpBs7smTJ8uXKcMSefz9S8UI2t8I0wu4qpo++uijr6nKSvIKK7TwQ0NDHx08eLBmdl3sW7ZsfK9Nu3Y7NaEjmYfIGWFU7Qi1Amsi66JC0QSIrvsQVUETzxdEK+w2O6xmisMlguY1gvYIpAPNQ5At4GgHDQkOLgyXHwSi22eHcecpIItGLVHI5XLAaBTpz/adO3c3aNCgwck0WAaZqgmSzK1Xr97xFy9evEYbCd33TK65du3arV+7dm0X9qXm/yllBO1/jLUWtm/f3qJly5bbyPOpJ6zoTc+bN2/kwIEDZ6RRVzJUMyNHD//yy+kzR1AyCSl9GiUTAgQbihcANqx6D0Hcr7AK8eAonhkCREMAHIkOWCxWyG6ndkCocBJkUdbkRnmZRJOMkHkjErl8GDntALbsk+ESAUkxQpYUGEQDVEFGzx7dli5ZvKxvhgIkg3Rm7ty5owYNGvRnhZRka1bdvn17KypIkUG6mqW7wQg6DaaXDgrJ7VymTJnTN2/eLEs6xsn8eShSpMiv169fJz1dexp0J8M0QVEu1arVOHL+53O1Zd5DIc4wKSEwqXHo1g4YN7gejPJ9mNQEzf/sLVtFn4JXCImSwWUXDAFG2BxxWnFel90Fl8eMkLzlsDnqFvqMvIgECugwAh43YOat4HgR5hDTH/+8erlCeHj4wwwDSAbpiKqqlmLFiv18/fr14rpyXZIwPwoVKnTx0qVL1bLbWk2vqWEEnYbIT5o0aeyECRMm66XqyR+tH7qsWLGiR/fu3VelYXfSvamHDx+Gly9X+fLDxw9ywSQDRKBKACxIxMyxedG5bRFItnsQ4UoiaBIR1fRCk1K56Y8euJMKx3K8qlXgfhZvhEMog97DNuLIBW+2oOiV9oAoB8CpSFi4dGHPPn0+YRKZf7EKli5d2qNv375/SuUmHWiTq06aPHnyF+PGjZuc7osnm3SAEXQaTvS9e/fylS5d+rLb7Q6hqhS6P5rCxSpVqnRu+/btdfLmzZstdtFU3uqHH36o36hBs/0cz0E2uAAPETQQJgDbvqmKMkVcUN1x4FUZgiYrSoklNGEUTkfhdfRXbiicCgMVd6WDQUWCKbQcZi39J75cdgM2ErTjoIkuKS7ydBtQs1rtM4dO/VA1Dac+0zSlqmpguXLljly4cKGi7nemzpP2hslkSrh06dLbBQoUeJBpBpTJO8oIOo0nsGfPnstXrlzZk14ZSYKULtLosNls2Lx5c9s2bdpsSeMupVtzo0eO/XLGlzNGmMxm2KUEUBF02kiXLQDsXNUUZvkqjAaiY698qEbIHIUwc1qsM10uxYmAoCBIDjec7n+Fflhy4LenoejQ8yB+ew7E000kdOcBLAIHUbZ69kQdrFWrcfXT6TbwDNzwli1b2rVt2/Z7i8WiJfDQRTtoWZZlCkX8xz/+0TMDdz/LdY0RdBpOKflcr1y5UrhatWoXJEmykC9aP3yh3UpERMSRI0eOkLZBtgj+r16lxo/nzpyrQW6eRNkGgxEQPcDfmgdg3qi6UG1XwBtV6OWraKpknjJMqJQVp5G1R5FgMBrhcnjgUUJgyFEag8evw5aDQCJHBE4MA1gMPNx2Bf16DVq0IHLugDSc9kzTFMWk16pV68CZM2fq6boxWlV1i4Wqp9hPnjxJwvw3Ms2AskBHGUGnwyR27dr1m2+++UarV0gETWFM9ApJVb/Xrl3b6aOPPlqXDt1K0ybv3bsXVrZ0mRsJcbZQnuPgplqBZsBI8c/Di6Nbg3ywSvcgCa6kMlbke6aQOsWrYqftqEm9ToXT7YFRDII5Ryls3fcQ/Uefgk0EEhVvNRUSt6OF/nqePI9PHz5b4Y1ib/zBBJH+53SvWbOmU6dOnVabTCaOkoFobdIPkXS3bt1WrVq1qnuaLhLWGBPsT+s1QBEdZ8+eLd2oUaOfEhMTLXq9QiJp+nPlypXP7d+/v2FoaGhsWvctLdvbvHlzi3ZtP9hOcRkcZ4CLZJkNHoQFA2sX1kPVnC4E4ilkgxMqVerWojZ4TUeDLkGlrbGiifHbHRICgt7A4xfh+GRYFH66DBB4gsUIyemGIPBQZBGzvprTf8iQ/ovTcpyZpa379+/nbN26ddTZs2cr0ducXjGFPgMDAx179+6tRm9+mWU8WaWfbAedDjNJJN2mTZvV27Zt60i/DETMtIOmi3bRK1as6N2jR4/l6dC1NGuSIgGmTJ481qxViBbhlOnTjiJvATu/a4m8rocwS8//xw5a80FTJW+teooETlDh8NABVgmsWheDaYsewcYBsVTsW+A09TXFo6ByxVqnzpw5Wo+VZvrrKV60aFHvAQMGLOF5niOXE7nfzGazJpHbokWLDVu3bu2cXVxvafZL8BINMYJ+CZB8fQtFMERHRxevXr16jCzLRto9a0SiKFql5LCwsN9//vnn8nnz5n3q67Yzij0S2zlx/Hhtiq7gYIBTNsLMJ6JjG2D62Ebgnt5EsOCBYKT4DB7uRBeMogmyR4JoEeDh3fCoLrh5BYLxLdy5mw/dem3D40TgiVuEKSgQcbZYBAQEI9FmV08cPlEjol61Uxll/BmpH3FxcWElSpSIefLkSX4K/dSjN2hNCoLgOXXqVLmKFStezUh9zi59YQSdTjNNdd769u07c+nSpQOIlMnXR7sVTeNYUUDRHkuXLs2ShWUp3LBmzZonf/vtt/ykHkqVuXk1GGY+HqOHBqN3p9IQbE9hUjyQPDKMRjNEmZYqFRB0QhUVODgnOKrG7ZZgCiiLmTPOY9X3j6HFHfBhSFBiYTQb4HbK6NW796KJX4wfmSdPHm8pEHb9BwJ9+/ZdEhkZ2YcImQia3uYoBJTWY69evRaNHj16WMGCBVlR2HRYN4yg0wF0vcmYmJhS77777rHnz5+H0d8lV7vLlSvX023btr0fERGR5XZ9W7Zsea9Dhw47PVo5FE0tFFY1ADnMiVi1pCyqlFZhdVFcNO2S6a3CBFHmwZNojyRBVd2Il+LBB+aE25gHp87HYdjwC/gjHpTSAgVWuDkbBBOPPLnzPti5fV/DChVKXUnHqc6wTR85cqT6Bx98sOPp06e5qJN65iBtGEJDQ18cPny4drly5S5l2AFk8Y4xgk7HCaawu/Hjx5No/xjy/VGqMsVD00WvmQ0bNtwfFRXVOB276JemSQR+ypQpY3gRJGBHlapglYCS+YFN3zZAiPEmzB7yHZM7w6Dt6lS3AovBqFVIIb3oOI8dasDriFffwqBR23D0OECbbFkIhIPEfSwyPC43ps6YPnzM0FFf+WUgWcBo06ZNow4cONBYj8mnmoMU/6woijJu3LhpkydPZkUM0nGeGUGnI/jUdGxsbGhERMSJS5culdT1DuiARteLXrRo0YD+/bNW5EHdunUPHT16tB4MnOauoDO/IBfwQYMgLJhWB7zjMgQPRXdwUEQObsmj6USbeBECx0ELErcEIZHLg3VRv2PC1KvwKICDinqLgRDNBjgcL/BOlbLnf9h9pH5YWFhcOk9zhmx+0aJF/fr377/QYDBw9CVIGwTKcCUXW+nSpa8cP368ZlaPJsqQE5OsU4ygM8AMff311526deu2mnbU5P/T/YBE1K+99tqzQ4cOVcsqCQL0hVS4cOHrz549ywnSx6CEQBUI+1dQxhcD30av9vkguG5DcUkwmI1IlBwQDQYYvDnecDoSoAgBsOYsgkt3eHQfegBX75JSHUV3WCApKkSzCMljUzZsXdu2w/sfkYIgu/4LgSQ50ZOPHj3KmRSDr8fi0xejumrVqr99/PHHaxhw6YsAI+j0xf/P1jt06LBp06ZNbfWyWPphIb16tmvXbvvGjRtbqapqyOwavHv37m1Mr9VaBiUxs4GnUtEoYAHWLGiACgUTYMJDyE4JRosRiR4HLAFW8BL5QhTYXM+gGHLDoRTH/BWnsODbp5BNPJxuAwyWQLhcNq0+YfsP263f8O2Gj1jF6b9e4O3bt9/6/ffft6I3NbpondEbHM/zaps2bbZ9//33bTLIr0a27gYj6Aww/RR2d+HChaKVK1e+YDQajeSH1lPAkw5t1NmzZw8dMmTIHErH5Tjy2ma+i75gZs6cOXLEiBGT6AvII0tQjSJEjxslcgF7vmuLHMJ1BHAv4HS6NYL2UKFYKnNllyEYBDj4eKimArh2qwDafbwTdgF45hAhilZIigzeoEI0KPZTp3+qXKFUBXYw+BfLZPbs2YOHDBkyi1wbuu+ZNgbBwcEUh+88ffp0uXLlyt1g2Zbp/zvGCDr95+DPHnz55ZfDR40aNUN/5aQdDV1J8aiu6OjoMiVLlryegbqcoq4QQdepU2fXyZMnG1HsN8epmt/TY0tEj5YWTBrWHJ74swgP5eF2eFONPR4XrDnCICdIcKoeCKEiniTmwcARJ3HkFODmDYAxEE63CwpkqKoLX0z8+xefj//731PUuWxyc0xMTLFq1ar9QmGeeiFY8jnrUgPTp08fOXLkyJnZBI4MP0xG0BloisgHXa9evR9+/PFHynjT4lBpB02/QERoFSpU+CUqKioiPDzcG+qRya7ffvstb0RExE/3799/k8bEc4DVKEBwyfj74Hzo/WEFeGz/hNXkhMfp0WJxzYIBqspBkQXYVR5ieB58u+UK5i6Kxd1n9EpuhlPxwGKywOFORMkSRS8fP/FTzdDQBw6OK+3OZBD5tbuPHz8ObNq06fHz58+Xpygh+tFj7wnrmjVrHj58+HB95hby6zSkyDgj6BTB5f+bT506VbJBgwbn7Ha7hUha300TodEvUf/+/ZctXLiwX2Z8/dy/f3/9Jk2aHCBBZy1rkvOKI+UwAN8sLo+qZS3gXS8A2Q6eUwFZgdkcgIS4eBgsViimcNyNDUXfYXsRfRVwqEbNj00y/uRLVXjJs2p5ZPePunb/zv8zlblaINfYgAEDFi1atKgX1VyjtzI97p7WldVqtR88eLBytWrVmFsoA00tI+gMNBnUFfpFWrJkySf9+vVbbDQaOX0XTWRNu+nExERMmTJl1NixY7/MYF3//3Zn0qRJo8ePHz9VT4YwcoBZBYrlBTavfheB4h1YOSM8TgesViJfBZykwuVWIBstEHOUxIxFZzFvxW9wkNSoagYHWUtNkRUZTZs02rNz774WmdVH//8F8BVumDp16qgxY8ZMDQwM1PzO9AWp757dbre6ePHifv369Vv6Ck2wR/2AACNoP4DqC5PNmjXbERUV9T7toPUahmSXXkuDgoJiv/vuu47vvffePl+0lVY2GjduvOfAgQNNaQzaDlqREcgBTSKAyEUNYX8Wg2AhJySHBLOFpEI9WlyuYAqBy5AbF26J6D7gEB7E0e6ZYp45iLwAySPBYjHb9x/4oW7NmjXPptV4Mks7O3fubNS5c+d1NpstjHDXLxJDInGuJk2a7NqzZ0+LzDKe7NRPRtAZcLZJ7e7Ro0dhDRs2PHTx4sVSekRH0mGhRm6FChW6vWXLloZlypS5mQGH8D+69ODBA+s777xz+/Hjx+H0j7SLhtuNQABD++TBkL7F4I69iiA+TKtRRVW3PbJL03v2CGFIRBGMnLwNm/bJkEQL3LIDggFaJXCK1hs06LMFc+fO/ywzYJGWfaR45xYtWuy7detWQV2QS/P/J4lzlSlT5vLBgwfrh4eHP8mMbrO0xDI92mIEnR6ov2Sbu3fvbti+ffvtHo9H043WNXp1tbGIiIgz69ata5o/f/7nL2ky3W6Lioqq17Rp00M6MdCnqMoIMwLL51RHzXIqTNIDreQVzxmgSDIkTgFvVRDreg1RxwUMm3gGTiMQ56TIFmglsmRKES9Z6sqJY8drsIzB/5zeBw8e5Grbti1FzVTV14wW3phUrNhgMDg2bNjQsnnz5nQuwK4MiAAj6Aw4Kcm7NHv27IEU/0xVLshnqOtHh4aG4sWLF2jduvWOLVu2dMjoOsdTpkwZP3bs2IkBARbN9+nxqAgUFRTOA2z9pg1CDfdg5Z5DsSfAbDZBctEJohHxcMEllkCnPvtx+hLg4klvIwkheltXIS9ZGtm3b69eWVo/O6XLVFVVS+vWrddt27atZVhYGJ4/f64dCtIXPb29kGtj/vz5gz777LP5KbXN7k87BBhBpx3WqWqJ3B09e/ac/9133/VRFEWLfqCQu4CAAO3AkJTr+/Tp8zUdLGbkV9QG9RoePvbTD3U9sgKRfMdqAHiXDS3rAJGz20O2XdfkRiVHHKyBQUh84YAQmBuJgWGYv/oU5ixxwUXZggYT7G47LKFm2BPsaNS4cdT+3fuapgrcLPoQrZnevXtHrlixonNS9qm2ZvSoICLpnj17zluyZMkIjuNYKGIGXgeMoDPw5OhdU1U1sFatWltOnTrVkH65KLmDFMf0moZE2oMHD54/a9asQRkxhjX2bmxo2Zrlbt7/426oQod7PGBSLTDKDkwb+jo6tCwMM/cMgmyHkVfhsDkQEPYa4qUAXHlqQbueR/A0HnC6LbCIPFySE4pAFVVUZe/evXWaNmx6IhNMY5p0kch56NChM+fMmTOIGkxesYfWCbk3atSocXT79u3v586dOyFNOsUaSTUCjKBTDV3aPkgiQ2+//faV+Pj4PETOuoYC/dLpv4Rjx44l6dIJVCEjJCQkw/ilTx4/V7VmraqneFGFlJSgYlCBEB7Y9nU1lHjTBhNvAzxOmBQLIIhwiwLsQgEMm3gI2/ZJSJABsyUMDtdzrWgsBIvycdduq1YuX9wzbWciY7b2/PnzEPLBk5Tr1KlTx+ihjLrvmdYLxTuHh4f/fubMmXJvvPHGs4w5Etar5Agwgs4k64F2Rjdu3HizcuXKZ2JjY8OSlyVKRtbKp59+Om/OnDlDMtKwZn81e/CQYcNmmyxG8n3CIEKTEy30GrDr27oIt/6GAIuChGcvEGTKDQkBSBDNOB6TgG79r8BgsSDeoUKiyGjRRfkreLNA0dsnjp+slT9/rt8z0ljTsy/Dhg2bsWDBgmHkCqN+JM9GpZ0zEfiJEycqZ2a5gPTENz3aZgSdHqi/QpuHDh2q2qJFi2M2m81IcawUJ0yXLlNKLo7x48dP/Pu/rldoxmePUvp6s8ZNd+09uK8ZJ1BpLwH7BhVEAAAaFElEQVS86oDoAVq+y2HplPrg7BcQktOKuIdPEBL8BuLtAXguvIXew7bg5HmqkmKAxWCBzWOHIdAEZ6IDM2fMHjh8+CB2wJU0U1T4Yfr06ePojYqImVxh9BkSEkKa4/TGpRw+fLhKrVq1zvtscpkhvyPACNrvEPu+gW3btjXr0KHDDpfLJSQJ+2suD3qFpSvJJz2XVMt833rKLFL8c8WK79z64+Gj1wAeojEQqiseZg74fEhhDOhYAKrtCkReBQcRLrcRAeEVMOvrC5g49wY4g4BEtwgDZE2I3+ZyoUad2sd/OnKkdsp6kjXvpi/AESNGzCS1QxohrQF6u0pe/NVkMkmbNm1q8/777+/Mmihk3VExgs6kc7ty5crO/fr1W+F0OkmhVAtdo4t8j7R7ol/UTz75ZMWECRM+zZ8/vyO9hnno2P6azZs0P+FwUUaJESJnBi/HI9gArFlWFxHF3Vr8s8vmgjU4J144gD/sr+GDPj/g7nPATsNSgQAThYi5oZoNns2btjR6v+n7R9JrTBml3Xv37lkmTZq0aPny5d2IlL3qf4QzkOztSt2wYUPHDh06fJ9R+s368fIIMIJ+eawy3J1ff/11t+7duy9TFMWgHwrp2YbUWfplpYKgX331VZ+33nrrj/QYwOTJn0/4+xdffCHJACeYAQ+PELMd4YHAjjXvo0DQI8D+ByyiFYkuI8zhpfDZ5+vx3R7AZTDDo3gAWYbFaIDd7sGHndqtXrtmY5f0GEtGavP27dt5hg8fvnTTpk0tqJ4l9e0vds7O5cuX9+3SpcvXGanvrC8vjwAj6JfHKsPdSa+3y5Yt+2Tw4MFzHA6HVXd3WCwWbRetv+ZS9EdUVFSj/Pnzp+mBGvWvceP6uw4fOdTMo5UYEBFoCoBqj0PTWsCy2a2gxP0TuQIAZ4ILivgGou8GonW3vUgQKCnFDKhOgBJSOCBnWOCTn89fKV+gQIEHGW4y0rBD9+/ff6N58+Z7fvnllzL6WxPNfbJalrBYLPa5c+cO6dWrV2RGDL1MQ7gydVOMoDP19Hk7v379+k5dunSJdLvd1uQuDiJqcn3QrtpqtT7fvXt384iIiFNpNeRnz54Fv1O+7K9/PPr9NSrqCoWDiVNhloHh/YIwpFdt2J78E4FGQJUMcPGF0XXwbkTfAn6PB3hTEBQpAdZAM+w2J6ZNnzJi1LAxX2Vnwjly5Eittm3bbn7+/HluXTKUiJncG0TSSWnc9m+//bZXx44dWU3BtFrsfmqHEbSfgE1rs9u2bXu/U6dOG+12u0k/KNKVy5K5PRxUtWXw4MGL/N0/kk09dep8uRrVK50zmgXO5ZZBRWKNHiCIB9YtKY+aFQKgeB7D45YRHPIWvtl4CcOmPoZkNsDuMUOWKSLBSdncqFi9wqm926IaZtZiBa+KN5VFW7x4cQ+q8G42m0WK3qF5pbmmTz1T0Gq1utauXdu+ZcuWO161TfZ8+iPACDr958BnPfjxxx8rkyBRfHx8IIXd0S+uLlVK2Ye0m5ZlWe3YseOqtWvXkui/y2eN/4WhGdPnDBs9avBMg8kAp1uGwaTCKKvIHwJErWmAUMtDyEiE0Zwb9x4FoGv/w7j1AniawEMQgryuDdUNGS5l/Za1bTq26bjdn/3NaLYp9p3jOIl0Nbp37z5n1apVvSwWC0e7ZPrypR96S6JPii8PDg627d27910muZrRZjL1/WEEnXrsMuSTt27derNRo0bHb968mZ86GBgYqKWF0w6LLjpI4nneU6pUqeuRkZGdqlSpEvPkyZMgf6T9vtes5a4DUXubU9qER5FgMCowA2hcFfhm5nuQ7b/CIXtgCi6Jz2cewaqNiZCDgUQK7XYbEGwOgd3pQLs2bdav27L6wwwJuJ86Re6hnDlzxp8/f75s9+7dN9y4caNIYmKiqEfs0Cd9CVOBYboKFy78286dO+uUKFHijp+6xMymAwKMoNMBdH82SQdz8fHxoU2bNt1y+vTp2pRVRq/B5J8k/zTtqImk6f9FUYz/4osvJg4dOnS2r/26RPpVK1S7dP/evQIUna0aSKTfoRH0uH75MKxzKbgSbsEc8iaOnI9D92Hn8NChBXmAamEJLh6czOGN8PyPtu3aWr98lfKX/YlbRrNN80ixzZ9//jkln4TQlyxdNIf6gWCSFotatWrVY3v37m0THBz8wtfzmNFwyW79YQSdRWecCHL06NGz//GPf/QIDQ3lSJqUfrmJrPWQvKSqzmqHDh12TZ06dQDtwh4+fBiQJ08eTSbvVa6oqIP12rzfcp/H4yHZDXBGEYpi1/zP3y2qg/pvS4AjDg61MIZN3Y61xwGnyAG8ACgqzBwP3i1jzJiRn4+bMm3iq/QlszxLST158+a137x5s8CoUaMWbty48X0i4+R6GuR7pr8jl1V8fLzas2fPFVOnTh2cXX3zmWVuU9tPRtCpRS4TPEc+zHnz5vUZPnz4LFmWjckraein/rpeQ548eZ6OGjXq80GDBi32xdDmzp4/dOiQoV/xvAhJ8aYdB1ncyG0C9mxoh9et9yDAhD2HEzFg/DkkBAIOPhCKww1BFKA4HChVtPCli78erMxxBb357NngWrhwYd/JkydPfPjwYS5yYdBF/uXkGaMUQmmxWJx04Pvpp58uYTUYs+7CYASddef2z5EdOHAgYsCAAV9fu3atMGWY0SETESb5pfUIj6RComq9evWOz5w5c0ClSpUuvgo0LRu23LXnwMHmHlEGx3MQFBkBkhtNqwArFnXCk/hLkI2vo/VHUbjzCLDJdCbIw2iywO1IhMAL6s6tW5s3a9Fi76v0I7M8e/LkyQqjRo2adfTo0TpWq5Ujl8Z/C2LRGw/NXZEiRa4vW7bs4/r16/+UWcbH+pk6BBhBpw63TPfUw4cPwz/55JPIvXv3vi9JEnl6tQobFNlBkQDkm6YdG5G2JEnKiBEj5s6YMUPTd0jpRQdcdSvVPXvl9q/FZMEDGAVwDhmh/6q+Pb53GLp0rg4uhwGT5m3D0m8Ap8T9qSOSVMgUnTt3/vrbb7/tmdV3h3fv3g2dNm3atI0bN35IuNEc0HwQQdOX5n+l8bvffffd/cuWLeud3ZN1UromM+v9jKAz68ylsN8Ul0xkt3Dhwp6jR4+en5CQYKFdNJVDevbs2Z87adqhBQUFkUqetGzZsi7du3dfl8KmcPp0dKV3q9U85VQdgixqCYQQnQJyCDLWLqqEypXy4sKNBHzY4zBeuACZ/7eWCL3KBwUFUbhY1WrVql1JaduZ5f4//vgj944dO9pMnDhx/NOnT/ORG0MvDpx8DPou2mAwqLNmzer/2WefLcksY2T9fHUEGEG/OoaZxgIlO1BAxaVLlwoNGjQo8sSJE/VcLir+5730Ci26XCUVHN28efP7KR3gnFlzBg0fOniOKApwclQFFjBLQP4cwKZv3kN4LjMGjd6EPUcASQTcCkV4KNoOng7BRowYMWnGjBkTUtpuZrifSlCtXLmyy4IFCwb88ssv5fXoGtox0+EtfTlS6By92VBZM0mS1Fq1ah1YsmRJj6JFi96n6A4WqZEZZto3fWQE7RscM50VIorRo0ePXbhw4WBVVYOTXBsaURJR0+t1u3btNmzcuLFjSgfXtGnTnQf27n3PZDIiUXFDFACDB3i3mhnL532C/fsPYvCYq4AJiHcBKpXoTgohK1y48D+PHj1aJVeuXPas5N5QVdW8efPmFlOnTh0eHR1dURRFTj8DoE89WoN20joWJpPJPmrUqC/Gjh07KythkdL1lJ3vZwSdnWcfwMWLF8uOGjXq77t3725Fqmi0i0vKQFS3bNnSuk2bNinK3lNV1ZQ7d867sU+fv8YJopagYjIDVJp0+IAK6NKuAT7uPgOXbwN2iVSeZfAUtZFUDHft2rUffPTRR5uzyrSQX3nXrl2tFy5c2P/s2bOVyadMZKyXLdOF9ZMSiLSdsyiKcps2bXYMGTJkXFZ282SVOfbnOBhB+xPdDG6bXB5UCZx206tXr247Z86cMTExMcWoXt3YsWNn9OnTZ15Kh3DkxyPV69eu96MiqxwHASp4WMweGHhgwey2uP/PJ5g59xiEkAA8jaPwO9KulrXDsPr16+/Yu3dvSz3FOaVtp/f99OWkp89HR0eXPHr0aJMlS5b0unnzZnG9Eju5cPSdM30p0bjpk4j6Xzk8UrFixX4bNmzY33v16rVan5/0HhdrP/0QYASdfthnmJaTEbX51q1b4YUKFXoCwJlSXycR/ey5C/qPHjliThLhQBRM4LlE5AoFFs3th0F9FyM2HoiFETBaISpueNx25M6d++nOnTvrV6tW7UKGASaFHSEcDx06FLF8+fJ++/fvb0KFXMmELqavl6Oiv6OQOV3oSFVVNSAgwDZixIjZffr0meWPtPsUDoXdnkEQYASdQSYiq3TjgzYfbty0ZdsHPE+CPrQr5JEzVEDFsjmQKyQEe3bdgF0B3JwB5PsQIUFyOjBhwoQpEydOHJfZcCBSPnfuXLldu3a12rRpU+vLly+XJv8yuYpot6wffOrjIrKmH7qS4tGlPn36RFKx3xIlSvya2cbP+utfBBhB+xffbGX9xYvbOapWbnX2+o2bRTSC5lygTEJBkVC+dG48+O0Jnr6gQ0EzuOAAOBPiaCuJt4sVvRMVFVUjvaq+pHSSyJVx7NixisePH393586dTa5evfpOQkKCNXnmH+2OKQojMTHxz9R63b9PB4GhoaGOZs2abRo5cuTUPHny3Gep2imdhexxPyPo7DHPaTLKk+dOVqhV6d3zRt4MhxoPVfRGhPCSjBxmI2yJbnCCAKcCqKQxYRIh2+1YtmTpJ7179/5HmnQylY1Q3PLZs2dr7Nmzp+lPP/1U9fbt24USEhKC9dhlIl99V5y8CToQ1N0cRMyk19ypU6c1PXr0mPfaa6/9WrBg9kljTyX02foxRtDZevp9O/ilS5f2+azPwCVWoxWx7jiAJ0FnwGw0Q3FKMPJGKEYOdleiVsIKHIcGDRr8cHDfgQYZ6WCQBKMeP35c6O7du28dPny47tmzZ6tGR0e/k5iYaBEEyvfhtIM9+qRDPiJe+iLSCyToLgxdP8Pj8ZCPOeGjjz7aNGjQoGmlSpW6weKZfbv2sqo1RtBZdWbTYVxdP+z6/ZZ1G9upnAqb6tASVOjiOQMChUA43A54IAGiCsFboknetWNn3YYNG55I6+4SQVK2u81mC7527VqhmJiY8pcuXSpx48aNwjdv3iz8+++/F4iPj7d6qyF6k3h0EtbJmQhYDw/8b4JOqnCili5dOqZTp07fd+rUaXVa14RMa0xZe75HgBG07zHNlhYfP34cGFE54tKju/fedMEFj6hAJp1RgaNcbphUIySKdabMQijgoKJ/396LFy5e2j+lgOm7T3I7XLlypUQSgSo8792yK4rCJ6W2c3FxcUF2uz3w6dOnuZ88eZL70aNH4Q8ePAh/+PDh67GxsaG//fbb626320IJ6bQjTr47JrdFUlzyn8JFeuEDImS69KxLXafZ6XTSbtnRuHHj3Z07d15Vu3btH0l4P6VjZPczBLT1xWBgCPgCgbNnf3onokqtcybVwEuQ4BIlyLS6ePqPAM6lQBSMkAUOiseFMiVL3tyybWtdSl9OTfsTJ04cMHXq1FlOp5Ocv5rbgX7o0kPY/tsu/btOrHSPvhOmv9eLGOiKcfq/EfHq2X20Y9bjlvWyU0mFWlWTyeSqWLHiz506dVrVtGnTHYUKFXqUmnGxZxgCyRFgBM3WwysjQD7b/fv3tunepds3Zlg4BTLslDqY5OIAx8MkJBGdaCAylCePGzt89Pjxc1LT+JkzZ8rXqlXrnCRJgu731XezOkHrdvVDuqSd9X/EH+u75eSErsuv6q4LndSJwJMllBBRuywWi71KlSrnGjduvLd58+a733777dscx3mYfzk1s8qe+SsEGEGzdeETBNq0abNp+9ZtbQUIkFUZKq9QYRTwguDVnvZIWhUQqjEYEVHz+PGjx+ukNBFG7+jgwYPnRUZGDkhMTNS/Av7cPev3EOnSpR/Y/W+7at13rFdCpx2z7ragZBvdjla1y2CQ8ufP/1vNmjV/bNq06e4KFSqcLV68+J3UjsMnwDMjWRoBRtBZenrTZnC0g46IiIi+ceNGMSI4IrbkxKeHolEBW6fTKe/atathkyZNDqe2d0uWLBnQt2/fBa+99hqePKGkx//9Sr7D1u/Sd8lE3pRMktw1knSPSgeYoih6ihcvfq1kyZL/rFOnztEaNWr8mC9fvrvMp5zamWPPpRQBRtApRYzd/z8QiI6OLkf+V3q1J5eCvuvUyTF5HcRu3bpFrlq1qverwHjp0qUC77777oXHjx+HENn+Xz5nPT5Z9znrh3y0I9a/RAICAtxhYWHPXn/99d8LFSp0u3z58j+XL1/+XKFChW4l+cgl0ix5lT6zZxkCqUGAEXRqUGPP/AcCixcv7tWvX79lejFanfj0nbOeUZc3b977P/zwQ31fpDSfPXu29KhRoxb98ssvZRRFMciyTJEb5PLQ9JIpooN+LBZLvNFo9FitVkdISEhceHj403z58t174403boeFhT0tWLDgrZw5cz4uXLjww+Dg4FhGxGxxZyQEGEFnpNnIpH1p3779uh07dnQk10ZS/O+futK0iybXhs1mU6dPnz5m1KhR030xTD2x5f79+zkFQeDpsttJQprjSHzIYrEodFFbBoPBlStXrkRGvr5AntlISwQYQacl2lmwLSLKAgUK/PrgwYOCRM76oZz+Z9pNU0hajRo1zuzZs6dJjhw5XmRBGNiQGAJ+QYARtF9gzT5GL1y4UKZcuXLkf/ZKtCVl3el/JgEhnucTIiMj+5IGRfZBho2UIfDqCDCCfnUMs7WFlStXduvevftK2iknT+pIXo26ffv2277//vvW2RooNniGQCoQYASdCtDYI14EaNfcqVOnb9evX/+RnqGnl3DS06QDAgISf/7557LFihW7xXBjCDAEUoYAI+iU4cXuToYA6SKXLFny56tXr2p6GHq2HYW0hYeH4/Hjx5g6deroMWPG+ORgkIHPEMhuCDCCzm4z7sPxxsTElKpYseIFCnFLTs56bHLZsmV/OXbs2LshISHPfdgsM8UQyDYIMILONlPt+4FGRkZ+0qtXr0iyTIeBJCpEsc+U0k2VRNavX/9hx44d1/u+ZWaRIZA9EGAEnT3m2aej1MWAunbtumrNmjUfk99Z30HrDbVq1WrT1q1b2/m0YWaMIZDNEGAEnc0m3JfDLV68+NVbt269nVy0nvzPVqs18dixY3UqVqx43pftMVsMgeyGACPo7DbjPhovpVVXr179+Llz52roKd20kw4JCUG3bt3mzp07dzCT3fQR2MxMtkWAEXS2nfrUD1xPs542bdrw0aNHT6MAjqR0bhQpUuTW2bNnK4aGhsamvgX2JEOAIUAIMIJm6+CVEJg8efKYyMjIPvfv38/TpEmTH6ZMmfJZ+fLlbzCN5FeClT3MENAQYATNFsIrI/D8+fMQMhIaGurgOCqlwi6GAEPAFwgwgvYFiswGQ4AhwBDwAwKMoP0AKjPJEGAIMAR8gQAjaF+gyGwwBBgCDAE/IMAI2g+gMpMMAYYAQ8AXCDCC9gWKzAZDgCHAEPADAoyg/QAqM8kQYAgwBHyBACNoX6DIbDAEGAIMAT8gwAjaD6AykwwBhgBDwBcIMIL2BYrMBkOAIcAQ8AMCjKD9ACozyRBgCDAEfIEAI2hfoMhsMAQYAgwBPyDACNoPoDKTDAGGAEPAFwgwgvYFiswGQ4AhwBDwAwKMoP0AKjPJEGAIMAR8gQAjaF+gyGwwBBgCDAE/IMAI2g+gMpMMAYYAQ8AXCDCC9gWKzAZDgCHAEPADAoyg/QAqM8kQYAgwBHyBACNoX6DIbDAEGAIMAT8gwAjaD6AykwwBhgBDwBcIMIL2BYrMBkOAIcAQ8AMCjKD9ACozyRBgCDAEfIEAI2hfoMhsMAQYAgwBPyDACNoPoDKTDAGGAEPAFwgwgvYFiswGQ4AhwBDwAwKMoP0AKjPJEGAIMAR8gQAjaF+gyGwwBBgCDAE/IMAI2g+gMpMMAYYAQ8AXCDCC9gWKzAZDgCHAEPADAoyg/QAqM8kQYAgwBHyBACNoX6DIbDAEGAIMAT8gwAjaD6AykwwBhgBDwBcIMIL2BYrMBkOAIcAQ8AMCjKD9ACozyRBgCDAEfIEAI2hfoMhsMAQYAgwBPyDACNoPoDKTDAGGAEPAFwgwgvYFiswGQ4AhwBDwAwKMoP0AKjPJEGAIMAR8gQAjaF+gyGwwBBgCDAE/IMAI2g+gMpMMAYYAQ8AXCDCC9gWKzAZDgCHAEPADAoyg/QAqM8kQYAgwBHyBACNoX6DIbDAEGAIMAT8gwAjaD6AykwwBhgBDwBcIMIL2BYrMBkOAIcAQ8AMCjKD9ACozyRBgCDAEfIEAI2hfoMhsMAQYAgwBPyDACNoPoDKTDAGGAEPAFwgwgvYFiswGQ4AhwBDwAwKMoP0AKjPJEGAIMAR8gQAjaF+gyGwwBBgCDAE/IMAI2g+gMpMMAYYAQ8AXCDCC9gWKzAZDgCHAEPADAoyg/QAqM8kQYAgwBHyBACNoX6DIbDAEGAIMAT8gwAjaD6AykwwBhgBDwBcIMIL2BYrMBkOAIcAQ8AMCjKD9ACozyRBgCDAEfIEAI2hfoMhsMAQYAgwBPyDACNoPoDKTDAGGAEPAFwgwgvYFiswGQ4AhwBDwAwKMoP0AKjPJEGAIMAR8gQAjaF+gyGwwBBgCDAE/IMAI2g+gMpMMAYYAQ8AXCDCC9gWKzAZDgCHAEPADAoyg/QAqM8kQYAgwBHyBACNoX6DIbDAEGAIMAT8gwAjaD6AykwwBhgBDwBcIMIL2BYrMBkOAIcAQ8AMCjKD9ACozyRBgCDAEfIHA/wO2DmdWXzqrMAAAAABJRU5ErkJggg==;" parent="1" vertex="1">
          <mxGeometry x="350" y="470" width="40" height="40" as="geometry" />
        </mxCell>
        <mxCell id="w_5pN70K2NjQlTbYiHXN-308" value="" style="shape=image;verticalLabelPosition=bottom;labelBackgroundColor=default;verticalAlign=top;aspect=fixed;imageAspect=0;image=https://cdn-icons-png.flaticon.com/512/4248/4248498.png;" parent="1" vertex="1">
          <mxGeometry x="460" y="501" width="42.64" height="42.64" as="geometry" />
        </mxCell>
        <mxCell id="w_5pN70K2NjQlTbYiHXN-309" value="" style="shape=image;verticalLabelPosition=bottom;labelBackgroundColor=default;verticalAlign=top;aspect=fixed;imageAspect=0;image=https://cdn-icons-png.flaticon.com/512/7001/7001335.png;" parent="1" vertex="1">
          <mxGeometry x="598.68" y="498" width="44.64" height="44.64" as="geometry" />
        </mxCell>
        <mxCell id="w_5pN70K2NjQlTbYiHXN-310" value="Build" style="text;html=1;align=center;verticalAlign=middle;resizable=0;points=[];autosize=1;strokeColor=none;fillColor=none;" parent="1" vertex="1">
          <mxGeometry x="456.32" y="542.64" width="50" height="30" as="geometry" />
        </mxCell>
        <mxCell id="w_5pN70K2NjQlTbYiHXN-311" value="Unit Tests" style="text;html=1;align=center;verticalAlign=middle;resizable=0;points=[];autosize=1;strokeColor=none;fillColor=none;" parent="1" vertex="1">
          <mxGeometry x="515" y="542.64" width="80" height="30" as="geometry" />
        </mxCell>
        <mxCell id="w_5pN70K2NjQlTbYiHXN-312" value="Integration&lt;br&gt;tests" style="text;html=1;align=center;verticalAlign=middle;resizable=0;points=[];autosize=1;strokeColor=none;fillColor=none;" parent="1" vertex="1">
          <mxGeometry x="581" y="542.64" width="80" height="40" as="geometry" />
        </mxCell>
        <mxCell id="w_5pN70K2NjQlTbYiHXN-313" value="" style="shape=image;verticalLabelPosition=bottom;labelBackgroundColor=default;verticalAlign=top;aspect=fixed;imageAspect=0;image=https://cdn-icons-png.flaticon.com/512/10435/10435145.png;" parent="1" vertex="1">
          <mxGeometry x="530" y="502.64" width="40" height="40" as="geometry" />
        </mxCell>
        <mxCell id="w_5pN70K2NjQlTbYiHXN-320" value="" style="endArrow=classic;html=1;rounded=0;entryX=0;entryY=0.5;entryDx=0;entryDy=0;" parent="1" source="w_5pN70K2NjQlTbYiHXN-300" target="w_5pN70K2NjQlTbYiHXN-301" edge="1">
          <mxGeometry width="50" height="50" relative="1" as="geometry">
            <mxPoint x="84" y="523.95" as="sourcePoint" />
            <mxPoint x="319" y="524.9850000000001" as="targetPoint" />
          </mxGeometry>
        </mxCell>
        <mxCell id="w_5pN70K2NjQlTbYiHXN-321" value="PUSH&lt;br&gt;CODE" style="edgeLabel;html=1;align=center;verticalAlign=middle;resizable=0;points=[];" parent="w_5pN70K2NjQlTbYiHXN-320" vertex="1" connectable="0">
          <mxGeometry x="-0.1687" y="1" relative="1" as="geometry">
            <mxPoint as="offset" />
          </mxGeometry>
        </mxCell>
        <mxCell id="w_5pN70K2NjQlTbYiHXN-324" value="TRIGGER&lt;br&gt;PIPELINE" style="text;html=1;align=center;verticalAlign=middle;resizable=0;points=[];autosize=1;strokeColor=none;fillColor=none;" parent="1" vertex="1">
          <mxGeometry x="330" y="440" width="80" height="40" as="geometry" />
        </mxCell>
        <mxCell id="w_5pN70K2NjQlTbYiHXN-325" value="" style="endArrow=classic;html=1;rounded=0;exitX=1;exitY=0.5;exitDx=0;exitDy=0;entryX=0;entryY=0.5;entryDx=0;entryDy=0;" parent="1" source="w_5pN70K2NjQlTbYiHXN-301" target="w_5pN70K2NjQlTbYiHXN-304" edge="1">
          <mxGeometry width="50" height="50" relative="1" as="geometry">
            <mxPoint x="540" y="790" as="sourcePoint" />
            <mxPoint x="590" y="740" as="targetPoint" />
          </mxGeometry>
        </mxCell>
        <mxCell id="w_5pN70K2NjQlTbYiHXN-326" value="" style="endArrow=classic;html=1;rounded=0;exitX=1;exitY=0.5;exitDx=0;exitDy=0;entryX=0;entryY=0.5;entryDx=0;entryDy=0;" parent="1" source="w_5pN70K2NjQlTbYiHXN-304" target="w_5pN70K2NjQlTbYiHXN-307" edge="1">
          <mxGeometry width="50" height="50" relative="1" as="geometry">
            <mxPoint x="540" y="790" as="sourcePoint" />
            <mxPoint x="590" y="740" as="targetPoint" />
          </mxGeometry>
        </mxCell>
        <mxCell id="w_5pN70K2NjQlTbYiHXN-329" value="CI" style="text;html=1;align=center;verticalAlign=middle;resizable=0;points=[];autosize=1;strokeColor=none;fillColor=none;" parent="1" vertex="1">
          <mxGeometry x="440" y="460" width="40" height="30" as="geometry" />
        </mxCell>
        <mxCell id="w_5pN70K2NjQlTbYiHXN-347" style="edgeStyle=orthogonalEdgeStyle;rounded=0;orthogonalLoop=1;jettySize=auto;html=1;exitX=1;exitY=0.5;exitDx=0;exitDy=0;entryX=0;entryY=0.5;entryDx=0;entryDy=0;" parent="1" source="w_5pN70K2NjQlTbYiHXN-331" target="w_5pN70K2NjQlTbYiHXN-345" edge="1">
          <mxGeometry relative="1" as="geometry">
            <Array as="points">
              <mxPoint x="960" y="501" />
            </Array>
          </mxGeometry>
        </mxCell>
        <mxCell id="w_5pN70K2NjQlTbYiHXN-331" value="" style="rounded=1;whiteSpace=wrap;html=1;fillColor=#d5e8d4;strokeColor=#82b366;" parent="1" vertex="1">
          <mxGeometry x="730" y="460" width="230" height="150" as="geometry" />
        </mxCell>
        <mxCell id="w_5pN70K2NjQlTbYiHXN-333" value="" style="shape=image;verticalLabelPosition=bottom;labelBackgroundColor=default;verticalAlign=top;aspect=fixed;imageAspect=0;image=https://cdn-icons-png.flaticon.com/512/1357/1357634.png;" parent="1" vertex="1">
          <mxGeometry x="888.68" y="497.99999999999994" width="44.64" height="44.64" as="geometry" />
        </mxCell>
        <mxCell id="w_5pN70K2NjQlTbYiHXN-334" value="Code&lt;br&gt;Review" style="text;html=1;align=center;verticalAlign=middle;resizable=0;points=[];autosize=1;strokeColor=none;fillColor=none;" parent="1" vertex="1">
          <mxGeometry x="736.3199999999999" y="542.64" width="60" height="40" as="geometry" />
        </mxCell>
        <mxCell id="w_5pN70K2NjQlTbYiHXN-335" value="Staging" style="text;html=1;align=center;verticalAlign=middle;resizable=0;points=[];autosize=1;strokeColor=none;fillColor=none;" parent="1" vertex="1">
          <mxGeometry x="810" y="543.64" width="60" height="30" as="geometry" />
        </mxCell>
        <mxCell id="w_5pN70K2NjQlTbYiHXN-336" value="Production" style="text;html=1;align=center;verticalAlign=middle;resizable=0;points=[];autosize=1;strokeColor=none;fillColor=none;" parent="1" vertex="1">
          <mxGeometry x="871" y="547.64" width="80" height="30" as="geometry" />
        </mxCell>
        <mxCell id="w_5pN70K2NjQlTbYiHXN-337" value="" style="shape=image;verticalLabelPosition=bottom;labelBackgroundColor=default;verticalAlign=top;aspect=fixed;imageAspect=0;image=https://cdn.icon-icons.com/icons2/2892/PNG/512/rocket_icon_182791.png;" parent="1" vertex="1">
          <mxGeometry x="815" y="498" width="50" height="50" as="geometry" />
        </mxCell>
        <mxCell id="w_5pN70K2NjQlTbYiHXN-339" value="CD" style="text;html=1;align=center;verticalAlign=middle;resizable=0;points=[];autosize=1;strokeColor=none;fillColor=none;" parent="1" vertex="1">
          <mxGeometry x="730" y="460" width="40" height="30" as="geometry" />
        </mxCell>
        <mxCell id="w_5pN70K2NjQlTbYiHXN-340" value="" style="endArrow=classic;html=1;rounded=0;entryX=0;entryY=0.5;entryDx=0;entryDy=0;exitX=1;exitY=0.5;exitDx=0;exitDy=0;" parent="1" source="w_5pN70K2NjQlTbYiHXN-307" target="w_5pN70K2NjQlTbYiHXN-331" edge="1">
          <mxGeometry width="50" height="50" relative="1" as="geometry">
            <mxPoint x="540" y="690" as="sourcePoint" />
            <mxPoint x="590" y="640" as="targetPoint" />
          </mxGeometry>
        </mxCell>
        <mxCell id="w_5pN70K2NjQlTbYiHXN-330" value="" style="shape=image;verticalLabelPosition=bottom;labelBackgroundColor=default;verticalAlign=top;aspect=fixed;imageAspect=0;image=https://cdn-icons-png.flaticon.com/512/6404/6404298.png;" parent="1" vertex="1">
          <mxGeometry x="744.32" y="500.82" width="52" height="52" as="geometry" />
        </mxCell>
        <mxCell id="w_5pN70K2NjQlTbYiHXN-345" value="" style="shape=image;verticalLabelPosition=bottom;labelBackgroundColor=default;verticalAlign=top;aspect=fixed;imageAspect=0;image=https://cdn.icon-icons.com/icons2/2107/PNG/512/file_type_docker_icon_130643.png;" parent="1" vertex="1">
          <mxGeometry x="1048.32" y="454.28" width="93.36" height="93.36" as="geometry" />
        </mxCell>
        <mxCell id="ZA7k3HFakNiLwdTov1JZ-67" style="vsdxID=20;fillColor=none;gradientColor=none;strokeColor=none;spacingTop=-3;spacingBottom=-3;spacingLeft=-3;spacingRight=-3;points=[];labelBackgroundColor=none;rounded=0;html=1;whiteSpace=wrap;" vertex="1" parent="1">
          <mxGeometry x="1060" y="910" width="70" height="74" as="geometry" />
        </mxCell>
        <mxCell id="ZA7k3HFakNiLwdTov1JZ-68" style="vsdxID=21;fillColor=none;gradientColor=none;strokeColor=none;spacingTop=-3;spacingBottom=-3;spacingLeft=-3;spacingRight=-3;points=[];labelBackgroundColor=none;rounded=0;html=1;whiteSpace=wrap;" vertex="1" parent="ZA7k3HFakNiLwdTov1JZ-67">
          <mxGeometry width="70" height="74.00000000000001" as="geometry" />
        </mxCell>
        <mxCell id="ZA7k3HFakNiLwdTov1JZ-69" style="vsdxID=22;fillColor=#FFFFFF;gradientColor=none;shape=stencil(lZPRDoIwDEW/Zq9LWUHCs+J/EAVZRCATFP/eYYdsAzW+td2922mzMtxey6zNmYBrp5pzfpfHrmS4Y0LIusyV7HTEMGW4LRqVn1TT10fK22xUjtGluY03DOSLOEajScCDCknC482rsif9oVdkCEggeIjGEfgWGASVwChMmsQchVGgqzBpEvLQfrWStUUJDuKb+QMhuHgz8ERnteDyTnDWVBzcVTiNvnFnCN/o9Cyi2CUEFy8Ab3xWB+hLfOJVxFnuI3+AnA1L6kEsG/HJB1zOxkNfBf39Hf/V62D++4WsKlod+9zfFV2iPcP0CQ==);strokeColor=none;spacingTop=-3;spacingBottom=-3;spacingLeft=-3;spacingRight=-3;points=[];labelBackgroundColor=none;rounded=0;html=1;whiteSpace=wrap;" vertex="1" parent="ZA7k3HFakNiLwdTov1JZ-68">
          <mxGeometry x="0.8333333333333334" y="0.880952380952381" width="68.33333333333334" height="72.23809523809524" as="geometry" />
        </mxCell>
        <mxCell id="ZA7k3HFakNiLwdTov1JZ-70" style="vsdxID=23;fillColor=#FFFFFF;gradientColor=none;shape=stencil(lZXRdoIwDIafprc9aUOBXjv3Hp6JgzMGHsQN316whbYBQe9K/INf/iSU4e6SH84Zk3Bpm/on+y+Obc7wg0lZVHnWFG1/YrhnuDvVTfbd1NfqaJ7Ph0E5nH7rv+ENncnTyFENWRJuJiI5po/Ap9F/XRuTIGyG4pG2GYKkQCetKOE4imwo4tJGOpyLbCjmEfp/XhaVD+slTPipWKX1UlwBWhFcryZXQRoTXs8rpKpF4L4cEfJSPeXtXUoJbsJjGeI6v2+ugESEtJ7I8avkOayXsNwMyuoliFmP5ayeGXyHM5co+/IYbM7su/qtnYA3WgzrlqUqtAxCv4CaRYcQQqfWFwYCss1lAUYnT0R08iZ+GxEAbKObo+RZc1S400S+sNGCeOgYKJS3zVMpSDWvrYfTv7YdWvMkpt/JqZsjV8y1CFGJnQsfnXU310a3P7iL4FSUpblH/N/pxdGHzKWD+zs=);strokeColor=none;spacingTop=-3;spacingBottom=-3;spacingLeft=-3;spacingRight=-3;points=[];labelBackgroundColor=none;rounded=0;html=1;whiteSpace=wrap;" vertex="1" parent="ZA7k3HFakNiLwdTov1JZ-68">
          <mxGeometry width="70" height="74.00000000000001" as="geometry" />
        </mxCell>
        <mxCell id="ZA7k3HFakNiLwdTov1JZ-71" style="vsdxID=24;fillColor=#2d5967;gradientColor=none;shape=stencil(pZXdcoMgEIWfhlsHWbX1Ok3eI9OYytRqxpgW3r5a5GcXQzLTO9g9ON8ej8hgd22Pl4YJfp3G4bP5kaepZfDGhJB924xymlcM9gx252FsPsbh1p/M/nJclMvqa/henqDMubrMXsrllODaVHLO//YHI+9kH8iLTCTV77fRPD03bbGKc6zmSpjCutXrtn5d24DbQGE34Tgic6h30DhGExhMYDCOuQIbEOkmVl0hrqRf1gCNIS2V809jTMvl+xR0k8zLEekdNq8msIq8PU1pVfT+HGAybQ/DibMchRNIXOhEBZ7Hyd1EvmJnKvBEEA2UdhzoQGnLA7n1vHJDKozkvqEqKzFknFaneSawVBxl1iMFlATSVwJOQUADEWzZQzEz7OWjLz44gAOgYiQdJUABcYdG4LkL85/yeeGv8rPsOvMnCPv06p9L5rcB+18=);strokeColor=none;spacingTop=-3;spacingBottom=-3;spacingLeft=-3;spacingRight=-3;points=[];labelBackgroundColor=none;rounded=0;html=1;whiteSpace=wrap;" vertex="1" parent="ZA7k3HFakNiLwdTov1JZ-67">
          <mxGeometry x="1.6666666666666667" y="1.761904761904762" width="66.66666666666667" height="70.47619047619048" as="geometry" />
        </mxCell>
        <mxCell id="ZA7k3HFakNiLwdTov1JZ-72" style="vsdxID=25;fillColor=none;gradientColor=none;strokeColor=none;spacingTop=-3;spacingBottom=-3;spacingLeft=-3;spacingRight=-3;points=[];labelBackgroundColor=none;rounded=0;html=1;whiteSpace=wrap;" vertex="1" parent="ZA7k3HFakNiLwdTov1JZ-67">
          <mxGeometry x="10.833333333333334" y="20.261904761904763" width="48.333333333333336" height="33.47619047619048" as="geometry" />
        </mxCell>
        <mxCell id="ZA7k3HFakNiLwdTov1JZ-73" style="vsdxID=26;fillColor=#2d5967;gradientColor=none;shape=stencil(pZLNDoMgEISfhitBtlbu1r6HiVhIKRjE/rx9IRyqNMXa3mbhm81kMwjqUbQDR5SMzpozv8nOCQQHRKnUglvpvELQIKh7Y/nJmkl3cR7aQAZ1Mdew4R59BSHBQ8ljOR8jrKSewT+jGTANsAHNBliBkyuUuIIFznaYVp+3M4rJn4Zij1mZyf8WabNhJdIXBi9exemlUrF38/+0aP4plhSaJw==);strokeColor=none;spacingTop=-3;spacingBottom=-3;spacingLeft=-3;spacingRight=-3;points=[];labelBackgroundColor=none;rounded=0;html=1;whiteSpace=wrap;" vertex="1" parent="ZA7k3HFakNiLwdTov1JZ-72">
          <mxGeometry x="7.5" width="14.166666666666668" height="14.976190476190478" as="geometry" />
        </mxCell>
        <mxCell id="ZA7k3HFakNiLwdTov1JZ-74" style="vsdxID=27;fillColor=#2d5967;gradientColor=none;shape=stencil(pZJNDoIwEIVP023TTkXqGvEeRIo0IiUFFG8vzZAIJQLqbn6+13mdDBFRnSeVIsDqxpqreui0yYk4EgBd5srqpo+IiImIMmPVxZq2TDGvEke66Gbu7oUOdZwxpwH2nOYnhAtdjuCf0QXQNzBBz61FsxybB0llOOBDiVMOWOlgDoE3pBP+VLHhMytL8jYa0FBMcLmjEH5+XQJl8J+A76kMFvzPLH0tWLG0QdAH7yPMdFHgDY/7/tH2JTx4Eb8A);strokeColor=none;spacingTop=-3;spacingBottom=-3;spacingLeft=-3;spacingRight=-3;points=[];labelBackgroundColor=none;rounded=0;html=1;whiteSpace=wrap;" vertex="1" parent="ZA7k3HFakNiLwdTov1JZ-72">
          <mxGeometry x="25" width="14.166666666666668" height="14.976190476190478" as="geometry" />
        </mxCell>
        <mxCell id="ZA7k3HFakNiLwdTov1JZ-75" style="vsdxID=28;fillColor=#2d5967;gradientColor=none;shape=stencil(UzV2Ls5ILEhVNTIoLinKz04tz0wpyVA1dlE1MsrMy0gtyiwBslSNXVWNndPyi1LTi/JL81Ig/IJEkEoQKze/DGRCBUSfoYEBSI+RQSUq3w2iOCczD0kx2UrxKER3AAlK8TqAgGK0UDDTszBFUW5homdkjtt0hDTZGhB2Ync/hpNI1kDASURoADIQCSctMycHku6Q5dETGlAIkkiNXQE=);strokeColor=none;spacingTop=-3;spacingBottom=-3;spacingLeft=-3;spacingRight=-3;points=[];labelBackgroundColor=none;rounded=0;html=1;whiteSpace=wrap;" vertex="1" parent="ZA7k3HFakNiLwdTov1JZ-72">
          <mxGeometry x="15.833333333333334" y="17.61904761904762" width="14.166666666666668" height="14.976190476190478" as="geometry" />
        </mxCell>
        <mxCell id="ZA7k3HFakNiLwdTov1JZ-76" style="vsdxID=29;fillColor=#2d5967;gradientColor=none;shape=stencil(UzV2Ls5ILEhVNTIoLinKz04tz0wpyVA1dlE1MsrMy0gtyiwBslSNXVWNndPyi1LTi/JL81Ig/IJEkEoQKze/DGRCBUSfoYEBSI+RQSUq3w2iOCczD0kx2UrxKER3AAlK8TqAgGK0UDDTszBFUW5homdkjtt0hDTZGhB2Ync/hpNI1kDASURoADIQCSctMycHku6Q5dETGlAIkkiNXQE=);strokeColor=none;spacingTop=-3;spacingBottom=-3;spacingLeft=-3;spacingRight=-3;points=[];labelBackgroundColor=none;rounded=0;html=1;whiteSpace=wrap;" vertex="1" parent="ZA7k3HFakNiLwdTov1JZ-72">
          <mxGeometry x="33.333333333333336" y="17.61904761904762" width="14.166666666666668" height="14.976190476190478" as="geometry" />
        </mxCell>
        <mxCell id="ZA7k3HFakNiLwdTov1JZ-77" style="vsdxID=30;fillColor=#2d5967;gradientColor=none;shape=stencil(pZLZDsIgEEW/hlcCjBV8rvU/mpQKEUtDcft7QWJsNXbRt1nOndxMLoK8U2UrESOdd/YgL7ryCsEWMaYbJZ32oUJQIMhr6+Te2VNTpb4tIxmroz3HC9ek2wgseFQxcksTSsij3yXc6KaHk1/REfB5ZQa60O0kPvwFzTCHAS5WmPHv9wVgmv0noGssspHffFhaLJiwNEMQild8am1MSl9//x63MEpRheIO);strokeColor=none;spacingTop=-3;spacingBottom=-3;spacingLeft=-3;spacingRight=-3;points=[];labelBackgroundColor=none;rounded=0;html=1;whiteSpace=wrap;" vertex="1" parent="ZA7k3HFakNiLwdTov1JZ-72">
          <mxGeometry y="17.61904761904762" width="14.166666666666668" height="14.976190476190478" as="geometry" />
        </mxCell>
        <mxCell id="ZA7k3HFakNiLwdTov1JZ-93" style="edgeStyle=orthogonalEdgeStyle;rounded=0;orthogonalLoop=1;jettySize=auto;html=1;entryX=0.515;entryY=0.003;entryDx=0;entryDy=0;entryPerimeter=0;" edge="1" parent="1" target="ZA7k3HFakNiLwdTov1JZ-71">
          <mxGeometry relative="1" as="geometry">
            <mxPoint x="1096" y="548" as="sourcePoint" />
          </mxGeometry>
        </mxCell>
        <mxCell id="ZA7k3HFakNiLwdTov1JZ-143" value="Push&lt;br&gt;Container Image" style="edgeLabel;html=1;align=center;verticalAlign=middle;resizable=0;points=[];" vertex="1" connectable="0" parent="ZA7k3HFakNiLwdTov1JZ-93">
          <mxGeometry x="0.0179" relative="1" as="geometry">
            <mxPoint y="1" as="offset" />
          </mxGeometry>
        </mxCell>
        <mxCell id="ZA7k3HFakNiLwdTov1JZ-94" style="edgeStyle=orthogonalEdgeStyle;rounded=0;orthogonalLoop=1;jettySize=auto;html=1;exitX=0.5;exitY=1;exitDx=0;exitDy=0;entryX=0.389;entryY=0.941;entryDx=0;entryDy=0;entryPerimeter=0;shape=link;fillColor=#d5e8d4;strokeColor=#82b366;strokeWidth=2;flowAnimation=1;" edge="1" parent="1" source="ZA7k3HFakNiLwdTov1JZ-38" target="ZA7k3HFakNiLwdTov1JZ-84">
          <mxGeometry relative="1" as="geometry">
            <Array as="points">
              <mxPoint x="700" y="980" />
            </Array>
          </mxGeometry>
        </mxCell>
        <mxCell id="ZA7k3HFakNiLwdTov1JZ-95" value="GitLab&lt;br style=&quot;font-size: 14px;&quot;&gt;Runner" style="text;html=1;align=center;verticalAlign=middle;resizable=0;points=[];autosize=1;strokeColor=none;fillColor=none;strokeWidth=1;fontSize=14;fontStyle=1" vertex="1" parent="1">
          <mxGeometry x="665" y="625" width="70" height="50" as="geometry" />
        </mxCell>
        <mxCell id="ZA7k3HFakNiLwdTov1JZ-135" value="" style="endArrow=classic;startArrow=classic;html=1;rounded=0;entryX=-0.043;entryY=0.514;entryDx=0;entryDy=0;entryPerimeter=0;fillColor=#d5e8d4;strokeColor=#82b366;shape=link;flowAnimation=1;strokeWidth=2;" edge="1" parent="1">
          <mxGeometry width="50" height="50" relative="1" as="geometry">
            <mxPoint x="1021" y="1040" as="sourcePoint" />
            <mxPoint x="1056.9899999999998" y="948.0360000000001" as="targetPoint" />
            <Array as="points">
              <mxPoint x="1021" y="950" />
            </Array>
          </mxGeometry>
        </mxCell>
        <mxCell id="ZA7k3HFakNiLwdTov1JZ-137" value="&lt;b style=&quot;font-size: 12px;&quot;&gt;PULL&lt;br&gt;image:x.y.z&lt;/b&gt;" style="edgeLabel;html=1;align=center;verticalAlign=middle;resizable=0;points=[];labelBackgroundColor=none;" vertex="1" connectable="0" parent="ZA7k3HFakNiLwdTov1JZ-135">
          <mxGeometry x="-0.177" y="-3" relative="1" as="geometry">
            <mxPoint x="-44" y="37" as="offset" />
          </mxGeometry>
        </mxCell>
        <mxCell id="ZA7k3HFakNiLwdTov1JZ-141" style="edgeStyle=orthogonalEdgeStyle;rounded=0;orthogonalLoop=1;jettySize=auto;html=1;exitX=1;exitY=0.75;exitDx=0;exitDy=0;entryX=1.033;entryY=0.509;entryDx=0;entryDy=0;entryPerimeter=0;" edge="1" parent="1" source="w_5pN70K2NjQlTbYiHXN-331" target="ZA7k3HFakNiLwdTov1JZ-112">
          <mxGeometry relative="1" as="geometry">
            <Array as="points">
              <mxPoint x="1230" y="573" />
              <mxPoint x="1230" y="1073" />
            </Array>
          </mxGeometry>
        </mxCell>
        <mxCell id="ZA7k3HFakNiLwdTov1JZ-142" value="Update&lt;br&gt;Container Instances" style="edgeLabel;html=1;align=center;verticalAlign=middle;resizable=0;points=[];" vertex="1" connectable="0" parent="ZA7k3HFakNiLwdTov1JZ-141">
          <mxGeometry x="0.0552" relative="1" as="geometry">
            <mxPoint x="-10" y="14" as="offset" />
          </mxGeometry>
        </mxCell>
      </root>
    </mxGraphModel>
  </diagram>
</mxfile>
